<svg xmlns="http://www.w3.org/2000/svg" width="112" height="112" fill="none" viewBox="0 0 112 112"><g clip-path="url(#a)"><path fill="#FC2142" fill-rule="evenodd" d="M2 .22c.98 0 1.78.8 1.78 1.78v.02a1.78 1.78 0 1 1-3.56 0V2c0-.98.8-1.78 1.78-1.78Zm7.7 0c.98 0 1.77.8 1.77 1.78v.02a1.78 1.78 0 1 1-3.55 0V2c0-.98.8-1.78 1.78-1.78Zm7.69 0c.98 0 1.78.8 1.78 1.78v.02a1.78 1.78 0 0 1-3.56 0V2c0-.98.8-1.78 1.78-1.78Zm7.7 0c.98 0 1.77.8 1.77 1.78v.02a1.78 1.78 0 1 1-3.55 0V2c0-.98.8-1.78 1.78-1.78Zm7.69 0c.98 0 1.78.8 1.78 1.78v.02a1.78 1.78 0 0 1-3.56 0V2c0-.98.8-1.78 1.78-1.78Zm7.7 0c.98 0 1.77.8 1.77 1.78v.02a1.78 1.78 0 1 1-3.55 0V2c0-.98.8-1.78 1.78-1.78Zm7.69 0c.98 0 1.78.8 1.78 1.78v.02a1.78 1.78 0 0 1-3.56 0V2c0-.98.8-1.78 1.78-1.78Zm7.7 0c.98 0 1.77.8 1.77 1.78v.02a1.78 1.78 0 1 1-3.55 0V2c0-.98.8-1.78 1.78-1.78Zm7.7 0c.97 0 1.77.8 1.77 1.78v.02a1.78 1.78 0 0 1-3.56 0V2c0-.98.8-1.78 1.78-1.78Zm7.69 0c.98 0 1.78.8 1.78 1.78v.02a1.78 1.78 0 1 1-3.56 0V2c0-.98.8-1.78 1.78-1.78Zm7.95 0C80.2.22 81 1.02 81 2v.02a1.78 1.78 0 0 1-3.55 0V2c0-.98.8-1.78 1.77-1.78Zm7.7 0c.98 0 1.78.8 1.78 1.78v.02a1.78 1.78 0 1 1-3.56 0V2c0-.98.8-1.78 1.78-1.78Zm7.7 0c.98 0 1.77.8 1.77 1.78v.02a1.78 1.78 0 0 1-3.55 0V2c0-.98.8-1.78 1.78-1.78Zm7.7 0c.97 0 1.77.8 1.77 1.78v.02a1.78 1.78 0 0 1-3.55 0V2c0-.98.8-1.78 1.77-1.78Zm7.69 0c.98 0 1.78.8 1.78 1.78v.02a1.78 1.78 0 0 1-3.56 0V2c0-.98.8-1.78 1.78-1.78ZM2 9.2c.98 0 1.78.8 1.78 1.78v.04a1.78 1.78 0 1 1-3.56 0v-.04C.22 10 1.02 9.2 2 9.2Zm7.7 0c.98 0 1.77.8 1.77 1.78v.04a1.78 1.78 0 1 1-3.55 0v-.04c0-.98.8-1.78 1.78-1.78Zm7.69 0c.98 0 1.78.8 1.78 1.78v.04a1.78 1.78 0 1 1-3.56 0v-.04c0-.98.8-1.78 1.78-1.78Zm7.7 0c.98 0 1.77.8 1.77 1.78v.04a1.78 1.78 0 1 1-3.55 0v-.04c0-.98.8-1.78 1.78-1.78Zm7.69 0c.98 0 1.78.8 1.78 1.78v.04a1.78 1.78 0 1 1-3.56 0v-.04c0-.98.8-1.78 1.78-1.78Zm7.7 0c.98 0 1.77.8 1.77 1.78v.04a1.78 1.78 0 1 1-3.55 0v-.04c0-.98.8-1.78 1.78-1.78Zm7.69 0c.98 0 1.78.8 1.78 1.78v.04a1.78 1.78 0 1 1-3.56 0v-.04c0-.98.8-1.78 1.78-1.78Zm7.7 0c.98 0 1.77.8 1.77 1.78v.04a1.78 1.78 0 1 1-3.55 0v-.04c0-.98.8-1.78 1.78-1.78Zm7.7 0c.97 0 1.77.8 1.77 1.78v.04a1.78 1.78 0 1 1-3.56 0v-.04c0-.98.8-1.78 1.78-1.78Zm7.69 0c.98 0 1.78.8 1.78 1.78v.04a1.78 1.78 0 1 1-3.56 0v-.04c0-.98.8-1.78 1.78-1.78Zm7.95 0c.98 0 1.78.8 1.78 1.78v.04a1.78 1.78 0 1 1-3.55 0v-.04c0-.98.8-1.78 1.77-1.78Zm7.7 0c.98 0 1.78.8 1.78 1.78v.04a1.78 1.78 0 1 1-3.56 0v-.04c0-.98.8-1.78 1.78-1.78Zm7.7 0c.98 0 1.77.8 1.77 1.78v.04a1.78 1.78 0 1 1-3.55 0v-.04c0-.98.8-1.78 1.78-1.78Zm7.7 0c.97 0 1.77.8 1.77 1.78v.04a1.78 1.78 0 0 1-3.55 0v-.04c0-.98.8-1.78 1.77-1.78Zm7.69 0c.98 0 1.78.8 1.78 1.78v.04a1.78 1.78 0 0 1-3.56 0v-.04c0-.98.8-1.78 1.78-1.78Zm-108 9c.98 0 1.78.8 1.78 1.78v.04a1.78 1.78 0 1 1-3.56 0v-.04c0-.98.8-1.78 1.78-1.78Zm7.7 0c.98 0 1.77.8 1.77 1.78v.04a1.78 1.78 0 1 1-3.55 0v-.04c0-.98.8-1.78 1.78-1.78Zm7.69 0c.98 0 1.78.8 1.78 1.78v.04a1.78 1.78 0 1 1-3.56 0v-.04c0-.98.8-1.78 1.78-1.78Zm7.7 0c.98 0 1.77.8 1.77 1.78v.04a1.78 1.78 0 1 1-3.55 0v-.04c0-.98.8-1.78 1.78-1.78Zm7.69 0c.98 0 1.78.8 1.78 1.78v.04a1.78 1.78 0 1 1-3.56 0v-.04c0-.98.8-1.78 1.78-1.78Zm7.7 0c.98 0 1.77.8 1.77 1.78v.04a1.78 1.78 0 1 1-3.55 0v-.04c0-.98.8-1.78 1.78-1.78Zm7.69 0c.98 0 1.78.8 1.78 1.78v.04a1.78 1.78 0 1 1-3.56 0v-.04c0-.98.8-1.78 1.78-1.78Zm7.7 0c.98 0 1.77.8 1.77 1.78v.04a1.78 1.78 0 1 1-3.55 0v-.04c0-.98.8-1.78 1.78-1.78Zm7.7 0c.97 0 1.77.8 1.77 1.78v.04a1.78 1.78 0 1 1-3.56 0v-.04c0-.98.8-1.78 1.78-1.78Zm7.69 0c.98 0 1.78.8 1.78 1.78v.04a1.78 1.78 0 1 1-3.56 0v-.04c0-.98.8-1.78 1.78-1.78Zm7.95 0c.98 0 1.78.8 1.78 1.78v.04a1.78 1.78 0 1 1-3.55 0v-.04c0-.98.8-1.78 1.77-1.78Zm7.7 0c.98 0 1.78.8 1.78 1.78v.04a1.78 1.78 0 1 1-3.56 0v-.04c0-.98.8-1.78 1.78-1.78Zm7.7 0c.98 0 1.77.8 1.77 1.78v.04a1.78 1.78 0 1 1-3.55 0v-.04c0-.98.8-1.78 1.78-1.78Zm7.7 0c.97 0 1.77.8 1.77 1.78v.04a1.78 1.78 0 0 1-3.55 0v-.04c0-.98.8-1.78 1.77-1.78Zm7.69 0c.98 0 1.78.8 1.78 1.78v.04a1.78 1.78 0 0 1-3.56 0v-.04c0-.98.8-1.78 1.78-1.78Zm-108 9c.98 0 1.78.8 1.78 1.78v.04a1.78 1.78 0 1 1-3.56 0v-.04c0-.98.8-1.78 1.78-1.78Zm7.7 0c.98 0 1.77.8 1.77 1.78v.04a1.78 1.78 0 1 1-3.55 0v-.04c0-.98.8-1.78 1.78-1.78Zm7.69 0c.98 0 1.78.8 1.78 1.78v.04a1.78 1.78 0 1 1-3.56 0v-.04c0-.98.8-1.78 1.78-1.78Zm7.7 0c.98 0 1.77.8 1.77 1.78v.04a1.78 1.78 0 1 1-3.55 0v-.04c0-.98.8-1.78 1.78-1.78Zm7.69 0c.98 0 1.78.8 1.78 1.78v.04a1.78 1.78 0 1 1-3.56 0v-.04c0-.98.8-1.78 1.78-1.78Zm7.7 0c.98 0 1.77.8 1.77 1.78v.04a1.78 1.78 0 1 1-3.55 0v-.04c0-.98.8-1.78 1.78-1.78Zm7.69 0c.98 0 1.78.8 1.78 1.78v.04a1.78 1.78 0 1 1-3.56 0v-.04c0-.98.8-1.78 1.78-1.78Zm7.7 0c.98 0 1.77.8 1.77 1.78v.04a1.78 1.78 0 1 1-3.55 0v-.04c0-.98.8-1.78 1.78-1.78Zm7.7 0c.97 0 1.77.8 1.77 1.78v.04a1.78 1.78 0 1 1-3.56 0v-.04c0-.98.8-1.78 1.78-1.78Zm7.69 0c.98 0 1.78.8 1.78 1.78v.04a1.78 1.78 0 1 1-3.56 0v-.04c0-.98.8-1.78 1.78-1.78Zm7.95 0c.98 0 1.78.8 1.78 1.78v.04a1.78 1.78 0 1 1-3.55 0v-.04c0-.98.8-1.78 1.77-1.78Zm7.7 0c.98 0 1.78.8 1.78 1.78v.04a1.78 1.78 0 1 1-3.56 0v-.04c0-.98.8-1.78 1.78-1.78Zm7.7 0c.98 0 1.77.8 1.77 1.78v.04a1.78 1.78 0 1 1-3.55 0v-.04c0-.98.8-1.78 1.78-1.78Zm7.7 0c.97 0 1.77.8 1.77 1.78v.04a1.78 1.78 0 0 1-3.55 0v-.04c0-.98.8-1.78 1.77-1.78Zm7.69 0c.98 0 1.78.8 1.78 1.78v.04a1.78 1.78 0 0 1-3.56 0v-.04c0-.98.8-1.78 1.78-1.78Zm-108 9c.98 0 1.78.8 1.78 1.78v.04a1.78 1.78 0 1 1-3.56 0v-.04c0-.98.8-1.78 1.78-1.78Zm7.7 0c.98 0 1.77.8 1.77 1.78v.04a1.78 1.78 0 1 1-3.55 0v-.04c0-.98.8-1.78 1.78-1.78Zm7.69 0c.98 0 1.78.8 1.78 1.78v.04a1.78 1.78 0 1 1-3.56 0v-.04c0-.98.8-1.78 1.78-1.78Zm7.7 0c.98 0 1.77.8 1.77 1.78v.04a1.78 1.78 0 1 1-3.55 0v-.04c0-.98.8-1.78 1.78-1.78Zm7.69 0c.98 0 1.78.8 1.78 1.78v.04a1.78 1.78 0 1 1-3.56 0v-.04c0-.98.8-1.78 1.78-1.78Zm7.7 0c.98 0 1.77.8 1.77 1.78v.04a1.78 1.78 0 1 1-3.55 0v-.04c0-.98.8-1.78 1.78-1.78Zm7.69 0c.98 0 1.78.8 1.78 1.78v.04a1.78 1.78 0 1 1-3.56 0v-.04c0-.98.8-1.78 1.78-1.78Zm7.7 0c.98 0 1.77.8 1.77 1.78v.04a1.78 1.78 0 1 1-3.55 0v-.04c0-.98.8-1.78 1.78-1.78Zm7.7 0c.97 0 1.77.8 1.77 1.78v.04a1.78 1.78 0 1 1-3.56 0v-.04c0-.98.8-1.78 1.78-1.78Zm7.69 0c.98 0 1.78.8 1.78 1.78v.04a1.78 1.78 0 1 1-3.56 0v-.04c0-.98.8-1.78 1.78-1.78Zm7.95 0c.98 0 1.78.8 1.78 1.78v.04a1.78 1.78 0 1 1-3.55 0v-.04c0-.98.8-1.78 1.77-1.78Zm7.7 0c.98 0 1.78.8 1.78 1.78v.04a1.78 1.78 0 1 1-3.56 0v-.04c0-.98.8-1.78 1.78-1.78Zm7.7 0c.98 0 1.77.8 1.77 1.78v.04a1.78 1.78 0 1 1-3.55 0v-.04c0-.98.8-1.78 1.78-1.78Zm7.7 0c.97 0 1.77.8 1.77 1.78v.04a1.78 1.78 0 0 1-3.55 0v-.04c0-.98.8-1.78 1.77-1.78Zm7.69 0c.98 0 1.78.8 1.78 1.78v.04a1.78 1.78 0 0 1-3.56 0v-.04c0-.98.8-1.78 1.78-1.78Zm-108 9c.98 0 1.78.8 1.78 1.78v.04a1.78 1.78 0 1 1-3.56 0v-.04c0-.98.8-1.78 1.78-1.78Zm7.7 0c.98 0 1.77.8 1.77 1.78v.04a1.78 1.78 0 1 1-3.55 0v-.04c0-.98.8-1.78 1.78-1.78Zm7.69 0c.98 0 1.78.8 1.78 1.78v.04a1.78 1.78 0 1 1-3.56 0v-.04c0-.98.8-1.78 1.78-1.78Zm7.7 0c.98 0 1.77.8 1.77 1.78v.04a1.78 1.78 0 1 1-3.55 0v-.04c0-.98.8-1.78 1.78-1.78Zm7.69 0c.98 0 1.78.8 1.78 1.78v.04a1.78 1.78 0 1 1-3.56 0v-.04c0-.98.8-1.78 1.78-1.78Zm7.7 0c.98 0 1.77.8 1.77 1.78v.04a1.78 1.78 0 1 1-3.55 0v-.04c0-.98.8-1.78 1.78-1.78Zm7.69 0c.98 0 1.78.8 1.78 1.78v.04a1.78 1.78 0 1 1-3.56 0v-.04c0-.98.8-1.78 1.78-1.78Zm7.7 0c.98 0 1.77.8 1.77 1.78v.04a1.78 1.78 0 1 1-3.55 0v-.04c0-.98.8-1.78 1.78-1.78Zm7.7 0c.97 0 1.77.8 1.77 1.78v.04a1.78 1.78 0 1 1-3.56 0v-.04c0-.98.8-1.78 1.78-1.78Zm7.69 0c.98 0 1.78.8 1.78 1.78v.04a1.78 1.78 0 1 1-3.56 0v-.04c0-.98.8-1.78 1.78-1.78Zm7.95 0c.98 0 1.78.8 1.78 1.78v.04a1.78 1.78 0 1 1-3.55 0v-.04c0-.98.8-1.78 1.77-1.78Zm7.7 0c.98 0 1.78.8 1.78 1.78v.04a1.78 1.78 0 1 1-3.56 0v-.04c0-.98.8-1.78 1.78-1.78Zm7.7 0c.98 0 1.77.8 1.77 1.78v.04a1.78 1.78 0 1 1-3.55 0v-.04c0-.98.8-1.78 1.78-1.78Zm7.7 0c.97 0 1.77.8 1.77 1.78v.04a1.78 1.78 0 0 1-3.55 0v-.04c0-.98.8-1.78 1.77-1.78Zm7.69 0c.98 0 1.78.8 1.78 1.78v.04a1.78 1.78 0 0 1-3.56 0v-.04c0-.98.8-1.78 1.78-1.78Zm-108 9c.98 0 1.78.8 1.78 1.78v.04a1.78 1.78 0 1 1-3.56 0v-.04c0-.98.8-1.78 1.78-1.78Zm7.7 0c.98 0 1.77.8 1.77 1.78v.04a1.78 1.78 0 1 1-3.55 0v-.04c0-.98.8-1.78 1.78-1.78Zm7.69 0c.98 0 1.78.8 1.78 1.78v.04a1.78 1.78 0 1 1-3.56 0v-.04c0-.98.8-1.78 1.78-1.78Zm7.7 0c.98 0 1.77.8 1.77 1.78v.04a1.78 1.78 0 1 1-3.55 0v-.04c0-.98.8-1.78 1.78-1.78Zm7.69 0c.98 0 1.78.8 1.78 1.78v.04a1.78 1.78 0 1 1-3.56 0v-.04c0-.98.8-1.78 1.78-1.78Zm7.7 0c.98 0 1.77.8 1.77 1.78v.04a1.78 1.78 0 1 1-3.55 0v-.04c0-.98.8-1.78 1.78-1.78Zm7.69 0c.98 0 1.78.8 1.78 1.78v.04a1.78 1.78 0 1 1-3.56 0v-.04c0-.98.8-1.78 1.78-1.78Zm7.7 0c.98 0 1.77.8 1.77 1.78v.04a1.78 1.78 0 1 1-3.55 0v-.04c0-.98.8-1.78 1.78-1.78Zm7.7 0c.97 0 1.77.8 1.77 1.78v.04a1.78 1.78 0 1 1-3.56 0v-.04c0-.98.8-1.78 1.78-1.78Zm7.69 0c.98 0 1.78.8 1.78 1.78v.04a1.78 1.78 0 1 1-3.56 0v-.04c0-.98.8-1.78 1.78-1.78Zm7.95 0c.98 0 1.78.8 1.78 1.78v.04a1.78 1.78 0 1 1-3.55 0v-.04c0-.98.8-1.78 1.77-1.78Zm7.7 0c.98 0 1.78.8 1.78 1.78v.04a1.78 1.78 0 1 1-3.56 0v-.04c0-.98.8-1.78 1.78-1.78Zm7.7 0c.98 0 1.77.8 1.77 1.78v.04a1.78 1.78 0 1 1-3.55 0v-.04c0-.98.8-1.78 1.78-1.78Zm7.7 0c.97 0 1.77.8 1.77 1.78v.04a1.78 1.78 0 0 1-3.55 0v-.04c0-.98.8-1.78 1.77-1.78Zm7.69 0c.98 0 1.78.8 1.78 1.78v.04a1.78 1.78 0 0 1-3.56 0v-.04c0-.98.8-1.78 1.78-1.78Zm-108 9c.98 0 1.78.8 1.78 1.78v.04a1.78 1.78 0 1 1-3.56 0v-.04c0-.98.8-1.78 1.78-1.78Zm7.7 0c.98 0 1.77.8 1.77 1.78v.04a1.78 1.78 0 1 1-3.55 0v-.04c0-.98.8-1.78 1.78-1.78Zm7.69 0c.98 0 1.78.8 1.78 1.78v.04a1.78 1.78 0 1 1-3.56 0v-.04c0-.98.8-1.78 1.78-1.78Zm7.7 0c.98 0 1.77.8 1.77 1.78v.04a1.78 1.78 0 1 1-3.55 0v-.04c0-.98.8-1.78 1.78-1.78Zm7.69 0c.98 0 1.78.8 1.78 1.78v.04a1.78 1.78 0 1 1-3.56 0v-.04c0-.98.8-1.78 1.78-1.78Zm7.7 0c.98 0 1.77.8 1.77 1.78v.04a1.78 1.78 0 1 1-3.55 0v-.04c0-.98.8-1.78 1.78-1.78Zm7.69 0c.98 0 1.78.8 1.78 1.78v.04a1.78 1.78 0 1 1-3.56 0v-.04c0-.98.8-1.78 1.78-1.78Zm7.7 0c.98 0 1.77.8 1.77 1.78v.04a1.78 1.78 0 1 1-3.55 0v-.04c0-.98.8-1.78 1.78-1.78Zm7.7 0c.97 0 1.77.8 1.77 1.78v.04a1.78 1.78 0 1 1-3.56 0v-.04c0-.98.8-1.78 1.78-1.78Zm7.69 0c.98 0 1.78.8 1.78 1.78v.04a1.78 1.78 0 1 1-3.56 0v-.04c0-.98.8-1.78 1.78-1.78Zm7.95 0c.98 0 1.78.8 1.78 1.78v.04a1.78 1.78 0 1 1-3.55 0v-.04c0-.98.8-1.78 1.77-1.78Zm7.7 0c.98 0 1.78.8 1.78 1.78v.04a1.78 1.78 0 1 1-3.56 0v-.04c0-.98.8-1.78 1.78-1.78Zm7.7 0c.98 0 1.77.8 1.77 1.78v.04a1.78 1.78 0 1 1-3.55 0v-.04c0-.98.8-1.78 1.78-1.78Zm7.7 0c.97 0 1.77.8 1.77 1.78v.04a1.78 1.78 0 0 1-3.55 0v-.04c0-.98.8-1.78 1.77-1.78Zm7.69 0c.98 0 1.78.8 1.78 1.78v.04a1.78 1.78 0 0 1-3.56 0v-.04c0-.98.8-1.78 1.78-1.78Zm-108 9c.98 0 1.78.8 1.78 1.78v.04a1.78 1.78 0 1 1-3.56 0v-.04c0-.98.8-1.78 1.78-1.78Zm7.7 0c.98 0 1.77.8 1.77 1.78v.04a1.78 1.78 0 1 1-3.55 0v-.04c0-.98.8-1.78 1.78-1.78Zm7.69 0c.98 0 1.78.8 1.78 1.78v.04a1.78 1.78 0 1 1-3.56 0v-.04c0-.98.8-1.78 1.78-1.78Zm7.7 0c.98 0 1.77.8 1.77 1.78v.04a1.78 1.78 0 1 1-3.55 0v-.04c0-.98.8-1.78 1.78-1.78Zm7.69 0c.98 0 1.78.8 1.78 1.78v.04a1.78 1.78 0 1 1-3.56 0v-.04c0-.98.8-1.78 1.78-1.78Zm7.7 0c.98 0 1.77.8 1.77 1.78v.04a1.78 1.78 0 1 1-3.55 0v-.04c0-.98.8-1.78 1.78-1.78Zm7.69 0c.98 0 1.78.8 1.78 1.78v.04a1.78 1.78 0 1 1-3.56 0v-.04c0-.98.8-1.78 1.78-1.78Zm7.7 0c.98 0 1.77.8 1.77 1.78v.04a1.78 1.78 0 1 1-3.55 0v-.04c0-.98.8-1.78 1.78-1.78Zm7.7 0c.97 0 1.77.8 1.77 1.78v.04a1.78 1.78 0 1 1-3.56 0v-.04c0-.98.8-1.78 1.78-1.78Zm7.69 0c.98 0 1.78.8 1.78 1.78v.04a1.78 1.78 0 1 1-3.56 0v-.04c0-.98.8-1.78 1.78-1.78Zm7.95 0c.98 0 1.78.8 1.78 1.78v.04a1.78 1.78 0 1 1-3.55 0v-.04c0-.98.8-1.78 1.77-1.78Zm7.7 0c.98 0 1.78.8 1.78 1.78v.04a1.78 1.78 0 1 1-3.56 0v-.04c0-.98.8-1.78 1.78-1.78Zm7.7 0c.98 0 1.77.8 1.77 1.78v.04a1.78 1.78 0 1 1-3.55 0v-.04c0-.98.8-1.78 1.78-1.78Zm7.7 0c.97 0 1.77.8 1.77 1.78v.04a1.78 1.78 0 0 1-3.55 0v-.04c0-.98.8-1.78 1.77-1.78Zm7.69 0c.98 0 1.78.8 1.78 1.78v.04a1.78 1.78 0 0 1-3.56 0v-.04c0-.98.8-1.78 1.78-1.78Zm-108 9c.98 0 1.78.8 1.78 1.78v.04a1.78 1.78 0 1 1-3.56 0v-.04c0-.98.8-1.78 1.78-1.78Zm7.7 0c.98 0 1.77.8 1.77 1.78v.04a1.78 1.78 0 1 1-3.55 0v-.04c0-.98.8-1.78 1.78-1.78Zm7.69 0c.98 0 1.78.8 1.78 1.78v.04a1.78 1.78 0 1 1-3.56 0v-.04c0-.98.8-1.78 1.78-1.78Zm7.7 0c.98 0 1.77.8 1.77 1.78v.04a1.78 1.78 0 1 1-3.55 0v-.04c0-.98.8-1.78 1.78-1.78Zm7.69 0c.98 0 1.78.8 1.78 1.78v.04a1.78 1.78 0 1 1-3.56 0v-.04c0-.98.8-1.78 1.78-1.78Zm7.7 0c.98 0 1.77.8 1.77 1.78v.04a1.78 1.78 0 1 1-3.55 0v-.04c0-.98.8-1.78 1.78-1.78Zm7.69 0c.98 0 1.78.8 1.78 1.78v.04a1.78 1.78 0 1 1-3.56 0v-.04c0-.98.8-1.78 1.78-1.78Zm7.7 0c.98 0 1.77.8 1.77 1.78v.04a1.78 1.78 0 1 1-3.55 0v-.04c0-.98.8-1.78 1.78-1.78Zm7.7 0c.97 0 1.77.8 1.77 1.78v.04a1.78 1.78 0 1 1-3.56 0v-.04c0-.98.8-1.78 1.78-1.78Zm7.69 0c.98 0 1.78.8 1.78 1.78v.04a1.78 1.78 0 1 1-3.56 0v-.04c0-.98.8-1.78 1.78-1.78Zm7.95 0c.98 0 1.78.8 1.78 1.78v.04a1.78 1.78 0 1 1-3.55 0v-.04c0-.98.8-1.78 1.77-1.78Zm7.7 0c.98 0 1.78.8 1.78 1.78v.04a1.78 1.78 0 1 1-3.56 0v-.04c0-.98.8-1.78 1.78-1.78Zm7.7 0c.98 0 1.77.8 1.77 1.78v.04a1.78 1.78 0 1 1-3.55 0v-.04c0-.98.8-1.78 1.78-1.78Zm7.7 0c.97 0 1.77.8 1.77 1.78v.04a1.78 1.78 0 0 1-3.55 0v-.04c0-.98.8-1.78 1.77-1.78Zm7.69 0c.98 0 1.78.8 1.78 1.78v.04a1.78 1.78 0 0 1-3.56 0v-.04c0-.98.8-1.78 1.78-1.78Zm-108 9c.98 0 1.78.8 1.78 1.78v.04a1.78 1.78 0 1 1-3.56 0v-.04c0-.98.8-1.78 1.78-1.78Zm7.7 0c.98 0 1.77.8 1.77 1.78v.04a1.78 1.78 0 1 1-3.55 0v-.04c0-.98.8-1.78 1.78-1.78Zm7.69 0c.98 0 1.78.8 1.78 1.78v.04a1.78 1.78 0 1 1-3.56 0v-.04c0-.98.8-1.78 1.78-1.78Zm7.7 0c.98 0 1.77.8 1.77 1.78v.04a1.78 1.78 0 1 1-3.55 0v-.04c0-.98.8-1.78 1.78-1.78Zm7.69 0c.98 0 1.78.8 1.78 1.78v.04a1.78 1.78 0 1 1-3.56 0v-.04c0-.98.8-1.78 1.78-1.78Zm7.7 0c.98 0 1.77.8 1.77 1.78v.04a1.78 1.78 0 1 1-3.55 0v-.04c0-.98.8-1.78 1.78-1.78Zm7.69 0c.98 0 1.78.8 1.78 1.78v.04a1.78 1.78 0 1 1-3.56 0v-.04c0-.98.8-1.78 1.78-1.78Zm7.7 0c.98 0 1.77.8 1.77 1.78v.04a1.78 1.78 0 1 1-3.55 0v-.04c0-.98.8-1.78 1.78-1.78Zm7.7 0c.97 0 1.77.8 1.77 1.78v.04a1.78 1.78 0 1 1-3.56 0v-.04c0-.98.8-1.78 1.78-1.78Zm7.69 0c.98 0 1.78.8 1.78 1.78v.04a1.78 1.78 0 1 1-3.56 0v-.04c0-.98.8-1.78 1.78-1.78Zm7.95 0c.98 0 1.78.8 1.78 1.78v.04a1.78 1.78 0 1 1-3.55 0v-.04c0-.98.8-1.78 1.77-1.78Zm7.7 0c.98 0 1.78.8 1.78 1.78v.04a1.78 1.78 0 1 1-3.56 0v-.04c0-.98.8-1.78 1.78-1.78Zm7.7 0c.98 0 1.77.8 1.77 1.78v.04a1.78 1.78 0 1 1-3.55 0v-.04c0-.98.8-1.78 1.78-1.78Zm7.7 0c.97 0 1.77.8 1.77 1.78v.04a1.78 1.78 0 0 1-3.55 0v-.04c0-.98.8-1.78 1.77-1.78Zm7.69 0c.98 0 1.78.8 1.78 1.78v.04a1.78 1.78 0 0 1-3.56 0v-.04c0-.98.8-1.78 1.78-1.78Zm-108 9c.98 0 1.78.8 1.78 1.78v.04a1.78 1.78 0 1 1-3.56 0v-.04c0-.98.8-1.78 1.78-1.78Zm7.7 0c.98 0 1.77.8 1.77 1.78v.04a1.78 1.78 0 1 1-3.55 0v-.04c0-.98.8-1.78 1.78-1.78Zm7.69 0c.98 0 1.78.8 1.78 1.78v.04a1.78 1.78 0 1 1-3.56 0v-.04c0-.98.8-1.78 1.78-1.78Zm7.7 0c.98 0 1.77.8 1.77 1.78v.04a1.78 1.78 0 1 1-3.55 0v-.04c0-.98.8-1.78 1.78-1.78Zm7.69 0c.98 0 1.78.8 1.78 1.78v.04a1.78 1.78 0 1 1-3.56 0v-.04c0-.98.8-1.78 1.78-1.78Zm7.7 0c.98 0 1.77.8 1.77 1.78v.04a1.78 1.78 0 1 1-3.55 0v-.04c0-.98.8-1.78 1.78-1.78Zm7.69 0c.98 0 1.78.8 1.78 1.78v.04a1.78 1.78 0 1 1-3.56 0v-.04c0-.98.8-1.78 1.78-1.78Zm7.7 0c.98 0 1.77.8 1.77 1.78v.04a1.78 1.78 0 1 1-3.55 0v-.04c0-.98.8-1.78 1.78-1.78Zm7.7 0c.97 0 1.77.8 1.77 1.78v.04a1.78 1.78 0 1 1-3.56 0v-.04c0-.98.8-1.78 1.78-1.78Zm7.69 0c.98 0 1.78.8 1.78 1.78v.04a1.78 1.78 0 1 1-3.56 0v-.04c0-.98.8-1.78 1.78-1.78Zm7.95 0c.98 0 1.78.8 1.78 1.78v.04a1.78 1.78 0 1 1-3.55 0v-.04c0-.98.8-1.78 1.77-1.78Zm7.7 0c.98 0 1.78.8 1.78 1.78v.04a1.78 1.78 0 1 1-3.56 0v-.04c0-.98.8-1.78 1.78-1.78Zm7.7 0c.98 0 1.77.8 1.77 1.78v.04a1.78 1.78 0 1 1-3.55 0v-.04c0-.98.8-1.78 1.78-1.78Zm7.7 0c.97 0 1.77.8 1.77 1.78v.04a1.78 1.78 0 1 1-3.55 0v-.04c0-.98.8-1.78 1.77-1.78Zm7.69 0c.98 0 1.78.8 1.78 1.78v.04a1.78 1.78 0 1 1-3.56 0v-.04c0-.98.8-1.78 1.78-1.78Zm-108 9c.98 0 1.78.8 1.78 1.78v.02a1.78 1.78 0 1 1-3.56 0v-.02c0-.98.8-1.78 1.78-1.78Zm7.7 0c.98 0 1.77.8 1.77 1.78v.02a1.78 1.78 0 1 1-3.55 0v-.02c0-.98.8-1.78 1.78-1.78Zm7.69 0c.98 0 1.78.8 1.78 1.78v.02a1.78 1.78 0 1 1-3.56 0v-.02c0-.98.8-1.78 1.78-1.78Zm7.7 0c.98 0 1.77.8 1.77 1.78v.02a1.78 1.78 0 1 1-3.55 0v-.02c0-.98.8-1.78 1.78-1.78Zm7.69 0c.98 0 1.78.8 1.78 1.78v.02a1.78 1.78 0 1 1-3.56 0v-.02c0-.98.8-1.78 1.78-1.78Zm7.7 0c.98 0 1.77.8 1.77 1.78v.02a1.78 1.78 0 1 1-3.55 0v-.02c0-.98.8-1.78 1.78-1.78Zm7.69 0c.98 0 1.78.8 1.78 1.78v.02a1.78 1.78 0 1 1-3.56 0v-.02c0-.98.8-1.78 1.78-1.78Zm7.7 0c.98 0 1.77.8 1.77 1.78v.02a1.78 1.78 0 1 1-3.55 0v-.02c0-.98.8-1.78 1.78-1.78Zm7.7 0c.97 0 1.77.8 1.77 1.78v.02a1.78 1.78 0 1 1-3.56 0v-.02c0-.98.8-1.78 1.78-1.78Zm7.69 0c.98 0 1.78.8 1.78 1.78v.02a1.78 1.78 0 1 1-3.56 0v-.02c0-.98.8-1.78 1.78-1.78Zm7.95 0c.98 0 1.78.8 1.78 1.78v.02a1.78 1.78 0 1 1-3.55 0v-.02c0-.98.8-1.78 1.77-1.78Zm7.7 0c.98 0 1.78.8 1.78 1.78v.02a1.78 1.78 0 1 1-3.56 0v-.02c0-.98.8-1.78 1.78-1.78Zm7.7 0c.98 0 1.77.8 1.77 1.78v.02a1.78 1.78 0 1 1-3.55 0v-.02c0-.98.8-1.78 1.78-1.78Zm7.7 0c.97 0 1.77.8 1.77 1.78v.02a1.78 1.78 0 0 1-3.55 0v-.02c0-.98.8-1.78 1.77-1.78Zm7.69 0c.98 0 1.78.8 1.78 1.78v.02a1.78 1.78 0 0 1-3.56 0v-.02c0-.98.8-1.78 1.78-1.78Z" clip-rule="evenodd"/></g><defs><clipPath id="a"><path fill="#fff" d="M0 0h112v112H0z"/></clipPath></defs></svg>
