<svg xmlns="http://www.w3.org/2000/svg" width="188" height="246" fill="none" viewBox="0 0 188 246"><path fill="#FC2142" fill-rule="evenodd" d="M2.02.55c.98 0 1.78.8 1.78 1.78v.02a1.78 1.78 0 0 1-3.56 0v-.02c0-.98.8-1.78 1.78-1.78Zm7.98 0c.99 0 1.78.8 1.78 1.78v.02a1.78 1.78 0 0 1-3.55 0v-.02c0-.98.8-1.78 1.77-1.78Zm7.99 0c.98 0 1.78.8 1.78 1.78v.02a1.78 1.78 0 0 1-3.56 0v-.02c0-.98.8-1.78 1.78-1.78Zm7.99 0c.98 0 1.77.8 1.77 1.78v.02a1.78 1.78 0 0 1-3.55 0v-.02c0-.98.8-1.78 1.78-1.78Zm7.98 0c.98 0 1.78.8 1.78 1.78v.02a1.78 1.78 0 1 1-3.56 0v-.02c0-.98.8-1.78 1.78-1.78Zm7.99 0c.98 0 1.77.8 1.77 1.78v.02a1.78 1.78 0 0 1-3.55 0v-.02c0-.98.8-1.78 1.78-1.78Zm7.98 0c.98 0 1.78.8 1.78 1.78v.02a1.78 1.78 0 0 1-3.55 0v-.02c0-.98.8-1.78 1.77-1.78Zm7.99 0c.98 0 1.78.8 1.78 1.78v.02a1.78 1.78 0 0 1-3.56 0v-.02c0-.98.8-1.78 1.78-1.78Zm7.99 0c.98 0 1.77.8 1.77 1.78v.02a1.78 1.78 0 0 1-3.55 0v-.02c0-.98.8-1.78 1.78-1.78Zm7.98 0c.99 0 1.78.8 1.78 1.78v.02a1.78 1.78 0 1 1-3.55 0v-.02c0-.98.8-1.78 1.77-1.78Zm8.26 0c.98 0 1.78.8 1.78 1.78v.02a1.78 1.78 0 0 1-3.56 0v-.02c0-.98.8-1.78 1.78-1.78Zm7.99 0c.98 0 1.77.8 1.77 1.78v.02a1.78 1.78 0 1 1-3.55 0v-.02c0-.98.8-1.78 1.78-1.78Zm7.98 0c.99 0 1.78.8 1.78 1.78v.02a1.78 1.78 0 0 1-3.55 0v-.02c0-.98.8-1.78 1.77-1.78Zm8 0c.97 0 1.77.8 1.77 1.78v.02a1.78 1.78 0 0 1-3.56 0v-.02c0-.98.8-1.78 1.78-1.78Zm7.98 0c.98 0 1.78.8 1.78 1.78v.02a1.78 1.78 0 1 1-3.56 0v-.02c0-.98.8-1.78 1.78-1.78Zm7.99 0c.98 0 1.77.8 1.77 1.78v.02a1.78 1.78 0 0 1-3.55 0v-.02c0-.98.8-1.78 1.78-1.78Zm7.98 0c.99 0 1.78.8 1.78 1.78v.02a1.78 1.78 0 0 1-3.55 0v-.02c0-.98.8-1.78 1.77-1.78Zm8 0c.97 0 1.77.8 1.77 1.78v.02a1.78 1.78 0 1 1-3.56 0v-.02c0-.98.8-1.78 1.78-1.78Zm7.98 0c.98 0 1.78.8 1.78 1.78v.02a1.78 1.78 0 0 1-3.56 0v-.02c0-.98.8-1.78 1.78-1.78Zm7.99 0c.98 0 1.77.8 1.77 1.78v.02a1.78 1.78 0 0 1-3.55 0v-.02c0-.98.8-1.78 1.78-1.78Zm7.98 0c.99 0 1.78.8 1.78 1.78v.02a1.78 1.78 0 0 1-3.55 0v-.02c0-.98.8-1.78 1.77-1.78Zm8 0c.97 0 1.77.8 1.77 1.78v.02a1.78 1.78 0 0 1-3.56 0v-.02c0-.98.8-1.78 1.78-1.78Zm7.98 0c.98 0 1.78.8 1.78 1.78v.02a1.78 1.78 0 1 1-3.56 0v-.02c0-.98.8-1.78 1.78-1.78Zm7.99 0c.98 0 1.77.8 1.77 1.78v.02a1.78 1.78 0 0 1-3.55 0v-.02c0-.98.8-1.78 1.78-1.78ZM2.02 9.8c.98 0 1.78.8 1.78 1.78v.05a1.78 1.78 0 1 1-3.56 0v-.05c0-.98.8-1.78 1.78-1.78Zm7.98 0c.99 0 1.78.8 1.78 1.78v.05a1.78 1.78 0 1 1-3.55 0v-.05c0-.98.8-1.78 1.77-1.78Zm7.99 0c.98 0 1.78.8 1.78 1.78v.05a1.78 1.78 0 1 1-3.56 0v-.05c0-.98.8-1.78 1.78-1.78Zm7.99 0c.98 0 1.77.8 1.77 1.78v.05a1.78 1.78 0 1 1-3.55 0v-.05c0-.98.8-1.78 1.78-1.78Zm7.98 0c.98 0 1.78.8 1.78 1.78v.05a1.78 1.78 0 1 1-3.56 0v-.05c0-.98.8-1.78 1.78-1.78Zm7.99 0c.98 0 1.77.8 1.77 1.78v.05a1.78 1.78 0 1 1-3.55 0v-.05c0-.98.8-1.78 1.78-1.78Zm7.98 0c.98 0 1.78.8 1.78 1.78v.05a1.78 1.78 0 1 1-3.55 0v-.05c0-.98.8-1.78 1.77-1.78Zm7.99 0c.98 0 1.78.8 1.78 1.78v.05a1.78 1.78 0 1 1-3.56 0v-.05c0-.98.8-1.78 1.78-1.78Zm7.99 0c.98 0 1.77.8 1.77 1.78v.05a1.78 1.78 0 1 1-3.55 0v-.05c0-.98.8-1.78 1.78-1.78Zm7.98 0c.99 0 1.78.8 1.78 1.78v.05a1.78 1.78 0 1 1-3.55 0v-.05c0-.98.8-1.78 1.77-1.78Zm8.26 0c.98 0 1.78.8 1.78 1.78v.05a1.78 1.78 0 1 1-3.56 0v-.05c0-.98.8-1.78 1.78-1.78Zm7.99 0c.98 0 1.77.8 1.77 1.78v.05a1.78 1.78 0 1 1-3.55 0v-.05c0-.98.8-1.78 1.78-1.78Zm7.98 0c.99 0 1.78.8 1.78 1.78v.05a1.78 1.78 0 1 1-3.55 0v-.05c0-.98.8-1.78 1.77-1.78Zm8 0c.97 0 1.77.8 1.77 1.78v.05a1.78 1.78 0 0 1-3.56 0v-.05c0-.98.8-1.78 1.78-1.78Zm7.98 0c.98 0 1.78.8 1.78 1.78v.05a1.78 1.78 0 1 1-3.56 0v-.05c0-.98.8-1.78 1.78-1.78Zm7.99 0c.98 0 1.77.8 1.77 1.78v.05a1.78 1.78 0 0 1-3.55 0v-.05c0-.98.8-1.78 1.78-1.78Zm7.98 0c.99 0 1.78.8 1.78 1.78v.05a1.78 1.78 0 0 1-3.55 0v-.05c0-.98.8-1.78 1.77-1.78Zm8 0c.97 0 1.77.8 1.77 1.78v.05a1.78 1.78 0 1 1-3.56 0v-.05c0-.98.8-1.78 1.78-1.78Zm7.98 0c.98 0 1.78.8 1.78 1.78v.05a1.78 1.78 0 0 1-3.56 0v-.05c0-.98.8-1.78 1.78-1.78Zm7.99 0c.98 0 1.77.8 1.77 1.78v.05a1.78 1.78 0 0 1-3.55 0v-.05c0-.98.8-1.78 1.78-1.78Zm7.98 0c.99 0 1.78.8 1.78 1.78v.05a1.78 1.78 0 0 1-3.55 0v-.05c0-.98.8-1.78 1.77-1.78Zm8 0c.97 0 1.77.8 1.77 1.78v.05a1.78 1.78 0 0 1-3.56 0v-.05c0-.98.8-1.78 1.78-1.78Zm7.98 0c.98 0 1.78.8 1.78 1.78v.05a1.78 1.78 0 1 1-3.56 0v-.05c0-.98.8-1.78 1.78-1.78Zm7.99 0c.98 0 1.77.8 1.77 1.78v.05a1.78 1.78 0 0 1-3.55 0v-.05c0-.98.8-1.78 1.78-1.78ZM2.02 19.06c.98 0 1.78.8 1.78 1.77v.05a1.78 1.78 0 1 1-3.56 0v-.05c0-.98.8-1.77 1.78-1.77Zm7.98 0c.99 0 1.78.8 1.78 1.77v.05a1.78 1.78 0 1 1-3.55 0v-.05c0-.98.8-1.77 1.77-1.77Zm7.99 0c.98 0 1.78.8 1.78 1.77v.05a1.78 1.78 0 1 1-3.56 0v-.05c0-.98.8-1.77 1.78-1.77Zm7.99 0c.98 0 1.77.8 1.77 1.77v.05a1.78 1.78 0 1 1-3.55 0v-.05c0-.98.8-1.77 1.78-1.77Zm7.98 0c.98 0 1.78.8 1.78 1.77v.05a1.78 1.78 0 1 1-3.56 0v-.05c0-.98.8-1.77 1.78-1.77Zm7.99 0c.98 0 1.77.8 1.77 1.77v.05a1.78 1.78 0 1 1-3.55 0v-.05c0-.98.8-1.77 1.78-1.77Zm7.98 0c.98 0 1.78.8 1.78 1.77v.05a1.78 1.78 0 1 1-3.55 0v-.05c0-.98.8-1.77 1.77-1.77Zm7.99 0c.98 0 1.78.8 1.78 1.77v.05a1.78 1.78 0 1 1-3.56 0v-.05c0-.98.8-1.77 1.78-1.77Zm7.99 0c.98 0 1.77.8 1.77 1.77v.05a1.78 1.78 0 1 1-3.55 0v-.05c0-.98.8-1.77 1.78-1.77Zm7.98 0c.99 0 1.78.8 1.78 1.77v.05a1.78 1.78 0 1 1-3.55 0v-.05c0-.98.8-1.77 1.77-1.77Zm8.26 0c.98 0 1.78.8 1.78 1.77v.05a1.78 1.78 0 1 1-3.56 0v-.05c0-.98.8-1.77 1.78-1.77Zm7.99 0c.98 0 1.77.8 1.77 1.77v.05a1.78 1.78 0 1 1-3.55 0v-.05c0-.98.8-1.77 1.78-1.77Zm7.98 0c.99 0 1.78.8 1.78 1.77v.05a1.78 1.78 0 1 1-3.55 0v-.05c0-.98.8-1.77 1.77-1.77Zm8 0c.97 0 1.77.8 1.77 1.77v.05a1.78 1.78 0 0 1-3.56 0v-.05c0-.98.8-1.77 1.78-1.77Zm7.98 0c.98 0 1.78.8 1.78 1.77v.05a1.78 1.78 0 1 1-3.56 0v-.05c0-.98.8-1.77 1.78-1.77Zm7.99 0c.98 0 1.77.8 1.77 1.77v.05a1.78 1.78 0 0 1-3.55 0v-.05c0-.98.8-1.77 1.78-1.77Zm7.98 0c.99 0 1.78.8 1.78 1.77v.05a1.78 1.78 0 0 1-3.55 0v-.05c0-.98.8-1.77 1.77-1.77Zm8 0c.97 0 1.77.8 1.77 1.77v.05a1.78 1.78 0 1 1-3.56 0v-.05c0-.98.8-1.77 1.78-1.77Zm7.98 0c.98 0 1.78.8 1.78 1.77v.05a1.78 1.78 0 0 1-3.56 0v-.05c0-.98.8-1.77 1.78-1.77Zm7.99 0c.98 0 1.77.8 1.77 1.77v.05a1.78 1.78 0 0 1-3.55 0v-.05c0-.98.8-1.77 1.78-1.77Zm7.98 0c.99 0 1.78.8 1.78 1.77v.05a1.78 1.78 0 0 1-3.55 0v-.05c0-.98.8-1.77 1.77-1.77Zm8 0c.97 0 1.77.8 1.77 1.77v.05a1.78 1.78 0 0 1-3.56 0v-.05c0-.98.8-1.77 1.78-1.77Zm7.98 0c.98 0 1.78.8 1.78 1.77v.05a1.78 1.78 0 1 1-3.56 0v-.05c0-.98.8-1.77 1.78-1.77Zm7.99 0c.98 0 1.77.8 1.77 1.77v.05a1.78 1.78 0 0 1-3.55 0v-.05c0-.98.8-1.77 1.78-1.77ZM2.02 28.32c.98 0 1.78.8 1.78 1.78v.04a1.78 1.78 0 0 1-3.56 0v-.04c0-.99.8-1.78 1.78-1.78Zm7.98 0c.99 0 1.78.8 1.78 1.78v.04a1.78 1.78 0 0 1-3.55 0v-.04c0-.99.8-1.78 1.77-1.78Zm7.99 0c.98 0 1.78.8 1.78 1.78v.04a1.78 1.78 0 0 1-3.56 0v-.04c0-.99.8-1.78 1.78-1.78Zm7.99 0c.98 0 1.77.8 1.77 1.78v.04a1.78 1.78 0 0 1-3.55 0v-.04c0-.99.8-1.78 1.78-1.78Zm7.98 0c.98 0 1.78.8 1.78 1.78v.04a1.78 1.78 0 0 1-3.56 0v-.04c0-.99.8-1.78 1.78-1.78Zm7.99 0c.98 0 1.77.8 1.77 1.78v.04a1.78 1.78 0 0 1-3.55 0v-.04c0-.99.8-1.78 1.78-1.78Zm7.98 0c.98 0 1.78.8 1.78 1.78v.04a1.78 1.78 0 0 1-3.55 0v-.04c0-.99.8-1.78 1.77-1.78Zm7.99 0c.98 0 1.78.8 1.78 1.78v.04a1.78 1.78 0 0 1-3.56 0v-.04c0-.99.8-1.78 1.78-1.78Zm7.99 0c.98 0 1.77.8 1.77 1.78v.04a1.78 1.78 0 0 1-3.55 0v-.04c0-.99.8-1.78 1.78-1.78Zm7.98 0c.99 0 1.78.8 1.78 1.78v.04a1.78 1.78 0 0 1-3.55 0v-.04c0-.99.8-1.78 1.77-1.78Zm8.26 0c.98 0 1.78.8 1.78 1.78v.04a1.78 1.78 0 0 1-3.56 0v-.04c0-.99.8-1.78 1.78-1.78Zm7.99 0c.98 0 1.77.8 1.77 1.78v.04a1.78 1.78 0 0 1-3.55 0v-.04c0-.99.8-1.78 1.78-1.78Zm7.98 0c.99 0 1.78.8 1.78 1.78v.04a1.78 1.78 0 0 1-3.55 0v-.04c0-.99.8-1.78 1.77-1.78Zm8 0c.97 0 1.77.8 1.77 1.78v.04a1.78 1.78 0 0 1-3.56 0v-.04c0-.99.8-1.78 1.78-1.78Zm7.98 0c.98 0 1.78.8 1.78 1.78v.04a1.78 1.78 0 1 1-3.56 0v-.04c0-.99.8-1.78 1.78-1.78Zm7.99 0c.98 0 1.77.8 1.77 1.78v.04a1.78 1.78 0 0 1-3.55 0v-.04c0-.99.8-1.78 1.78-1.78Zm7.98 0c.99 0 1.78.8 1.78 1.78v.04a1.78 1.78 0 0 1-3.55 0v-.04c0-.99.8-1.78 1.77-1.78Zm8 0c.97 0 1.77.8 1.77 1.78v.04a1.78 1.78 0 1 1-3.56 0v-.04c0-.99.8-1.78 1.78-1.78Zm7.98 0c.98 0 1.78.8 1.78 1.78v.04a1.78 1.78 0 0 1-3.56 0v-.04c0-.99.8-1.78 1.78-1.78Zm7.99 0c.98 0 1.77.8 1.77 1.78v.04a1.78 1.78 0 0 1-3.55 0v-.04c0-.99.8-1.78 1.78-1.78Zm7.98 0c.99 0 1.78.8 1.78 1.78v.04a1.78 1.78 0 0 1-3.55 0v-.04c0-.99.8-1.78 1.77-1.78Zm8 0c.97 0 1.77.8 1.77 1.78v.04a1.78 1.78 0 0 1-3.56 0v-.04c0-.99.8-1.78 1.78-1.78Zm7.98 0c.98 0 1.78.8 1.78 1.78v.04a1.78 1.78 0 1 1-3.56 0v-.04c0-.99.8-1.78 1.78-1.78Zm7.99 0c.98 0 1.77.8 1.77 1.78v.04a1.78 1.78 0 0 1-3.55 0v-.04c0-.99.8-1.78 1.78-1.78ZM2.02 37.58c.98 0 1.78.8 1.78 1.78v.05a1.78 1.78 0 1 1-3.56 0v-.05c0-.98.8-1.78 1.78-1.78Zm7.98 0c.99 0 1.78.8 1.78 1.78v.05a1.78 1.78 0 1 1-3.55 0v-.05c0-.98.8-1.78 1.77-1.78Zm7.99 0c.98 0 1.78.8 1.78 1.78v.05a1.78 1.78 0 1 1-3.56 0v-.05c0-.98.8-1.78 1.78-1.78Zm7.99 0c.98 0 1.77.8 1.77 1.78v.05a1.78 1.78 0 1 1-3.55 0v-.05c0-.98.8-1.78 1.78-1.78Zm7.98 0c.98 0 1.78.8 1.78 1.78v.05a1.78 1.78 0 1 1-3.56 0v-.05c0-.98.8-1.78 1.78-1.78Zm7.99 0c.98 0 1.77.8 1.77 1.78v.05a1.78 1.78 0 1 1-3.55 0v-.05c0-.98.8-1.78 1.78-1.78Zm7.98 0c.98 0 1.78.8 1.78 1.78v.05a1.78 1.78 0 1 1-3.55 0v-.05c0-.98.8-1.78 1.77-1.78Zm7.99 0c.98 0 1.78.8 1.78 1.78v.05a1.78 1.78 0 1 1-3.56 0v-.05c0-.98.8-1.78 1.78-1.78Zm7.99 0c.98 0 1.77.8 1.77 1.78v.05a1.78 1.78 0 1 1-3.55 0v-.05c0-.98.8-1.78 1.78-1.78Zm7.98 0c.99 0 1.78.8 1.78 1.78v.05a1.78 1.78 0 1 1-3.55 0v-.05c0-.98.8-1.78 1.77-1.78Zm8.26 0c.98 0 1.78.8 1.78 1.78v.05a1.78 1.78 0 1 1-3.56 0v-.05c0-.98.8-1.78 1.78-1.78Zm7.99 0c.98 0 1.77.8 1.77 1.78v.05a1.78 1.78 0 1 1-3.55 0v-.05c0-.98.8-1.78 1.78-1.78Zm7.98 0c.99 0 1.78.8 1.78 1.78v.05a1.78 1.78 0 1 1-3.55 0v-.05c0-.98.8-1.78 1.77-1.78Zm8 0c.97 0 1.77.8 1.77 1.78v.05a1.78 1.78 0 0 1-3.56 0v-.05c0-.98.8-1.78 1.78-1.78Zm7.98 0c.98 0 1.78.8 1.78 1.78v.05a1.78 1.78 0 1 1-3.56 0v-.05c0-.98.8-1.78 1.78-1.78Zm7.99 0c.98 0 1.77.8 1.77 1.78v.05a1.78 1.78 0 0 1-3.55 0v-.05c0-.98.8-1.78 1.78-1.78Zm7.98 0c.99 0 1.78.8 1.78 1.78v.05a1.78 1.78 0 0 1-3.55 0v-.05c0-.98.8-1.78 1.77-1.78Zm8 0c.97 0 1.77.8 1.77 1.78v.05a1.78 1.78 0 1 1-3.56 0v-.05c0-.98.8-1.78 1.78-1.78Zm7.98 0c.98 0 1.78.8 1.78 1.78v.05a1.78 1.78 0 0 1-3.56 0v-.05c0-.98.8-1.78 1.78-1.78Zm7.99 0c.98 0 1.77.8 1.77 1.78v.05a1.78 1.78 0 0 1-3.55 0v-.05c0-.98.8-1.78 1.78-1.78Zm7.98 0c.99 0 1.78.8 1.78 1.78v.05a1.78 1.78 0 0 1-3.55 0v-.05c0-.98.8-1.78 1.77-1.78Zm8 0c.97 0 1.77.8 1.77 1.78v.05a1.78 1.78 0 0 1-3.56 0v-.05c0-.98.8-1.78 1.78-1.78Zm7.98 0c.98 0 1.78.8 1.78 1.78v.05a1.78 1.78 0 1 1-3.56 0v-.05c0-.98.8-1.78 1.78-1.78Zm7.99 0c.98 0 1.77.8 1.77 1.78v.05a1.78 1.78 0 0 1-3.55 0v-.05c0-.98.8-1.78 1.78-1.78ZM2.02 46.85c.98 0 1.78.8 1.78 1.77v.05a1.78 1.78 0 1 1-3.56 0v-.05c0-.98.8-1.77 1.78-1.77Zm7.98 0c.99 0 1.78.8 1.78 1.77v.05a1.78 1.78 0 1 1-3.55 0v-.05c0-.98.8-1.77 1.77-1.77Zm7.99 0c.98 0 1.78.8 1.78 1.77v.05a1.78 1.78 0 1 1-3.56 0v-.05c0-.98.8-1.77 1.78-1.77Zm7.99 0c.98 0 1.77.8 1.77 1.77v.05a1.78 1.78 0 1 1-3.55 0v-.05c0-.98.8-1.77 1.78-1.77Zm7.98 0c.98 0 1.78.8 1.78 1.77v.05a1.78 1.78 0 1 1-3.56 0v-.05c0-.98.8-1.77 1.78-1.77Zm7.99 0c.98 0 1.77.8 1.77 1.77v.05a1.78 1.78 0 1 1-3.55 0v-.05c0-.98.8-1.77 1.78-1.77Zm7.98 0c.98 0 1.78.8 1.78 1.77v.05a1.78 1.78 0 1 1-3.55 0v-.05c0-.98.8-1.77 1.77-1.77Zm7.99 0c.98 0 1.78.8 1.78 1.77v.05a1.78 1.78 0 1 1-3.56 0v-.05c0-.98.8-1.77 1.78-1.77Zm7.99 0c.98 0 1.77.8 1.77 1.77v.05a1.78 1.78 0 1 1-3.55 0v-.05c0-.98.8-1.77 1.78-1.77Zm7.98 0c.99 0 1.78.8 1.78 1.77v.05a1.78 1.78 0 1 1-3.55 0v-.05c0-.98.8-1.77 1.77-1.77Zm8.26 0c.98 0 1.78.8 1.78 1.77v.05a1.78 1.78 0 1 1-3.56 0v-.05c0-.98.8-1.77 1.78-1.77Zm7.99 0c.98 0 1.77.8 1.77 1.77v.05a1.78 1.78 0 1 1-3.55 0v-.05c0-.98.8-1.77 1.78-1.77Zm7.98 0c.99 0 1.78.8 1.78 1.77v.05a1.78 1.78 0 1 1-3.55 0v-.05c0-.98.8-1.77 1.77-1.77Zm8 0c.97 0 1.77.8 1.77 1.77v.05a1.78 1.78 0 0 1-3.56 0v-.05c0-.98.8-1.77 1.78-1.77Zm7.98 0c.98 0 1.78.8 1.78 1.77v.05a1.78 1.78 0 1 1-3.56 0v-.05c0-.98.8-1.77 1.78-1.77Zm7.99 0c.98 0 1.77.8 1.77 1.77v.05a1.78 1.78 0 0 1-3.55 0v-.05c0-.98.8-1.77 1.78-1.77Zm7.98 0c.99 0 1.78.8 1.78 1.77v.05a1.78 1.78 0 0 1-3.55 0v-.05c0-.98.8-1.77 1.77-1.77Zm8 0c.97 0 1.77.8 1.77 1.77v.05a1.78 1.78 0 1 1-3.56 0v-.05c0-.98.8-1.77 1.78-1.77Zm7.98 0c.98 0 1.78.8 1.78 1.77v.05a1.78 1.78 0 0 1-3.56 0v-.05c0-.98.8-1.77 1.78-1.77Zm7.99 0c.98 0 1.77.8 1.77 1.77v.05a1.78 1.78 0 0 1-3.55 0v-.05c0-.98.8-1.77 1.78-1.77Zm7.98 0c.99 0 1.78.8 1.78 1.77v.05a1.78 1.78 0 0 1-3.55 0v-.05c0-.98.8-1.77 1.77-1.77Zm8 0c.97 0 1.77.8 1.77 1.77v.05a1.78 1.78 0 0 1-3.56 0v-.05c0-.98.8-1.77 1.78-1.77Zm7.98 0c.98 0 1.78.8 1.78 1.77v.05a1.78 1.78 0 1 1-3.56 0v-.05c0-.98.8-1.77 1.78-1.77Zm7.99 0c.98 0 1.77.8 1.77 1.77v.05a1.78 1.78 0 0 1-3.55 0v-.05c0-.98.8-1.77 1.78-1.77ZM2.02 56.1c.98 0 1.78.8 1.78 1.78v.04a1.78 1.78 0 1 1-3.56 0v-.04c0-.99.8-1.78 1.78-1.78Zm7.98 0c.99 0 1.78.8 1.78 1.78v.04a1.78 1.78 0 1 1-3.55 0v-.04c0-.99.8-1.78 1.77-1.78Zm7.99 0c.98 0 1.78.8 1.78 1.78v.04a1.78 1.78 0 1 1-3.56 0v-.04c0-.99.8-1.78 1.78-1.78Zm7.99 0c.98 0 1.77.8 1.77 1.78v.04a1.78 1.78 0 1 1-3.55 0v-.04c0-.99.8-1.78 1.78-1.78Zm7.98 0c.98 0 1.78.8 1.78 1.78v.04a1.78 1.78 0 1 1-3.56 0v-.04c0-.99.8-1.78 1.78-1.78Zm7.99 0c.98 0 1.77.8 1.77 1.78v.04a1.78 1.78 0 1 1-3.55 0v-.04c0-.99.8-1.78 1.78-1.78Zm7.98 0c.98 0 1.78.8 1.78 1.78v.04a1.78 1.78 0 1 1-3.55 0v-.04c0-.99.8-1.78 1.77-1.78Zm7.99 0c.98 0 1.78.8 1.78 1.78v.04a1.78 1.78 0 1 1-3.56 0v-.04c0-.99.8-1.78 1.78-1.78Zm7.99 0c.98 0 1.77.8 1.77 1.78v.04a1.78 1.78 0 1 1-3.55 0v-.04c0-.99.8-1.78 1.78-1.78Zm7.98 0c.99 0 1.78.8 1.78 1.78v.04a1.78 1.78 0 1 1-3.55 0v-.04c0-.99.8-1.78 1.77-1.78Zm8.26 0c.98 0 1.78.8 1.78 1.78v.04a1.78 1.78 0 1 1-3.56 0v-.04c0-.99.8-1.78 1.78-1.78Zm7.99 0c.98 0 1.77.8 1.77 1.78v.04a1.78 1.78 0 1 1-3.55 0v-.04c0-.99.8-1.78 1.78-1.78Zm7.98 0c.99 0 1.78.8 1.78 1.78v.04a1.78 1.78 0 1 1-3.55 0v-.04c0-.99.8-1.78 1.77-1.78Zm8 0c.97 0 1.77.8 1.77 1.78v.04a1.78 1.78 0 0 1-3.56 0v-.04c0-.99.8-1.78 1.78-1.78Zm7.98 0c.98 0 1.78.8 1.78 1.78v.04a1.78 1.78 0 1 1-3.56 0v-.04c0-.99.8-1.78 1.78-1.78Zm7.99 0c.98 0 1.77.8 1.77 1.78v.04a1.78 1.78 0 0 1-3.55 0v-.04c0-.99.8-1.78 1.78-1.78Zm7.98 0c.99 0 1.78.8 1.78 1.78v.04a1.78 1.78 0 0 1-3.55 0v-.04c0-.99.8-1.78 1.77-1.78Zm8 0c.97 0 1.77.8 1.77 1.78v.04a1.78 1.78 0 1 1-3.56 0v-.04c0-.99.8-1.78 1.78-1.78Zm7.98 0c.98 0 1.78.8 1.78 1.78v.04a1.78 1.78 0 0 1-3.56 0v-.04c0-.99.8-1.78 1.78-1.78Zm7.99 0c.98 0 1.77.8 1.77 1.78v.04a1.78 1.78 0 0 1-3.55 0v-.04c0-.99.8-1.78 1.78-1.78Zm7.98 0c.99 0 1.78.8 1.78 1.78v.04a1.78 1.78 0 0 1-3.55 0v-.04c0-.99.8-1.78 1.77-1.78Zm8 0c.97 0 1.77.8 1.77 1.78v.04a1.78 1.78 0 0 1-3.56 0v-.04c0-.99.8-1.78 1.78-1.78Zm7.98 0c.98 0 1.78.8 1.78 1.78v.04a1.78 1.78 0 1 1-3.56 0v-.04c0-.99.8-1.78 1.78-1.78Zm7.99 0c.98 0 1.77.8 1.77 1.78v.04a1.78 1.78 0 0 1-3.55 0v-.04c0-.99.8-1.78 1.78-1.78ZM2.02 65.37c.98 0 1.78.8 1.78 1.78v.05a1.78 1.78 0 0 1-3.56 0v-.05c0-.98.8-1.78 1.78-1.78Zm7.98 0c.99 0 1.78.8 1.78 1.78v.05a1.78 1.78 0 0 1-3.55 0v-.05c0-.98.8-1.78 1.77-1.78Zm7.99 0c.98 0 1.78.8 1.78 1.78v.05a1.78 1.78 0 0 1-3.56 0v-.05c0-.98.8-1.78 1.78-1.78Zm7.99 0c.98 0 1.77.8 1.77 1.78v.05a1.78 1.78 0 0 1-3.55 0v-.05c0-.98.8-1.78 1.78-1.78Zm7.98 0c.98 0 1.78.8 1.78 1.78v.05a1.78 1.78 0 0 1-3.56 0v-.05c0-.98.8-1.78 1.78-1.78Zm7.99 0c.98 0 1.77.8 1.77 1.78v.05a1.78 1.78 0 0 1-3.55 0v-.05c0-.98.8-1.78 1.78-1.78Zm7.98 0c.98 0 1.78.8 1.78 1.78v.05a1.78 1.78 0 0 1-3.55 0v-.05c0-.98.8-1.78 1.77-1.78Zm7.99 0c.98 0 1.78.8 1.78 1.78v.05a1.78 1.78 0 0 1-3.56 0v-.05c0-.98.8-1.78 1.78-1.78Zm7.99 0c.98 0 1.77.8 1.77 1.78v.05a1.78 1.78 0 0 1-3.55 0v-.05c0-.98.8-1.78 1.78-1.78Zm7.98 0c.99 0 1.78.8 1.78 1.78v.05a1.78 1.78 0 0 1-3.55 0v-.05c0-.98.8-1.78 1.77-1.78Zm8.26 0c.98 0 1.78.8 1.78 1.78v.05a1.78 1.78 0 0 1-3.56 0v-.05c0-.98.8-1.78 1.78-1.78Zm7.99 0c.98 0 1.77.8 1.77 1.78v.05a1.78 1.78 0 0 1-3.55 0v-.05c0-.98.8-1.78 1.78-1.78Zm7.98 0c.99 0 1.78.8 1.78 1.78v.05a1.78 1.78 0 0 1-3.55 0v-.05c0-.98.8-1.78 1.77-1.78Zm8 0c.97 0 1.77.8 1.77 1.78v.05a1.78 1.78 0 0 1-3.56 0v-.05c0-.98.8-1.78 1.78-1.78Zm7.98 0c.98 0 1.78.8 1.78 1.78v.05a1.78 1.78 0 1 1-3.56 0v-.05c0-.98.8-1.78 1.78-1.78Zm7.99 0c.98 0 1.77.8 1.77 1.78v.05a1.78 1.78 0 0 1-3.55 0v-.05c0-.98.8-1.78 1.78-1.78Zm7.98 0c.99 0 1.78.8 1.78 1.78v.05a1.78 1.78 0 0 1-3.55 0v-.05c0-.98.8-1.78 1.77-1.78Zm8 0c.97 0 1.77.8 1.77 1.78v.05a1.78 1.78 0 1 1-3.56 0v-.05c0-.98.8-1.78 1.78-1.78Zm7.98 0c.98 0 1.78.8 1.78 1.78v.05a1.78 1.78 0 0 1-3.56 0v-.05c0-.98.8-1.78 1.78-1.78Zm7.99 0c.98 0 1.77.8 1.77 1.78v.05a1.78 1.78 0 0 1-3.55 0v-.05c0-.98.8-1.78 1.78-1.78Zm7.98 0c.99 0 1.78.8 1.78 1.78v.05a1.78 1.78 0 0 1-3.55 0v-.05c0-.98.8-1.78 1.77-1.78Zm8 0c.97 0 1.77.8 1.77 1.78v.05a1.78 1.78 0 0 1-3.56 0v-.05c0-.98.8-1.78 1.78-1.78Zm7.98 0c.98 0 1.78.8 1.78 1.78v.05a1.78 1.78 0 1 1-3.56 0v-.05c0-.98.8-1.78 1.78-1.78Zm7.99 0c.98 0 1.77.8 1.77 1.78v.05a1.78 1.78 0 0 1-3.55 0v-.05c0-.98.8-1.78 1.78-1.78ZM2.02 74.64c.98 0 1.78.8 1.78 1.77v.05a1.78 1.78 0 0 1-3.56 0v-.05c0-.98.8-1.77 1.78-1.77Zm7.98 0c.99 0 1.78.8 1.78 1.77v.05a1.78 1.78 0 0 1-3.55 0v-.05c0-.98.8-1.77 1.77-1.77Zm7.99 0c.98 0 1.78.8 1.78 1.77v.05a1.78 1.78 0 0 1-3.56 0v-.05c0-.98.8-1.77 1.78-1.77Zm7.99 0c.98 0 1.77.8 1.77 1.77v.05a1.78 1.78 0 0 1-3.55 0v-.05c0-.98.8-1.77 1.78-1.77Zm7.98 0c.98 0 1.78.8 1.78 1.77v.05a1.78 1.78 0 0 1-3.56 0v-.05c0-.98.8-1.77 1.78-1.77Zm7.99 0c.98 0 1.77.8 1.77 1.77v.05a1.78 1.78 0 0 1-3.55 0v-.05c0-.98.8-1.77 1.78-1.77Zm7.98 0c.98 0 1.78.8 1.78 1.77v.05a1.78 1.78 0 0 1-3.55 0v-.05c0-.98.8-1.77 1.77-1.77Zm7.99 0c.98 0 1.78.8 1.78 1.77v.05a1.78 1.78 0 0 1-3.56 0v-.05c0-.98.8-1.77 1.78-1.77Zm7.99 0c.98 0 1.77.8 1.77 1.77v.05a1.78 1.78 0 0 1-3.55 0v-.05c0-.98.8-1.77 1.78-1.77Zm7.98 0c.99 0 1.78.8 1.78 1.77v.05a1.78 1.78 0 0 1-3.55 0v-.05c0-.98.8-1.77 1.77-1.77Zm8.26 0c.98 0 1.78.8 1.78 1.77v.05a1.78 1.78 0 0 1-3.56 0v-.05c0-.98.8-1.77 1.78-1.77Zm7.99 0c.98 0 1.77.8 1.77 1.77v.05a1.78 1.78 0 0 1-3.55 0v-.05c0-.98.8-1.77 1.78-1.77Zm7.98 0c.99 0 1.78.8 1.78 1.77v.05a1.78 1.78 0 0 1-3.55 0v-.05c0-.98.8-1.77 1.77-1.77Zm8 0c.97 0 1.77.8 1.77 1.77v.05a1.78 1.78 0 0 1-3.56 0v-.05c0-.98.8-1.77 1.78-1.77Zm7.98 0c.98 0 1.78.8 1.78 1.77v.05a1.78 1.78 0 1 1-3.56 0v-.05c0-.98.8-1.77 1.78-1.77Zm7.99 0c.98 0 1.77.8 1.77 1.77v.05a1.78 1.78 0 0 1-3.55 0v-.05c0-.98.8-1.77 1.78-1.77Zm7.98 0c.99 0 1.78.8 1.78 1.77v.05a1.78 1.78 0 0 1-3.55 0v-.05c0-.98.8-1.77 1.77-1.77Zm8 0c.97 0 1.77.8 1.77 1.77v.05a1.78 1.78 0 1 1-3.56 0v-.05c0-.98.8-1.77 1.78-1.77Zm7.98 0c.98 0 1.78.8 1.78 1.77v.05a1.78 1.78 0 0 1-3.56 0v-.05c0-.98.8-1.77 1.78-1.77Zm7.99 0c.98 0 1.77.8 1.77 1.77v.05a1.78 1.78 0 0 1-3.55 0v-.05c0-.98.8-1.77 1.78-1.77Zm7.98 0c.99 0 1.78.8 1.78 1.77v.05a1.78 1.78 0 0 1-3.55 0v-.05c0-.98.8-1.77 1.77-1.77Zm8 0c.97 0 1.77.8 1.77 1.77v.05a1.78 1.78 0 0 1-3.56 0v-.05c0-.98.8-1.77 1.78-1.77Zm7.98 0c.98 0 1.78.8 1.78 1.77v.05a1.78 1.78 0 1 1-3.56 0v-.05c0-.98.8-1.77 1.78-1.77Zm7.99 0c.98 0 1.77.8 1.77 1.77v.05a1.78 1.78 0 0 1-3.55 0v-.05c0-.98.8-1.77 1.78-1.77ZM2.02 83.9c.98 0 1.78.8 1.78 1.78v.04a1.78 1.78 0 1 1-3.56 0v-.04c0-.99.8-1.78 1.78-1.78Zm7.98 0c.99 0 1.78.8 1.78 1.78v.04a1.78 1.78 0 1 1-3.55 0v-.04c0-.99.8-1.78 1.77-1.78Zm7.99 0c.98 0 1.78.8 1.78 1.78v.04a1.78 1.78 0 1 1-3.56 0v-.04c0-.99.8-1.78 1.78-1.78Zm7.99 0c.98 0 1.77.8 1.77 1.78v.04a1.78 1.78 0 1 1-3.55 0v-.04c0-.99.8-1.78 1.78-1.78Zm7.98 0c.98 0 1.78.8 1.78 1.78v.04a1.78 1.78 0 1 1-3.56 0v-.04c0-.99.8-1.78 1.78-1.78Zm7.99 0c.98 0 1.77.8 1.77 1.78v.04a1.78 1.78 0 1 1-3.55 0v-.04c0-.99.8-1.78 1.78-1.78Zm7.98 0c.98 0 1.78.8 1.78 1.78v.04a1.78 1.78 0 1 1-3.55 0v-.04c0-.99.8-1.78 1.77-1.78Zm7.99 0c.98 0 1.78.8 1.78 1.78v.04a1.78 1.78 0 1 1-3.56 0v-.04c0-.99.8-1.78 1.78-1.78Zm7.99 0c.98 0 1.77.8 1.77 1.78v.04a1.78 1.78 0 1 1-3.55 0v-.04c0-.99.8-1.78 1.78-1.78Zm7.98 0c.99 0 1.78.8 1.78 1.78v.04a1.78 1.78 0 1 1-3.55 0v-.04c0-.99.8-1.78 1.77-1.78Zm8.26 0c.98 0 1.78.8 1.78 1.78v.04a1.78 1.78 0 1 1-3.56 0v-.04c0-.99.8-1.78 1.78-1.78Zm7.99 0c.98 0 1.77.8 1.77 1.78v.04a1.78 1.78 0 1 1-3.55 0v-.04c0-.99.8-1.78 1.78-1.78Zm7.98 0c.99 0 1.78.8 1.78 1.78v.04a1.78 1.78 0 1 1-3.55 0v-.04c0-.99.8-1.78 1.77-1.78Zm8 0c.97 0 1.77.8 1.77 1.78v.04a1.78 1.78 0 0 1-3.56 0v-.04c0-.99.8-1.78 1.78-1.78Zm7.98 0c.98 0 1.78.8 1.78 1.78v.04a1.78 1.78 0 1 1-3.56 0v-.04c0-.99.8-1.78 1.78-1.78Zm7.99 0c.98 0 1.77.8 1.77 1.78v.04a1.78 1.78 0 0 1-3.55 0v-.04c0-.99.8-1.78 1.78-1.78Zm7.98 0c.99 0 1.78.8 1.78 1.78v.04a1.78 1.78 0 0 1-3.55 0v-.04c0-.99.8-1.78 1.77-1.78Zm8 0c.97 0 1.77.8 1.77 1.78v.04a1.78 1.78 0 1 1-3.56 0v-.04c0-.99.8-1.78 1.78-1.78Zm7.98 0c.98 0 1.78.8 1.78 1.78v.04a1.78 1.78 0 0 1-3.56 0v-.04c0-.99.8-1.78 1.78-1.78Zm7.99 0c.98 0 1.77.8 1.77 1.78v.04a1.78 1.78 0 0 1-3.55 0v-.04c0-.99.8-1.78 1.78-1.78Zm7.98 0c.99 0 1.78.8 1.78 1.78v.04a1.78 1.78 0 0 1-3.55 0v-.04c0-.99.8-1.78 1.77-1.78Zm8 0c.97 0 1.77.8 1.77 1.78v.04a1.78 1.78 0 0 1-3.56 0v-.04c0-.99.8-1.78 1.78-1.78Zm7.98 0c.98 0 1.78.8 1.78 1.78v.04a1.78 1.78 0 1 1-3.56 0v-.04c0-.99.8-1.78 1.78-1.78Zm7.99 0c.98 0 1.77.8 1.77 1.78v.04a1.78 1.78 0 0 1-3.55 0v-.04c0-.99.8-1.78 1.78-1.78ZM2.02 93.16c.98 0 1.78.8 1.78 1.78v.05a1.78 1.78 0 1 1-3.56 0v-.05c0-.98.8-1.78 1.78-1.78Zm7.98 0c.99 0 1.78.8 1.78 1.78v.05a1.78 1.78 0 1 1-3.55 0v-.05c0-.98.8-1.78 1.77-1.78Zm7.99 0c.98 0 1.78.8 1.78 1.78v.05a1.78 1.78 0 1 1-3.56 0v-.05c0-.98.8-1.78 1.78-1.78Zm7.99 0c.98 0 1.77.8 1.77 1.78v.05a1.78 1.78 0 1 1-3.55 0v-.05c0-.98.8-1.78 1.78-1.78Zm7.98 0c.98 0 1.78.8 1.78 1.78v.05a1.78 1.78 0 1 1-3.56 0v-.05c0-.98.8-1.78 1.78-1.78Zm7.99 0c.98 0 1.77.8 1.77 1.78v.05a1.78 1.78 0 1 1-3.55 0v-.05c0-.98.8-1.78 1.78-1.78Zm7.98 0c.98 0 1.78.8 1.78 1.78v.05a1.78 1.78 0 1 1-3.55 0v-.05c0-.98.8-1.78 1.77-1.78Zm7.99 0c.98 0 1.78.8 1.78 1.78v.05a1.78 1.78 0 1 1-3.56 0v-.05c0-.98.8-1.78 1.78-1.78Zm7.99 0c.98 0 1.77.8 1.77 1.78v.05a1.78 1.78 0 1 1-3.55 0v-.05c0-.98.8-1.78 1.78-1.78Zm7.98 0c.99 0 1.78.8 1.78 1.78v.05a1.78 1.78 0 1 1-3.55 0v-.05c0-.98.8-1.78 1.77-1.78Zm8.26 0c.98 0 1.78.8 1.78 1.78v.05a1.78 1.78 0 1 1-3.56 0v-.05c0-.98.8-1.78 1.78-1.78Zm7.99 0c.98 0 1.77.8 1.77 1.78v.05a1.78 1.78 0 1 1-3.55 0v-.05c0-.98.8-1.78 1.78-1.78Zm7.98 0c.99 0 1.78.8 1.78 1.78v.05a1.78 1.78 0 1 1-3.55 0v-.05c0-.98.8-1.78 1.77-1.78Zm8 0c.97 0 1.77.8 1.77 1.78v.05a1.78 1.78 0 0 1-3.56 0v-.05c0-.98.8-1.78 1.78-1.78Zm7.98 0c.98 0 1.78.8 1.78 1.78v.05a1.78 1.78 0 1 1-3.56 0v-.05c0-.98.8-1.78 1.78-1.78Zm7.99 0c.98 0 1.77.8 1.77 1.78v.05a1.78 1.78 0 0 1-3.55 0v-.05c0-.98.8-1.78 1.78-1.78Zm7.98 0c.99 0 1.78.8 1.78 1.78v.05a1.78 1.78 0 0 1-3.55 0v-.05c0-.98.8-1.78 1.77-1.78Zm8 0c.97 0 1.77.8 1.77 1.78v.05a1.78 1.78 0 1 1-3.56 0v-.05c0-.98.8-1.78 1.78-1.78Zm7.98 0c.98 0 1.78.8 1.78 1.78v.05a1.78 1.78 0 0 1-3.56 0v-.05c0-.98.8-1.78 1.78-1.78Zm7.99 0c.98 0 1.77.8 1.77 1.78v.05a1.78 1.78 0 0 1-3.55 0v-.05c0-.98.8-1.78 1.78-1.78Zm7.98 0c.99 0 1.78.8 1.78 1.78v.05a1.78 1.78 0 0 1-3.55 0v-.05c0-.98.8-1.78 1.77-1.78Zm8 0c.97 0 1.77.8 1.77 1.78v.05a1.78 1.78 0 0 1-3.56 0v-.05c0-.98.8-1.78 1.78-1.78Zm7.98 0c.98 0 1.78.8 1.78 1.78v.05a1.78 1.78 0 1 1-3.56 0v-.05c0-.98.8-1.78 1.78-1.78Zm7.99 0c.98 0 1.77.8 1.77 1.78v.05a1.78 1.78 0 0 1-3.55 0v-.05c0-.98.8-1.78 1.78-1.78ZM2.02 102.43c.98 0 1.78.8 1.78 1.77v.05a1.78 1.78 0 1 1-3.56 0v-.05c0-.98.8-1.77 1.78-1.77Zm7.98 0c.99 0 1.78.8 1.78 1.77v.05a1.78 1.78 0 1 1-3.55 0v-.05c0-.98.8-1.77 1.77-1.77Zm7.99 0c.98 0 1.78.8 1.78 1.77v.05a1.78 1.78 0 1 1-3.56 0v-.05c0-.98.8-1.77 1.78-1.77Zm7.99 0c.98 0 1.77.8 1.77 1.77v.05a1.78 1.78 0 1 1-3.55 0v-.05c0-.98.8-1.77 1.78-1.77Zm7.98 0c.98 0 1.78.8 1.78 1.77v.05a1.78 1.78 0 1 1-3.56 0v-.05c0-.98.8-1.77 1.78-1.77Zm7.99 0c.98 0 1.77.8 1.77 1.77v.05a1.78 1.78 0 1 1-3.55 0v-.05c0-.98.8-1.77 1.78-1.77Zm7.98 0c.98 0 1.78.8 1.78 1.77v.05a1.78 1.78 0 1 1-3.55 0v-.05c0-.98.8-1.77 1.77-1.77Zm7.99 0c.98 0 1.78.8 1.78 1.77v.05a1.78 1.78 0 1 1-3.56 0v-.05c0-.98.8-1.77 1.78-1.77Zm7.99 0c.98 0 1.77.8 1.77 1.77v.05a1.78 1.78 0 1 1-3.55 0v-.05c0-.98.8-1.77 1.78-1.77Zm7.98 0c.99 0 1.78.8 1.78 1.77v.05a1.78 1.78 0 1 1-3.55 0v-.05c0-.98.8-1.77 1.77-1.77Zm8.26 0c.98 0 1.78.8 1.78 1.77v.05a1.78 1.78 0 1 1-3.56 0v-.05c0-.98.8-1.77 1.78-1.77Zm7.99 0c.98 0 1.77.8 1.77 1.77v.05a1.78 1.78 0 1 1-3.55 0v-.05c0-.98.8-1.77 1.78-1.77Zm7.98 0c.99 0 1.78.8 1.78 1.77v.05a1.78 1.78 0 1 1-3.55 0v-.05c0-.98.8-1.77 1.77-1.77Zm8 0c.97 0 1.77.8 1.77 1.77v.05a1.78 1.78 0 1 1-3.56 0v-.05c0-.98.8-1.77 1.78-1.77Zm7.98 0c.98 0 1.78.8 1.78 1.77v.05a1.78 1.78 0 1 1-3.56 0v-.05c0-.98.8-1.77 1.78-1.77Zm7.99 0c.98 0 1.77.8 1.77 1.77v.05a1.78 1.78 0 1 1-3.55 0v-.05c0-.98.8-1.77 1.78-1.77Zm7.98 0c.99 0 1.78.8 1.78 1.77v.05a1.78 1.78 0 1 1-3.55 0v-.05c0-.98.8-1.77 1.77-1.77Zm8 0c.97 0 1.77.8 1.77 1.77v.05a1.78 1.78 0 1 1-3.56 0v-.05c0-.98.8-1.77 1.78-1.77Zm7.98 0c.98 0 1.78.8 1.78 1.77v.05a1.78 1.78 0 1 1-3.56 0v-.05c0-.98.8-1.77 1.78-1.77Zm7.99 0c.98 0 1.77.8 1.77 1.77v.05a1.78 1.78 0 1 1-3.55 0v-.05c0-.98.8-1.77 1.78-1.77Zm7.98 0c.99 0 1.78.8 1.78 1.77v.05a1.78 1.78 0 1 1-3.55 0v-.05c0-.98.8-1.77 1.77-1.77Zm8 0c.97 0 1.77.8 1.77 1.77v.05a1.78 1.78 0 1 1-3.56 0v-.05c0-.98.8-1.77 1.78-1.77Zm7.98 0c.98 0 1.78.8 1.78 1.77v.05a1.78 1.78 0 1 1-3.56 0v-.05c0-.98.8-1.77 1.78-1.77Zm7.99 0c.98 0 1.77.8 1.77 1.77v.05a1.78 1.78 0 1 1-3.55 0v-.05c0-.98.8-1.77 1.78-1.77ZM2.02 111.69c.98 0 1.78.8 1.78 1.78v.04a1.78 1.78 0 1 1-3.56 0v-.04c0-.98.8-1.78 1.78-1.78Zm7.98 0c.99 0 1.78.8 1.78 1.78v.04a1.78 1.78 0 1 1-3.55 0v-.04c0-.98.8-1.78 1.77-1.78Zm7.99 0c.98 0 1.78.8 1.78 1.78v.04a1.78 1.78 0 1 1-3.56 0v-.04c0-.98.8-1.78 1.78-1.78Zm7.99 0c.98 0 1.77.8 1.77 1.78v.04a1.78 1.78 0 1 1-3.55 0v-.04c0-.98.8-1.78 1.78-1.78Zm7.98 0c.98 0 1.78.8 1.78 1.78v.04a1.78 1.78 0 1 1-3.56 0v-.04c0-.98.8-1.78 1.78-1.78Zm7.99 0c.98 0 1.77.8 1.77 1.78v.04a1.78 1.78 0 1 1-3.55 0v-.04c0-.98.8-1.78 1.78-1.78Zm7.98 0c.98 0 1.78.8 1.78 1.78v.04a1.78 1.78 0 1 1-3.55 0v-.04c0-.98.8-1.78 1.77-1.78Zm7.99 0c.98 0 1.78.8 1.78 1.78v.04a1.78 1.78 0 1 1-3.56 0v-.04c0-.98.8-1.78 1.78-1.78Zm7.99 0c.98 0 1.77.8 1.77 1.78v.04a1.78 1.78 0 1 1-3.55 0v-.04c0-.98.8-1.78 1.78-1.78Zm7.98 0c.99 0 1.78.8 1.78 1.78v.04a1.78 1.78 0 1 1-3.55 0v-.04c0-.98.8-1.78 1.77-1.78Zm8.26 0c.98 0 1.78.8 1.78 1.78v.04a1.78 1.78 0 1 1-3.56 0v-.04c0-.98.8-1.78 1.78-1.78Zm7.99 0c.98 0 1.77.8 1.77 1.78v.04a1.78 1.78 0 1 1-3.55 0v-.04c0-.98.8-1.78 1.78-1.78Zm7.98 0c.99 0 1.78.8 1.78 1.78v.04a1.78 1.78 0 1 1-3.55 0v-.04c0-.98.8-1.78 1.77-1.78Zm8 0c.97 0 1.77.8 1.77 1.78v.04a1.78 1.78 0 1 1-3.56 0v-.04c0-.98.8-1.78 1.78-1.78Zm7.98 0c.98 0 1.78.8 1.78 1.78v.04a1.78 1.78 0 1 1-3.56 0v-.04c0-.98.8-1.78 1.78-1.78Zm7.99 0c.98 0 1.77.8 1.77 1.78v.04a1.78 1.78 0 1 1-3.55 0v-.04c0-.98.8-1.78 1.78-1.78Zm7.98 0c.99 0 1.78.8 1.78 1.78v.04a1.78 1.78 0 1 1-3.55 0v-.04c0-.98.8-1.78 1.77-1.78Zm8 0c.97 0 1.77.8 1.77 1.78v.04a1.78 1.78 0 1 1-3.56 0v-.04c0-.98.8-1.78 1.78-1.78Zm7.98 0c.98 0 1.78.8 1.78 1.78v.04a1.78 1.78 0 1 1-3.56 0v-.04c0-.98.8-1.78 1.78-1.78Zm7.99 0c.98 0 1.77.8 1.77 1.78v.04a1.78 1.78 0 1 1-3.55 0v-.04c0-.98.8-1.78 1.78-1.78Zm7.98 0c.99 0 1.78.8 1.78 1.78v.04a1.78 1.78 0 1 1-3.55 0v-.04c0-.98.8-1.78 1.77-1.78Zm8 0c.97 0 1.77.8 1.77 1.78v.04a1.78 1.78 0 1 1-3.56 0v-.04c0-.98.8-1.78 1.78-1.78Zm7.98 0c.98 0 1.78.8 1.78 1.78v.04a1.78 1.78 0 1 1-3.56 0v-.04c0-.98.8-1.78 1.78-1.78Zm7.99 0c.98 0 1.77.8 1.77 1.78v.04a1.78 1.78 0 1 1-3.55 0v-.04c0-.98.8-1.78 1.78-1.78ZM2.02 120.95c.98 0 1.78.8 1.78 1.78v.05a1.78 1.78 0 0 1-3.56 0v-.05c0-.98.8-1.78 1.78-1.78Zm7.98 0c.99 0 1.78.8 1.78 1.78v.05a1.78 1.78 0 0 1-3.55 0v-.05c0-.98.8-1.78 1.77-1.78Zm7.99 0c.98 0 1.78.8 1.78 1.78v.05a1.78 1.78 0 0 1-3.56 0v-.05c0-.98.8-1.78 1.78-1.78Zm7.99 0c.98 0 1.77.8 1.77 1.78v.05a1.78 1.78 0 0 1-3.55 0v-.05c0-.98.8-1.78 1.78-1.78Zm7.98 0c.98 0 1.78.8 1.78 1.78v.05a1.78 1.78 0 0 1-3.56 0v-.05c0-.98.8-1.78 1.78-1.78Zm7.99 0c.98 0 1.77.8 1.77 1.78v.05a1.78 1.78 0 0 1-3.55 0v-.05c0-.98.8-1.78 1.78-1.78Zm7.98 0c.98 0 1.78.8 1.78 1.78v.05a1.78 1.78 0 0 1-3.55 0v-.05c0-.98.8-1.78 1.77-1.78Zm7.99 0c.98 0 1.78.8 1.78 1.78v.05a1.78 1.78 0 0 1-3.56 0v-.05c0-.98.8-1.78 1.78-1.78Zm7.99 0c.98 0 1.77.8 1.77 1.78v.05a1.78 1.78 0 0 1-3.55 0v-.05c0-.98.8-1.78 1.78-1.78Zm7.98 0c.99 0 1.78.8 1.78 1.78v.05a1.78 1.78 0 0 1-3.55 0v-.05c0-.98.8-1.78 1.77-1.78Zm8.26 0c.98 0 1.78.8 1.78 1.78v.05a1.78 1.78 0 0 1-3.56 0v-.05c0-.98.8-1.78 1.78-1.78Zm7.99 0c.98 0 1.77.8 1.77 1.78v.05a1.78 1.78 0 0 1-3.55 0v-.05c0-.98.8-1.78 1.78-1.78Zm7.98 0c.99 0 1.78.8 1.78 1.78v.05a1.78 1.78 0 0 1-3.55 0v-.05c0-.98.8-1.78 1.77-1.78Zm8 0c.97 0 1.77.8 1.77 1.78v.05a1.78 1.78 0 0 1-3.56 0v-.05c0-.98.8-1.78 1.78-1.78Zm7.98 0c.98 0 1.78.8 1.78 1.78v.05a1.78 1.78 0 1 1-3.56 0v-.05c0-.98.8-1.78 1.78-1.78Zm7.99 0c.98 0 1.77.8 1.77 1.78v.05a1.78 1.78 0 0 1-3.55 0v-.05c0-.98.8-1.78 1.78-1.78Zm7.98 0c.99 0 1.78.8 1.78 1.78v.05a1.78 1.78 0 0 1-3.55 0v-.05c0-.98.8-1.78 1.77-1.78Zm8 0c.97 0 1.77.8 1.77 1.78v.05a1.78 1.78 0 1 1-3.56 0v-.05c0-.98.8-1.78 1.78-1.78Zm7.98 0c.98 0 1.78.8 1.78 1.78v.05a1.78 1.78 0 0 1-3.56 0v-.05c0-.98.8-1.78 1.78-1.78Zm7.99 0c.98 0 1.77.8 1.77 1.78v.05a1.78 1.78 0 0 1-3.55 0v-.05c0-.98.8-1.78 1.78-1.78Zm7.98 0c.99 0 1.78.8 1.78 1.78v.05a1.78 1.78 0 0 1-3.55 0v-.05c0-.98.8-1.78 1.77-1.78Zm8 0c.97 0 1.77.8 1.77 1.78v.05a1.78 1.78 0 0 1-3.56 0v-.05c0-.98.8-1.78 1.78-1.78Zm7.98 0c.98 0 1.78.8 1.78 1.78v.05a1.78 1.78 0 1 1-3.56 0v-.05c0-.98.8-1.78 1.78-1.78Zm7.99 0c.98 0 1.77.8 1.77 1.78v.05a1.78 1.78 0 0 1-3.55 0v-.05c0-.98.8-1.78 1.78-1.78ZM2.02 130.22c.98 0 1.78.8 1.78 1.77v.05a1.78 1.78 0 1 1-3.56 0v-.05c0-.98.8-1.77 1.78-1.77Zm7.98 0c.99 0 1.78.8 1.78 1.77v.05a1.78 1.78 0 1 1-3.55 0v-.05c0-.98.8-1.77 1.77-1.77Zm7.99 0c.98 0 1.78.8 1.78 1.77v.05a1.78 1.78 0 1 1-3.56 0v-.05c0-.98.8-1.77 1.78-1.77Zm7.99 0c.98 0 1.77.8 1.77 1.77v.05a1.78 1.78 0 1 1-3.55 0v-.05c0-.98.8-1.77 1.78-1.77Zm7.98 0c.98 0 1.78.8 1.78 1.77v.05a1.78 1.78 0 1 1-3.56 0v-.05c0-.98.8-1.77 1.78-1.77Zm7.99 0c.98 0 1.77.8 1.77 1.77v.05a1.78 1.78 0 1 1-3.55 0v-.05c0-.98.8-1.77 1.78-1.77Zm7.98 0c.98 0 1.78.8 1.78 1.77v.05a1.78 1.78 0 1 1-3.55 0v-.05c0-.98.8-1.77 1.77-1.77Zm7.99 0c.98 0 1.78.8 1.78 1.77v.05a1.78 1.78 0 1 1-3.56 0v-.05c0-.98.8-1.77 1.78-1.77Zm7.99 0c.98 0 1.77.8 1.77 1.77v.05a1.78 1.78 0 1 1-3.55 0v-.05c0-.98.8-1.77 1.78-1.77Zm7.98 0c.99 0 1.78.8 1.78 1.77v.05a1.78 1.78 0 1 1-3.55 0v-.05c0-.98.8-1.77 1.77-1.77Zm8.26 0c.98 0 1.78.8 1.78 1.77v.05a1.78 1.78 0 1 1-3.56 0v-.05c0-.98.8-1.77 1.78-1.77Zm7.99 0c.98 0 1.77.8 1.77 1.77v.05a1.78 1.78 0 1 1-3.55 0v-.05c0-.98.8-1.77 1.78-1.77Zm7.98 0c.99 0 1.78.8 1.78 1.77v.05a1.78 1.78 0 1 1-3.55 0v-.05c0-.98.8-1.77 1.77-1.77Zm8 0c.97 0 1.77.8 1.77 1.77v.05a1.78 1.78 0 1 1-3.56 0v-.05c0-.98.8-1.77 1.78-1.77Zm7.98 0c.98 0 1.78.8 1.78 1.77v.05a1.78 1.78 0 1 1-3.56 0v-.05c0-.98.8-1.77 1.78-1.77Zm7.99 0c.98 0 1.77.8 1.77 1.77v.05a1.78 1.78 0 1 1-3.55 0v-.05c0-.98.8-1.77 1.78-1.77Zm7.98 0c.99 0 1.78.8 1.78 1.77v.05a1.78 1.78 0 1 1-3.55 0v-.05c0-.98.8-1.77 1.77-1.77Zm8 0c.97 0 1.77.8 1.77 1.77v.05a1.78 1.78 0 1 1-3.56 0v-.05c0-.98.8-1.77 1.78-1.77Zm7.98 0c.98 0 1.78.8 1.78 1.77v.05a1.78 1.78 0 1 1-3.56 0v-.05c0-.98.8-1.77 1.78-1.77Zm7.99 0c.98 0 1.77.8 1.77 1.77v.05a1.78 1.78 0 1 1-3.55 0v-.05c0-.98.8-1.77 1.78-1.77Zm7.98 0c.99 0 1.78.8 1.78 1.77v.05a1.78 1.78 0 1 1-3.55 0v-.05c0-.98.8-1.77 1.77-1.77Zm8 0c.97 0 1.77.8 1.77 1.77v.05a1.78 1.78 0 1 1-3.56 0v-.05c0-.98.8-1.77 1.78-1.77Zm7.98 0c.98 0 1.78.8 1.78 1.77v.05a1.78 1.78 0 1 1-3.56 0v-.05c0-.98.8-1.77 1.78-1.77Zm7.99 0c.98 0 1.77.8 1.77 1.77v.05a1.78 1.78 0 1 1-3.55 0v-.05c0-.98.8-1.77 1.78-1.77ZM2.02 139.48c.98 0 1.78.8 1.78 1.78v.04a1.78 1.78 0 1 1-3.56 0v-.04c0-.98.8-1.78 1.78-1.78Zm7.98 0c.99 0 1.78.8 1.78 1.78v.04a1.78 1.78 0 1 1-3.55 0v-.04c0-.98.8-1.78 1.77-1.78Zm7.99 0c.98 0 1.78.8 1.78 1.78v.04a1.78 1.78 0 1 1-3.56 0v-.04c0-.98.8-1.78 1.78-1.78Zm7.99 0c.98 0 1.77.8 1.77 1.78v.04a1.78 1.78 0 1 1-3.55 0v-.04c0-.98.8-1.78 1.78-1.78Zm7.98 0c.98 0 1.78.8 1.78 1.78v.04a1.78 1.78 0 1 1-3.56 0v-.04c0-.98.8-1.78 1.78-1.78Zm7.99 0c.98 0 1.77.8 1.77 1.78v.04a1.78 1.78 0 1 1-3.55 0v-.04c0-.98.8-1.78 1.78-1.78Zm7.98 0c.98 0 1.78.8 1.78 1.78v.04a1.78 1.78 0 1 1-3.55 0v-.04c0-.98.8-1.78 1.77-1.78Zm7.99 0c.98 0 1.78.8 1.78 1.78v.04a1.78 1.78 0 1 1-3.56 0v-.04c0-.98.8-1.78 1.78-1.78Zm7.99 0c.98 0 1.77.8 1.77 1.78v.04a1.78 1.78 0 1 1-3.55 0v-.04c0-.98.8-1.78 1.78-1.78Zm7.98 0c.99 0 1.78.8 1.78 1.78v.04a1.78 1.78 0 1 1-3.55 0v-.04c0-.98.8-1.78 1.77-1.78Zm8.26 0c.98 0 1.78.8 1.78 1.78v.04a1.78 1.78 0 1 1-3.56 0v-.04c0-.98.8-1.78 1.78-1.78Zm7.99 0c.98 0 1.77.8 1.77 1.78v.04a1.78 1.78 0 1 1-3.55 0v-.04c0-.98.8-1.78 1.78-1.78Zm7.98 0c.99 0 1.78.8 1.78 1.78v.04a1.78 1.78 0 1 1-3.55 0v-.04c0-.98.8-1.78 1.77-1.78Zm8 0c.97 0 1.77.8 1.77 1.78v.04a1.78 1.78 0 1 1-3.56 0v-.04c0-.98.8-1.78 1.78-1.78Zm7.98 0c.98 0 1.78.8 1.78 1.78v.04a1.78 1.78 0 1 1-3.56 0v-.04c0-.98.8-1.78 1.78-1.78Zm7.99 0c.98 0 1.77.8 1.77 1.78v.04a1.78 1.78 0 1 1-3.55 0v-.04c0-.98.8-1.78 1.78-1.78Zm7.98 0c.99 0 1.78.8 1.78 1.78v.04a1.78 1.78 0 1 1-3.55 0v-.04c0-.98.8-1.78 1.77-1.78Zm8 0c.97 0 1.77.8 1.77 1.78v.04a1.78 1.78 0 1 1-3.56 0v-.04c0-.98.8-1.78 1.78-1.78Zm7.98 0c.98 0 1.78.8 1.78 1.78v.04a1.78 1.78 0 1 1-3.56 0v-.04c0-.98.8-1.78 1.78-1.78Zm7.99 0c.98 0 1.77.8 1.77 1.78v.04a1.78 1.78 0 1 1-3.55 0v-.04c0-.98.8-1.78 1.78-1.78Zm7.98 0c.99 0 1.78.8 1.78 1.78v.04a1.78 1.78 0 1 1-3.55 0v-.04c0-.98.8-1.78 1.77-1.78Zm8 0c.97 0 1.77.8 1.77 1.78v.04a1.78 1.78 0 1 1-3.56 0v-.04c0-.98.8-1.78 1.78-1.78Zm7.98 0c.98 0 1.78.8 1.78 1.78v.04a1.78 1.78 0 1 1-3.56 0v-.04c0-.98.8-1.78 1.78-1.78Zm7.99 0c.98 0 1.77.8 1.77 1.78v.04a1.78 1.78 0 1 1-3.55 0v-.04c0-.98.8-1.78 1.78-1.78ZM2.02 148.74c.98 0 1.78.8 1.78 1.78v.05a1.78 1.78 0 0 1-3.56 0v-.05c0-.98.8-1.78 1.78-1.78Zm7.98 0c.99 0 1.78.8 1.78 1.78v.05a1.78 1.78 0 0 1-3.55 0v-.05c0-.98.8-1.78 1.77-1.78Zm7.99 0c.98 0 1.78.8 1.78 1.78v.05a1.78 1.78 0 0 1-3.56 0v-.05c0-.98.8-1.78 1.78-1.78Zm7.99 0c.98 0 1.77.8 1.77 1.78v.05a1.78 1.78 0 0 1-3.55 0v-.05c0-.98.8-1.78 1.78-1.78Zm7.98 0c.98 0 1.78.8 1.78 1.78v.05a1.78 1.78 0 0 1-3.56 0v-.05c0-.98.8-1.78 1.78-1.78Zm7.99 0c.98 0 1.77.8 1.77 1.78v.05a1.78 1.78 0 0 1-3.55 0v-.05c0-.98.8-1.78 1.78-1.78Zm7.98 0c.98 0 1.78.8 1.78 1.78v.05a1.78 1.78 0 0 1-3.55 0v-.05c0-.98.8-1.78 1.77-1.78Zm7.99 0c.98 0 1.78.8 1.78 1.78v.05a1.78 1.78 0 0 1-3.56 0v-.05c0-.98.8-1.78 1.78-1.78Zm7.99 0c.98 0 1.77.8 1.77 1.78v.05a1.78 1.78 0 0 1-3.55 0v-.05c0-.98.8-1.78 1.78-1.78Zm7.98 0c.99 0 1.78.8 1.78 1.78v.05a1.78 1.78 0 0 1-3.55 0v-.05c0-.98.8-1.78 1.77-1.78Zm8.26 0c.98 0 1.78.8 1.78 1.78v.05a1.78 1.78 0 0 1-3.56 0v-.05c0-.98.8-1.78 1.78-1.78Zm7.99 0c.98 0 1.77.8 1.77 1.78v.05a1.78 1.78 0 0 1-3.55 0v-.05c0-.98.8-1.78 1.78-1.78Zm7.98 0c.99 0 1.78.8 1.78 1.78v.05a1.78 1.78 0 0 1-3.55 0v-.05c0-.98.8-1.78 1.77-1.78Zm8 0c.97 0 1.77.8 1.77 1.78v.05a1.78 1.78 0 0 1-3.56 0v-.05c0-.98.8-1.78 1.78-1.78Zm7.98 0c.98 0 1.78.8 1.78 1.78v.05a1.78 1.78 0 1 1-3.56 0v-.05c0-.98.8-1.78 1.78-1.78Zm7.99 0c.98 0 1.77.8 1.77 1.78v.05a1.78 1.78 0 0 1-3.55 0v-.05c0-.98.8-1.78 1.78-1.78Zm7.98 0c.99 0 1.78.8 1.78 1.78v.05a1.78 1.78 0 0 1-3.55 0v-.05c0-.98.8-1.78 1.77-1.78Zm8 0c.97 0 1.77.8 1.77 1.78v.05a1.78 1.78 0 1 1-3.56 0v-.05c0-.98.8-1.78 1.78-1.78Zm7.98 0c.98 0 1.78.8 1.78 1.78v.05a1.78 1.78 0 0 1-3.56 0v-.05c0-.98.8-1.78 1.78-1.78Zm7.99 0c.98 0 1.77.8 1.77 1.78v.05a1.78 1.78 0 0 1-3.55 0v-.05c0-.98.8-1.78 1.78-1.78Zm7.98 0c.99 0 1.78.8 1.78 1.78v.05a1.78 1.78 0 0 1-3.55 0v-.05c0-.98.8-1.78 1.77-1.78Zm8 0c.97 0 1.77.8 1.77 1.78v.05a1.78 1.78 0 0 1-3.56 0v-.05c0-.98.8-1.78 1.78-1.78Zm7.98 0c.98 0 1.78.8 1.78 1.78v.05a1.78 1.78 0 1 1-3.56 0v-.05c0-.98.8-1.78 1.78-1.78Zm7.99 0c.98 0 1.77.8 1.77 1.78v.05a1.78 1.78 0 0 1-3.55 0v-.05c0-.98.8-1.78 1.78-1.78ZM2.02 158.01c.98 0 1.78.8 1.78 1.77v.05a1.78 1.78 0 1 1-3.56 0v-.05c0-.98.8-1.77 1.78-1.77Zm7.98 0c.99 0 1.78.8 1.78 1.77v.05a1.78 1.78 0 1 1-3.55 0v-.05c0-.98.8-1.77 1.77-1.77Zm7.99 0c.98 0 1.78.8 1.78 1.77v.05a1.78 1.78 0 1 1-3.56 0v-.05c0-.98.8-1.77 1.78-1.77Zm7.99 0c.98 0 1.77.8 1.77 1.77v.05a1.78 1.78 0 1 1-3.55 0v-.05c0-.98.8-1.77 1.78-1.77Zm7.98 0c.98 0 1.78.8 1.78 1.77v.05a1.78 1.78 0 1 1-3.56 0v-.05c0-.98.8-1.77 1.78-1.77Zm7.99 0c.98 0 1.77.8 1.77 1.77v.05a1.78 1.78 0 1 1-3.55 0v-.05c0-.98.8-1.77 1.78-1.77Zm7.98 0c.98 0 1.78.8 1.78 1.77v.05a1.78 1.78 0 1 1-3.55 0v-.05c0-.98.8-1.77 1.77-1.77Zm7.99 0c.98 0 1.78.8 1.78 1.77v.05a1.78 1.78 0 1 1-3.56 0v-.05c0-.98.8-1.77 1.78-1.77Zm7.99 0c.98 0 1.77.8 1.77 1.77v.05a1.78 1.78 0 1 1-3.55 0v-.05c0-.98.8-1.77 1.78-1.77Zm7.98 0c.99 0 1.78.8 1.78 1.77v.05a1.78 1.78 0 1 1-3.55 0v-.05c0-.98.8-1.77 1.77-1.77Zm8.26 0c.98 0 1.78.8 1.78 1.77v.05a1.78 1.78 0 1 1-3.56 0v-.05c0-.98.8-1.77 1.78-1.77Zm7.99 0c.98 0 1.77.8 1.77 1.77v.05a1.78 1.78 0 1 1-3.55 0v-.05c0-.98.8-1.77 1.78-1.77Zm7.98 0c.99 0 1.78.8 1.78 1.77v.05a1.78 1.78 0 1 1-3.55 0v-.05c0-.98.8-1.77 1.77-1.77Zm8 0c.97 0 1.77.8 1.77 1.77v.05a1.78 1.78 0 1 1-3.56 0v-.05c0-.98.8-1.77 1.78-1.77Zm7.98 0c.98 0 1.78.8 1.78 1.77v.05a1.78 1.78 0 1 1-3.56 0v-.05c0-.98.8-1.77 1.78-1.77Zm7.99 0c.98 0 1.77.8 1.77 1.77v.05a1.78 1.78 0 1 1-3.55 0v-.05c0-.98.8-1.77 1.78-1.77Zm7.98 0c.99 0 1.78.8 1.78 1.77v.05a1.78 1.78 0 1 1-3.55 0v-.05c0-.98.8-1.77 1.77-1.77Zm8 0c.97 0 1.77.8 1.77 1.77v.05a1.78 1.78 0 1 1-3.56 0v-.05c0-.98.8-1.77 1.78-1.77Zm7.98 0c.98 0 1.78.8 1.78 1.77v.05a1.78 1.78 0 1 1-3.56 0v-.05c0-.98.8-1.77 1.78-1.77Zm7.99 0c.98 0 1.77.8 1.77 1.77v.05a1.78 1.78 0 1 1-3.55 0v-.05c0-.98.8-1.77 1.78-1.77Zm7.98 0c.99 0 1.78.8 1.78 1.77v.05a1.78 1.78 0 1 1-3.55 0v-.05c0-.98.8-1.77 1.77-1.77Zm8 0c.97 0 1.77.8 1.77 1.77v.05a1.78 1.78 0 1 1-3.56 0v-.05c0-.98.8-1.77 1.78-1.77Zm7.98 0c.98 0 1.78.8 1.78 1.77v.05a1.78 1.78 0 1 1-3.56 0v-.05c0-.98.8-1.77 1.78-1.77Zm7.99 0c.98 0 1.77.8 1.77 1.77v.05a1.78 1.78 0 1 1-3.55 0v-.05c0-.98.8-1.77 1.78-1.77ZM2.02 167.27c.98 0 1.78.8 1.78 1.78v.04a1.78 1.78 0 1 1-3.56 0v-.04c0-.99.8-1.78 1.78-1.78Zm7.98 0c.99 0 1.78.8 1.78 1.78v.04a1.78 1.78 0 1 1-3.55 0v-.04c0-.99.8-1.78 1.77-1.78Zm7.99 0c.98 0 1.78.8 1.78 1.78v.04a1.78 1.78 0 1 1-3.56 0v-.04c0-.99.8-1.78 1.78-1.78Zm7.99 0c.98 0 1.77.8 1.77 1.78v.04a1.78 1.78 0 1 1-3.55 0v-.04c0-.99.8-1.78 1.78-1.78Zm7.98 0c.98 0 1.78.8 1.78 1.78v.04a1.78 1.78 0 1 1-3.56 0v-.04c0-.99.8-1.78 1.78-1.78Zm7.99 0c.98 0 1.77.8 1.77 1.78v.04a1.78 1.78 0 1 1-3.55 0v-.04c0-.99.8-1.78 1.78-1.78Zm7.98 0c.98 0 1.78.8 1.78 1.78v.04a1.78 1.78 0 1 1-3.55 0v-.04c0-.99.8-1.78 1.77-1.78Zm7.99 0c.98 0 1.78.8 1.78 1.78v.04a1.78 1.78 0 1 1-3.56 0v-.04c0-.99.8-1.78 1.78-1.78Zm7.99 0c.98 0 1.77.8 1.77 1.78v.04a1.78 1.78 0 1 1-3.55 0v-.04c0-.99.8-1.78 1.78-1.78Zm7.98 0c.99 0 1.78.8 1.78 1.78v.04a1.78 1.78 0 1 1-3.55 0v-.04c0-.99.8-1.78 1.77-1.78Zm8.26 0c.98 0 1.78.8 1.78 1.78v.04a1.78 1.78 0 1 1-3.56 0v-.04c0-.99.8-1.78 1.78-1.78Zm7.99 0c.98 0 1.77.8 1.77 1.78v.04a1.78 1.78 0 1 1-3.55 0v-.04c0-.99.8-1.78 1.78-1.78Zm7.98 0c.99 0 1.78.8 1.78 1.78v.04a1.78 1.78 0 1 1-3.55 0v-.04c0-.99.8-1.78 1.77-1.78Zm8 0c.97 0 1.77.8 1.77 1.78v.04a1.78 1.78 0 1 1-3.56 0v-.04c0-.99.8-1.78 1.78-1.78Zm7.98 0c.98 0 1.78.8 1.78 1.78v.04a1.78 1.78 0 1 1-3.56 0v-.04c0-.99.8-1.78 1.78-1.78Zm7.99 0c.98 0 1.77.8 1.77 1.78v.04a1.78 1.78 0 1 1-3.55 0v-.04c0-.99.8-1.78 1.78-1.78Zm7.98 0c.99 0 1.78.8 1.78 1.78v.04a1.78 1.78 0 1 1-3.55 0v-.04c0-.99.8-1.78 1.77-1.78Zm8 0c.97 0 1.77.8 1.77 1.78v.04a1.78 1.78 0 1 1-3.56 0v-.04c0-.99.8-1.78 1.78-1.78Zm7.98 0c.98 0 1.78.8 1.78 1.78v.04a1.78 1.78 0 1 1-3.56 0v-.04c0-.99.8-1.78 1.78-1.78Zm7.99 0c.98 0 1.77.8 1.77 1.78v.04a1.78 1.78 0 1 1-3.55 0v-.04c0-.99.8-1.78 1.78-1.78Zm7.98 0c.99 0 1.78.8 1.78 1.78v.04a1.78 1.78 0 1 1-3.55 0v-.04c0-.99.8-1.78 1.77-1.78Zm8 0c.97 0 1.77.8 1.77 1.78v.04a1.78 1.78 0 1 1-3.56 0v-.04c0-.99.8-1.78 1.78-1.78Zm7.98 0c.98 0 1.78.8 1.78 1.78v.04a1.78 1.78 0 1 1-3.56 0v-.04c0-.99.8-1.78 1.78-1.78Zm7.99 0c.98 0 1.77.8 1.77 1.78v.04a1.78 1.78 0 1 1-3.55 0v-.04c0-.99.8-1.78 1.78-1.78ZM2.02 176.53c.98 0 1.78.8 1.78 1.78v.05a1.78 1.78 0 0 1-3.56 0v-.05c0-.98.8-1.78 1.78-1.78Zm7.98 0c.99 0 1.78.8 1.78 1.78v.05a1.78 1.78 0 0 1-3.55 0v-.05c0-.98.8-1.78 1.77-1.78Zm7.99 0c.98 0 1.78.8 1.78 1.78v.05a1.78 1.78 0 0 1-3.56 0v-.05c0-.98.8-1.78 1.78-1.78Zm7.99 0c.98 0 1.77.8 1.77 1.78v.05a1.78 1.78 0 0 1-3.55 0v-.05c0-.98.8-1.78 1.78-1.78Zm7.98 0c.98 0 1.78.8 1.78 1.78v.05a1.78 1.78 0 0 1-3.56 0v-.05c0-.98.8-1.78 1.78-1.78Zm7.99 0c.98 0 1.77.8 1.77 1.78v.05a1.78 1.78 0 0 1-3.55 0v-.05c0-.98.8-1.78 1.78-1.78Zm7.98 0c.98 0 1.78.8 1.78 1.78v.05a1.78 1.78 0 0 1-3.55 0v-.05c0-.98.8-1.78 1.77-1.78Zm7.99 0c.98 0 1.78.8 1.78 1.78v.05a1.78 1.78 0 0 1-3.56 0v-.05c0-.98.8-1.78 1.78-1.78Zm7.99 0c.98 0 1.77.8 1.77 1.78v.05a1.78 1.78 0 0 1-3.55 0v-.05c0-.98.8-1.78 1.78-1.78Zm7.98 0c.99 0 1.78.8 1.78 1.78v.05a1.78 1.78 0 0 1-3.55 0v-.05c0-.98.8-1.78 1.77-1.78Zm8.26 0c.98 0 1.78.8 1.78 1.78v.05a1.78 1.78 0 0 1-3.56 0v-.05c0-.98.8-1.78 1.78-1.78Zm7.99 0c.98 0 1.77.8 1.77 1.78v.05a1.78 1.78 0 0 1-3.55 0v-.05c0-.98.8-1.78 1.78-1.78Zm7.98 0c.99 0 1.78.8 1.78 1.78v.05a1.78 1.78 0 0 1-3.55 0v-.05c0-.98.8-1.78 1.77-1.78Zm8 0c.97 0 1.77.8 1.77 1.78v.05a1.78 1.78 0 0 1-3.56 0v-.05c0-.98.8-1.78 1.78-1.78Zm7.98 0c.98 0 1.78.8 1.78 1.78v.05a1.78 1.78 0 1 1-3.56 0v-.05c0-.98.8-1.78 1.78-1.78Zm7.99 0c.98 0 1.77.8 1.77 1.78v.05a1.78 1.78 0 0 1-3.55 0v-.05c0-.98.8-1.78 1.78-1.78Zm7.98 0c.99 0 1.78.8 1.78 1.78v.05a1.78 1.78 0 0 1-3.55 0v-.05c0-.98.8-1.78 1.77-1.78Zm8 0c.97 0 1.77.8 1.77 1.78v.05a1.78 1.78 0 1 1-3.56 0v-.05c0-.98.8-1.78 1.78-1.78Zm7.98 0c.98 0 1.78.8 1.78 1.78v.05a1.78 1.78 0 0 1-3.56 0v-.05c0-.98.8-1.78 1.78-1.78Zm7.99 0c.98 0 1.77.8 1.77 1.78v.05a1.78 1.78 0 0 1-3.55 0v-.05c0-.98.8-1.78 1.78-1.78Zm7.98 0c.99 0 1.78.8 1.78 1.78v.05a1.78 1.78 0 0 1-3.55 0v-.05c0-.98.8-1.78 1.77-1.78Zm8 0c.97 0 1.77.8 1.77 1.78v.05a1.78 1.78 0 0 1-3.56 0v-.05c0-.98.8-1.78 1.78-1.78Zm7.98 0c.98 0 1.78.8 1.78 1.78v.05a1.78 1.78 0 1 1-3.56 0v-.05c0-.98.8-1.78 1.78-1.78Zm7.99 0c.98 0 1.77.8 1.77 1.78v.05a1.78 1.78 0 0 1-3.55 0v-.05c0-.98.8-1.78 1.78-1.78ZM2.02 185.8c.98 0 1.78.8 1.78 1.77v.05a1.78 1.78 0 1 1-3.56 0v-.05c0-.98.8-1.77 1.78-1.77Zm7.98 0c.99 0 1.78.8 1.78 1.77v.05a1.78 1.78 0 1 1-3.55 0v-.05c0-.98.8-1.77 1.77-1.77Zm7.99 0c.98 0 1.78.8 1.78 1.77v.05a1.78 1.78 0 1 1-3.56 0v-.05c0-.98.8-1.77 1.78-1.77Zm7.99 0c.98 0 1.77.8 1.77 1.77v.05a1.78 1.78 0 1 1-3.55 0v-.05c0-.98.8-1.77 1.78-1.77Zm7.98 0c.98 0 1.78.8 1.78 1.77v.05a1.78 1.78 0 1 1-3.56 0v-.05c0-.98.8-1.77 1.78-1.77Zm7.99 0c.98 0 1.77.8 1.77 1.77v.05a1.78 1.78 0 1 1-3.55 0v-.05c0-.98.8-1.77 1.78-1.77Zm7.98 0c.98 0 1.78.8 1.78 1.77v.05a1.78 1.78 0 1 1-3.55 0v-.05c0-.98.8-1.77 1.77-1.77Zm7.99 0c.98 0 1.78.8 1.78 1.77v.05a1.78 1.78 0 1 1-3.56 0v-.05c0-.98.8-1.77 1.78-1.77Zm7.99 0c.98 0 1.77.8 1.77 1.77v.05a1.78 1.78 0 1 1-3.55 0v-.05c0-.98.8-1.77 1.78-1.77Zm7.98 0c.99 0 1.78.8 1.78 1.77v.05a1.78 1.78 0 1 1-3.55 0v-.05c0-.98.8-1.77 1.77-1.77Zm8.26 0c.98 0 1.78.8 1.78 1.77v.05a1.78 1.78 0 1 1-3.56 0v-.05c0-.98.8-1.77 1.78-1.77Zm7.99 0c.98 0 1.77.8 1.77 1.77v.05a1.78 1.78 0 1 1-3.55 0v-.05c0-.98.8-1.77 1.78-1.77Zm7.98 0c.99 0 1.78.8 1.78 1.77v.05a1.78 1.78 0 1 1-3.55 0v-.05c0-.98.8-1.77 1.77-1.77Zm8 0c.97 0 1.77.8 1.77 1.77v.05a1.78 1.78 0 0 1-3.56 0v-.05c0-.98.8-1.77 1.78-1.77Zm7.98 0c.98 0 1.78.8 1.78 1.77v.05a1.78 1.78 0 1 1-3.56 0v-.05c0-.98.8-1.77 1.78-1.77Zm7.99 0c.98 0 1.77.8 1.77 1.77v.05a1.78 1.78 0 1 1-3.55 0v-.05c0-.98.8-1.77 1.78-1.77Zm7.98 0c.99 0 1.78.8 1.78 1.77v.05a1.78 1.78 0 0 1-3.55 0v-.05c0-.98.8-1.77 1.77-1.77Zm8 0c.97 0 1.77.8 1.77 1.77v.05a1.78 1.78 0 1 1-3.56 0v-.05c0-.98.8-1.77 1.78-1.77Zm7.98 0c.98 0 1.78.8 1.78 1.77v.05a1.78 1.78 0 0 1-3.56 0v-.05c0-.98.8-1.77 1.78-1.77Zm7.99 0c.98 0 1.77.8 1.77 1.77v.05a1.78 1.78 0 1 1-3.55 0v-.05c0-.98.8-1.77 1.78-1.77Zm7.98 0c.99 0 1.78.8 1.78 1.77v.05a1.78 1.78 0 0 1-3.55 0v-.05c0-.98.8-1.77 1.77-1.77Zm8 0c.97 0 1.77.8 1.77 1.77v.05a1.78 1.78 0 0 1-3.56 0v-.05c0-.98.8-1.77 1.78-1.77Zm7.98 0c.98 0 1.78.8 1.78 1.77v.05a1.78 1.78 0 1 1-3.56 0v-.05c0-.98.8-1.77 1.78-1.77Zm7.99 0c.98 0 1.77.8 1.77 1.77v.05a1.78 1.78 0 0 1-3.55 0v-.05c0-.98.8-1.77 1.78-1.77ZM2.02 195.06c.98 0 1.78.8 1.78 1.78v.04a1.78 1.78 0 1 1-3.56 0v-.04c0-.99.8-1.78 1.78-1.78Zm7.98 0c.99 0 1.78.8 1.78 1.78v.04a1.78 1.78 0 1 1-3.55 0v-.04c0-.99.8-1.78 1.77-1.78Zm7.99 0c.98 0 1.78.8 1.78 1.78v.04a1.78 1.78 0 1 1-3.56 0v-.04c0-.99.8-1.78 1.78-1.78Zm7.99 0c.98 0 1.77.8 1.77 1.78v.04a1.78 1.78 0 1 1-3.55 0v-.04c0-.99.8-1.78 1.78-1.78Zm7.98 0c.98 0 1.78.8 1.78 1.78v.04a1.78 1.78 0 1 1-3.56 0v-.04c0-.99.8-1.78 1.78-1.78Zm7.99 0c.98 0 1.77.8 1.77 1.78v.04a1.78 1.78 0 1 1-3.55 0v-.04c0-.99.8-1.78 1.78-1.78Zm7.98 0c.98 0 1.78.8 1.78 1.78v.04a1.78 1.78 0 1 1-3.55 0v-.04c0-.99.8-1.78 1.77-1.78Zm7.99 0c.98 0 1.78.8 1.78 1.78v.04a1.78 1.78 0 1 1-3.56 0v-.04c0-.99.8-1.78 1.78-1.78Zm7.99 0c.98 0 1.77.8 1.77 1.78v.04a1.78 1.78 0 1 1-3.55 0v-.04c0-.99.8-1.78 1.78-1.78Zm7.98 0c.99 0 1.78.8 1.78 1.78v.04a1.78 1.78 0 1 1-3.55 0v-.04c0-.99.8-1.78 1.77-1.78Zm8.26 0c.98 0 1.78.8 1.78 1.78v.04a1.78 1.78 0 1 1-3.56 0v-.04c0-.99.8-1.78 1.78-1.78Zm7.99 0c.98 0 1.77.8 1.77 1.78v.04a1.78 1.78 0 1 1-3.55 0v-.04c0-.99.8-1.78 1.78-1.78Zm7.98 0c.99 0 1.78.8 1.78 1.78v.04a1.78 1.78 0 1 1-3.55 0v-.04c0-.99.8-1.78 1.77-1.78Zm8 0c.97 0 1.77.8 1.77 1.78v.04a1.78 1.78 0 1 1-3.56 0v-.04c0-.99.8-1.78 1.78-1.78Zm7.98 0c.98 0 1.78.8 1.78 1.78v.04a1.78 1.78 0 1 1-3.56 0v-.04c0-.99.8-1.78 1.78-1.78Zm7.99 0c.98 0 1.77.8 1.77 1.78v.04a1.78 1.78 0 1 1-3.55 0v-.04c0-.99.8-1.78 1.78-1.78Zm7.98 0c.99 0 1.78.8 1.78 1.78v.04a1.78 1.78 0 1 1-3.55 0v-.04c0-.99.8-1.78 1.77-1.78Zm8 0c.97 0 1.77.8 1.77 1.78v.04a1.78 1.78 0 1 1-3.56 0v-.04c0-.99.8-1.78 1.78-1.78Zm7.98 0c.98 0 1.78.8 1.78 1.78v.04a1.78 1.78 0 1 1-3.56 0v-.04c0-.99.8-1.78 1.78-1.78Zm7.99 0c.98 0 1.77.8 1.77 1.78v.04a1.78 1.78 0 1 1-3.55 0v-.04c0-.99.8-1.78 1.78-1.78Zm7.98 0c.99 0 1.78.8 1.78 1.78v.04a1.78 1.78 0 1 1-3.55 0v-.04c0-.99.8-1.78 1.77-1.78Zm8 0c.97 0 1.77.8 1.77 1.78v.04a1.78 1.78 0 1 1-3.56 0v-.04c0-.99.8-1.78 1.78-1.78Zm7.98 0c.98 0 1.78.8 1.78 1.78v.04a1.78 1.78 0 1 1-3.56 0v-.04c0-.99.8-1.78 1.78-1.78Zm7.99 0c.98 0 1.77.8 1.77 1.78v.04a1.78 1.78 0 1 1-3.55 0v-.04c0-.99.8-1.78 1.78-1.78ZM2.02 204.32c.98 0 1.78.8 1.78 1.78v.05a1.78 1.78 0 0 1-3.56 0v-.05c0-.98.8-1.78 1.78-1.78Zm7.98 0c.99 0 1.78.8 1.78 1.78v.05a1.78 1.78 0 0 1-3.55 0v-.05c0-.98.8-1.78 1.77-1.78Zm7.99 0c.98 0 1.78.8 1.78 1.78v.05a1.78 1.78 0 0 1-3.56 0v-.05c0-.98.8-1.78 1.78-1.78Zm7.99 0c.98 0 1.77.8 1.77 1.78v.05a1.78 1.78 0 0 1-3.55 0v-.05c0-.98.8-1.78 1.78-1.78Zm7.98 0c.98 0 1.78.8 1.78 1.78v.05a1.78 1.78 0 0 1-3.56 0v-.05c0-.98.8-1.78 1.78-1.78Zm7.99 0c.98 0 1.77.8 1.77 1.78v.05a1.78 1.78 0 0 1-3.55 0v-.05c0-.98.8-1.78 1.78-1.78Zm7.98 0c.98 0 1.78.8 1.78 1.78v.05a1.78 1.78 0 0 1-3.55 0v-.05c0-.98.8-1.78 1.77-1.78Zm7.99 0c.98 0 1.78.8 1.78 1.78v.05a1.78 1.78 0 0 1-3.56 0v-.05c0-.98.8-1.78 1.78-1.78Zm7.99 0c.98 0 1.77.8 1.77 1.78v.05a1.78 1.78 0 0 1-3.55 0v-.05c0-.98.8-1.78 1.78-1.78Zm7.98 0c.99 0 1.78.8 1.78 1.78v.05a1.78 1.78 0 0 1-3.55 0v-.05c0-.98.8-1.78 1.77-1.78Zm8.26 0c.98 0 1.78.8 1.78 1.78v.05a1.78 1.78 0 0 1-3.56 0v-.05c0-.98.8-1.78 1.78-1.78Zm7.99 0c.98 0 1.77.8 1.77 1.78v.05a1.78 1.78 0 0 1-3.55 0v-.05c0-.98.8-1.78 1.78-1.78Zm7.98 0c.99 0 1.78.8 1.78 1.78v.05a1.78 1.78 0 0 1-3.55 0v-.05c0-.98.8-1.78 1.77-1.78Zm8 0c.97 0 1.77.8 1.77 1.78v.05a1.78 1.78 0 0 1-3.56 0v-.05c0-.98.8-1.78 1.78-1.78Zm7.98 0c.98 0 1.78.8 1.78 1.78v.05a1.78 1.78 0 1 1-3.56 0v-.05c0-.98.8-1.78 1.78-1.78Zm7.99 0c.98 0 1.77.8 1.77 1.78v.05a1.78 1.78 0 0 1-3.55 0v-.05c0-.98.8-1.78 1.78-1.78Zm7.98 0c.99 0 1.78.8 1.78 1.78v.05a1.78 1.78 0 0 1-3.55 0v-.05c0-.98.8-1.78 1.77-1.78Zm8 0c.97 0 1.77.8 1.77 1.78v.05a1.78 1.78 0 1 1-3.56 0v-.05c0-.98.8-1.78 1.78-1.78Zm7.98 0c.98 0 1.78.8 1.78 1.78v.05a1.78 1.78 0 0 1-3.56 0v-.05c0-.98.8-1.78 1.78-1.78Zm7.99 0c.98 0 1.77.8 1.77 1.78v.05a1.78 1.78 0 0 1-3.55 0v-.05c0-.98.8-1.78 1.78-1.78Zm7.98 0c.99 0 1.78.8 1.78 1.78v.05a1.78 1.78 0 0 1-3.55 0v-.05c0-.98.8-1.78 1.77-1.78Zm8 0c.97 0 1.77.8 1.77 1.78v.05a1.78 1.78 0 0 1-3.56 0v-.05c0-.98.8-1.78 1.78-1.78Zm7.98 0c.98 0 1.78.8 1.78 1.78v.05a1.78 1.78 0 1 1-3.56 0v-.05c0-.98.8-1.78 1.78-1.78Zm7.99 0c.98 0 1.77.8 1.77 1.78v.05a1.78 1.78 0 0 1-3.55 0v-.05c0-.98.8-1.78 1.78-1.78ZM2.02 213.6c.98 0 1.78.8 1.78 1.77v.05a1.78 1.78 0 1 1-3.56 0v-.05c0-.98.8-1.77 1.78-1.77Zm7.98 0c.99 0 1.78.8 1.78 1.77v.05a1.78 1.78 0 1 1-3.55 0v-.05c0-.98.8-1.77 1.77-1.77Zm7.99 0c.98 0 1.78.8 1.78 1.77v.05a1.78 1.78 0 1 1-3.56 0v-.05c0-.98.8-1.77 1.78-1.77Zm7.99 0c.98 0 1.77.8 1.77 1.77v.05a1.78 1.78 0 1 1-3.55 0v-.05c0-.98.8-1.77 1.78-1.77Zm7.98 0c.98 0 1.78.8 1.78 1.77v.05a1.78 1.78 0 1 1-3.56 0v-.05c0-.98.8-1.77 1.78-1.77Zm7.99 0c.98 0 1.77.8 1.77 1.77v.05a1.78 1.78 0 1 1-3.55 0v-.05c0-.98.8-1.77 1.78-1.77Zm7.98 0c.98 0 1.78.8 1.78 1.77v.05a1.78 1.78 0 1 1-3.55 0v-.05c0-.98.8-1.77 1.77-1.77Zm7.99 0c.98 0 1.78.8 1.78 1.77v.05a1.78 1.78 0 1 1-3.56 0v-.05c0-.98.8-1.77 1.78-1.77Zm7.99 0c.98 0 1.77.8 1.77 1.77v.05a1.78 1.78 0 1 1-3.55 0v-.05c0-.98.8-1.77 1.78-1.77Zm7.98 0c.99 0 1.78.8 1.78 1.77v.05a1.78 1.78 0 1 1-3.55 0v-.05c0-.98.8-1.77 1.77-1.77Zm8.26 0c.98 0 1.78.8 1.78 1.77v.05a1.78 1.78 0 1 1-3.56 0v-.05c0-.98.8-1.77 1.78-1.77Zm7.99 0c.98 0 1.77.8 1.77 1.77v.05a1.78 1.78 0 1 1-3.55 0v-.05c0-.98.8-1.77 1.78-1.77Zm7.98 0c.99 0 1.78.8 1.78 1.77v.05a1.78 1.78 0 1 1-3.55 0v-.05c0-.98.8-1.77 1.77-1.77Zm8 0c.97 0 1.77.8 1.77 1.77v.05a1.78 1.78 0 0 1-3.56 0v-.05c0-.98.8-1.77 1.78-1.77Zm7.98 0c.98 0 1.78.8 1.78 1.77v.05a1.78 1.78 0 1 1-3.56 0v-.05c0-.98.8-1.77 1.78-1.77Zm7.99 0c.98 0 1.77.8 1.77 1.77v.05a1.78 1.78 0 1 1-3.55 0v-.05c0-.98.8-1.77 1.78-1.77Zm7.98 0c.99 0 1.78.8 1.78 1.77v.05a1.78 1.78 0 0 1-3.55 0v-.05c0-.98.8-1.77 1.77-1.77Zm8 0c.97 0 1.77.8 1.77 1.77v.05a1.78 1.78 0 1 1-3.56 0v-.05c0-.98.8-1.77 1.78-1.77Zm7.98 0c.98 0 1.78.8 1.78 1.77v.05a1.78 1.78 0 0 1-3.56 0v-.05c0-.98.8-1.77 1.78-1.77Zm7.99 0c.98 0 1.77.8 1.77 1.77v.05a1.78 1.78 0 1 1-3.55 0v-.05c0-.98.8-1.77 1.78-1.77Zm7.98 0c.99 0 1.78.8 1.78 1.77v.05a1.78 1.78 0 0 1-3.55 0v-.05c0-.98.8-1.77 1.77-1.77Zm8 0c.97 0 1.77.8 1.77 1.77v.05a1.78 1.78 0 0 1-3.56 0v-.05c0-.98.8-1.77 1.78-1.77Zm7.98 0c.98 0 1.78.8 1.78 1.77v.05a1.78 1.78 0 1 1-3.56 0v-.05c0-.98.8-1.77 1.78-1.77Zm7.99 0c.98 0 1.77.8 1.77 1.77v.05a1.78 1.78 0 0 1-3.55 0v-.05c0-.98.8-1.77 1.78-1.77ZM2.02 222.85c.98 0 1.78.8 1.78 1.78v.04a1.78 1.78 0 1 1-3.56 0v-.04c0-.98.8-1.78 1.78-1.78Zm7.98 0c.99 0 1.78.8 1.78 1.78v.04a1.78 1.78 0 1 1-3.55 0v-.04c0-.98.8-1.78 1.77-1.78Zm7.99 0c.98 0 1.78.8 1.78 1.78v.04a1.78 1.78 0 1 1-3.56 0v-.04c0-.98.8-1.78 1.78-1.78Zm7.99 0c.98 0 1.77.8 1.77 1.78v.04a1.78 1.78 0 1 1-3.55 0v-.04c0-.98.8-1.78 1.78-1.78Zm7.98 0c.98 0 1.78.8 1.78 1.78v.04a1.78 1.78 0 1 1-3.56 0v-.04c0-.98.8-1.78 1.78-1.78Zm7.99 0c.98 0 1.77.8 1.77 1.78v.04a1.78 1.78 0 1 1-3.55 0v-.04c0-.98.8-1.78 1.78-1.78Zm7.98 0c.98 0 1.78.8 1.78 1.78v.04a1.78 1.78 0 1 1-3.55 0v-.04c0-.98.8-1.78 1.77-1.78Zm7.99 0c.98 0 1.78.8 1.78 1.78v.04a1.78 1.78 0 1 1-3.56 0v-.04c0-.98.8-1.78 1.78-1.78Zm7.99 0c.98 0 1.77.8 1.77 1.78v.04a1.78 1.78 0 1 1-3.55 0v-.04c0-.98.8-1.78 1.78-1.78Zm7.98 0c.99 0 1.78.8 1.78 1.78v.04a1.78 1.78 0 1 1-3.55 0v-.04c0-.98.8-1.78 1.77-1.78Zm8.26 0c.98 0 1.78.8 1.78 1.78v.04a1.78 1.78 0 1 1-3.56 0v-.04c0-.98.8-1.78 1.78-1.78Zm7.99 0c.98 0 1.77.8 1.77 1.78v.04a1.78 1.78 0 1 1-3.55 0v-.04c0-.98.8-1.78 1.78-1.78Zm7.98 0c.99 0 1.78.8 1.78 1.78v.04a1.78 1.78 0 1 1-3.55 0v-.04c0-.98.8-1.78 1.77-1.78Zm8 0c.97 0 1.77.8 1.77 1.78v.04a1.78 1.78 0 1 1-3.56 0v-.04c0-.98.8-1.78 1.78-1.78Zm7.98 0c.98 0 1.78.8 1.78 1.78v.04a1.78 1.78 0 1 1-3.56 0v-.04c0-.98.8-1.78 1.78-1.78Zm7.99 0c.98 0 1.77.8 1.77 1.78v.04a1.78 1.78 0 1 1-3.55 0v-.04c0-.98.8-1.78 1.78-1.78Zm7.98 0c.99 0 1.78.8 1.78 1.78v.04a1.78 1.78 0 1 1-3.55 0v-.04c0-.98.8-1.78 1.77-1.78Zm8 0c.97 0 1.77.8 1.77 1.78v.04a1.78 1.78 0 1 1-3.56 0v-.04c0-.98.8-1.78 1.78-1.78Zm7.98 0c.98 0 1.78.8 1.78 1.78v.04a1.78 1.78 0 1 1-3.56 0v-.04c0-.98.8-1.78 1.78-1.78Zm7.99 0c.98 0 1.77.8 1.77 1.78v.04a1.78 1.78 0 1 1-3.55 0v-.04c0-.98.8-1.78 1.78-1.78Zm7.98 0c.99 0 1.78.8 1.78 1.78v.04a1.78 1.78 0 1 1-3.55 0v-.04c0-.98.8-1.78 1.77-1.78Zm8 0c.97 0 1.77.8 1.77 1.78v.04a1.78 1.78 0 1 1-3.56 0v-.04c0-.98.8-1.78 1.78-1.78Zm7.98 0c.98 0 1.78.8 1.78 1.78v.04a1.78 1.78 0 1 1-3.56 0v-.04c0-.98.8-1.78 1.78-1.78Zm7.99 0c.98 0 1.77.8 1.77 1.78v.04a1.78 1.78 0 1 1-3.55 0v-.04c0-.98.8-1.78 1.78-1.78ZM2.02 232.1c.98 0 1.78.8 1.78 1.78v.05a1.78 1.78 0 0 1-3.56 0v-.05c0-.98.8-1.78 1.78-1.78Zm7.98 0c.99 0 1.78.8 1.78 1.78v.05a1.78 1.78 0 0 1-3.55 0v-.05c0-.98.8-1.78 1.77-1.78Zm7.99 0c.98 0 1.78.8 1.78 1.78v.05a1.78 1.78 0 0 1-3.56 0v-.05c0-.98.8-1.78 1.78-1.78Zm7.99 0c.98 0 1.77.8 1.77 1.78v.05a1.78 1.78 0 0 1-3.55 0v-.05c0-.98.8-1.78 1.78-1.78Zm7.98 0c.98 0 1.78.8 1.78 1.78v.05a1.78 1.78 0 0 1-3.56 0v-.05c0-.98.8-1.78 1.78-1.78Zm7.99 0c.98 0 1.77.8 1.77 1.78v.05a1.78 1.78 0 0 1-3.55 0v-.05c0-.98.8-1.78 1.78-1.78Zm7.98 0c.98 0 1.78.8 1.78 1.78v.05a1.78 1.78 0 0 1-3.55 0v-.05c0-.98.8-1.78 1.77-1.78Zm7.99 0c.98 0 1.78.8 1.78 1.78v.05a1.78 1.78 0 0 1-3.56 0v-.05c0-.98.8-1.78 1.78-1.78Zm7.99 0c.98 0 1.77.8 1.77 1.78v.05a1.78 1.78 0 0 1-3.55 0v-.05c0-.98.8-1.78 1.78-1.78Zm7.98 0c.99 0 1.78.8 1.78 1.78v.05a1.78 1.78 0 0 1-3.55 0v-.05c0-.98.8-1.78 1.77-1.78Zm8.26 0c.98 0 1.78.8 1.78 1.78v.05a1.78 1.78 0 0 1-3.56 0v-.05c0-.98.8-1.78 1.78-1.78Zm7.99 0c.98 0 1.77.8 1.77 1.78v.05a1.78 1.78 0 0 1-3.55 0v-.05c0-.98.8-1.78 1.78-1.78Zm7.98 0c.99 0 1.78.8 1.78 1.78v.05a1.78 1.78 0 0 1-3.55 0v-.05c0-.98.8-1.78 1.77-1.78Zm8 0c.97 0 1.77.8 1.77 1.78v.05a1.78 1.78 0 0 1-3.56 0v-.05c0-.98.8-1.78 1.78-1.78Zm7.98 0c.98 0 1.78.8 1.78 1.78v.05a1.78 1.78 0 1 1-3.56 0v-.05c0-.98.8-1.78 1.78-1.78Zm7.99 0c.98 0 1.77.8 1.77 1.78v.05a1.78 1.78 0 0 1-3.55 0v-.05c0-.98.8-1.78 1.78-1.78Zm7.98 0c.99 0 1.78.8 1.78 1.78v.05a1.78 1.78 0 0 1-3.55 0v-.05c0-.98.8-1.78 1.77-1.78Zm8 0c.97 0 1.77.8 1.77 1.78v.05a1.78 1.78 0 1 1-3.56 0v-.05c0-.98.8-1.78 1.78-1.78Zm7.98 0c.98 0 1.78.8 1.78 1.78v.05a1.78 1.78 0 0 1-3.56 0v-.05c0-.98.8-1.78 1.78-1.78Zm7.99 0c.98 0 1.77.8 1.77 1.78v.05a1.78 1.78 0 0 1-3.55 0v-.05c0-.98.8-1.78 1.78-1.78Zm7.98 0c.99 0 1.78.8 1.78 1.78v.05a1.78 1.78 0 0 1-3.55 0v-.05c0-.98.8-1.78 1.77-1.78Zm8 0c.97 0 1.77.8 1.77 1.78v.05a1.78 1.78 0 0 1-3.56 0v-.05c0-.98.8-1.78 1.78-1.78Zm7.98 0c.98 0 1.78.8 1.78 1.78v.05a1.78 1.78 0 1 1-3.56 0v-.05c0-.98.8-1.78 1.78-1.78Zm7.99 0c.98 0 1.77.8 1.77 1.78v.05a1.78 1.78 0 0 1-3.55 0v-.05c0-.98.8-1.78 1.78-1.78ZM2.02 241.38c.98 0 1.78.8 1.78 1.77v.03a1.78 1.78 0 1 1-3.56 0v-.03c0-.98.8-1.77 1.78-1.77Zm7.98 0c.99 0 1.78.8 1.78 1.77v.03a1.78 1.78 0 1 1-3.55 0v-.03c0-.98.8-1.77 1.77-1.77Zm7.99 0c.98 0 1.78.8 1.78 1.77v.03a1.78 1.78 0 1 1-3.56 0v-.03c0-.98.8-1.77 1.78-1.77Zm7.99 0c.98 0 1.77.8 1.77 1.77v.03a1.78 1.78 0 1 1-3.55 0v-.03c0-.98.8-1.77 1.78-1.77Zm7.98 0c.98 0 1.78.8 1.78 1.77v.03a1.78 1.78 0 1 1-3.56 0v-.03c0-.98.8-1.77 1.78-1.77Zm7.99 0c.98 0 1.77.8 1.77 1.77v.03a1.78 1.78 0 1 1-3.55 0v-.03c0-.98.8-1.77 1.78-1.77Zm7.98 0c.98 0 1.78.8 1.78 1.77v.03a1.78 1.78 0 1 1-3.55 0v-.03c0-.98.8-1.77 1.77-1.77Zm7.99 0c.98 0 1.78.8 1.78 1.77v.03a1.78 1.78 0 1 1-3.56 0v-.03c0-.98.8-1.77 1.78-1.77Zm7.99 0c.98 0 1.77.8 1.77 1.77v.03a1.78 1.78 0 1 1-3.55 0v-.03c0-.98.8-1.77 1.78-1.77Zm7.98 0c.99 0 1.78.8 1.78 1.77v.03a1.78 1.78 0 1 1-3.55 0v-.03c0-.98.8-1.77 1.77-1.77Zm8.26 0c.98 0 1.78.8 1.78 1.77v.03a1.78 1.78 0 1 1-3.56 0v-.03c0-.98.8-1.77 1.78-1.77Zm7.99 0c.98 0 1.77.8 1.77 1.77v.03a1.78 1.78 0 1 1-3.55 0v-.03c0-.98.8-1.77 1.78-1.77Zm7.98 0c.99 0 1.78.8 1.78 1.77v.03a1.78 1.78 0 1 1-3.55 0v-.03c0-.98.8-1.77 1.77-1.77Zm8 0c.97 0 1.77.8 1.77 1.77v.03a1.78 1.78 0 1 1-3.56 0v-.03c0-.98.8-1.77 1.78-1.77Zm7.98 0c.98 0 1.78.8 1.78 1.77v.03a1.78 1.78 0 1 1-3.56 0v-.03c0-.98.8-1.77 1.78-1.77Zm7.99 0c.98 0 1.77.8 1.77 1.77v.03a1.78 1.78 0 1 1-3.55 0v-.03c0-.98.8-1.77 1.78-1.77Zm7.98 0c.99 0 1.78.8 1.78 1.77v.03a1.78 1.78 0 1 1-3.55 0v-.03c0-.98.8-1.77 1.77-1.77Zm8 0c.97 0 1.77.8 1.77 1.77v.03a1.78 1.78 0 1 1-3.56 0v-.03c0-.98.8-1.77 1.78-1.77Zm7.98 0c.98 0 1.78.8 1.78 1.77v.03a1.78 1.78 0 1 1-3.56 0v-.03c0-.98.8-1.77 1.78-1.77Zm7.99 0c.98 0 1.77.8 1.77 1.77v.03a1.78 1.78 0 1 1-3.55 0v-.03c0-.98.8-1.77 1.78-1.77Zm7.98 0c.99 0 1.78.8 1.78 1.77v.03a1.78 1.78 0 1 1-3.55 0v-.03c0-.98.8-1.77 1.77-1.77Zm8 0c.97 0 1.77.8 1.77 1.77v.03a1.78 1.78 0 1 1-3.56 0v-.03c0-.98.8-1.77 1.78-1.77Zm7.98 0c.98 0 1.78.8 1.78 1.77v.03a1.78 1.78 0 1 1-3.56 0v-.03c0-.98.8-1.77 1.78-1.77Zm7.99 0c.98 0 1.77.8 1.77 1.77v.03a1.78 1.78 0 1 1-3.55 0v-.03c0-.98.8-1.77 1.78-1.77Z" clip-rule="evenodd"/></svg>
