<svg width="222" height="113" viewBox="0 0 222 113" fill="none" xmlns="http://www.w3.org/2000/svg" aria-hidden="true">
<path class="fire" d="M151.763 7.94641C151.984 7.74729 152.297 7.68592 152.579 7.7855C154.556 8.48705 156.196 10.7691 156.968 13.8914C157.894 17.6432 157.593 23.0202 153.975 26.8551C152.86 28.0364 151.562 29.1673 149.917 29.6497C148.189 30.1562 148.37 28.6027 148.47 28.1909C149.766 22.7142 149.36 19.2064 147.048 16.7518C147.127 18.8843 146.532 20.9808 145.27 23.0072C145.089 23.3014 144.734 23.4462 144.393 23.3653C144.053 23.2842 143.801 22.9959 143.765 22.6484C143.704 22.0459 143.625 21.4896 143.525 20.9805C143.298 21.4396 143.014 21.8965 142.674 22.3496C142.558 22.4967 142.453 22.6373 142.354 22.7724C141.12 25.0918 141.984 26.1203 143.288 27.6706C143.453 27.8666 143.619 28.0673 143.782 28.2718C144.559 29.2429 143.69 30.1434 142.732 29.8724C139.83 28.95 135.473 27.0288 134.758 23.6698C134.211 21.1113 134.961 19.0248 135.686 17.0069L135.686 17.0069L135.688 17.0019L135.689 16.9972C136.277 15.3627 136.884 13.6734 136.818 11.6738C136.808 11.3447 136.997 11.0437 137.294 10.9093C137.594 10.7749 137.946 10.8349 138.187 11.0596C138.904 11.7274 139.452 12.6561 139.772 13.7049C141.587 11.0664 142.435 7.59448 142.296 3.35319C142.286 3.0666 142.427 2.79633 142.669 2.64433C142.909 2.4908 143.214 2.47598 143.471 2.60476C147.099 4.42344 149.641 7.24257 151.052 11.0024C151.426 10.2716 151.7 9.48231 151.519 8.74037C151.449 8.45015 151.537 8.14336 151.763 7.94641Z" fill="#FF2749"/>
<path d="M21.935 65.2898C31.6647 65.2898 36.9381 56.2285 38.6464 51.4008C38.8692 50.8809 38.9434 50.2867 38.9434 49.6925C38.9434 48.6527 37.6065 42.0424 36.8638 39.74C36.641 38.9972 35.824 38.3288 35.007 38.2545C34.2643 38.1802 32.8531 38.1802 31.739 38.1802C28.3224 38.1802 24.3117 38.403 22.1578 38.7001C21.0437 38.8487 20.6723 39.2943 20.6723 40.2599C20.6723 41.9681 20.8951 44.7162 21.2665 46.7216C21.4893 47.8357 22.3806 48.2071 23.0491 48.2071C23.8661 48.2071 24.1632 48.1328 25.7229 48.0585C26.1685 48.0585 26.5399 48.2071 26.5399 48.5784C26.5399 51.0294 23.569 53.9261 20.7466 53.9261C18.147 53.9261 15.6218 51.6236 15.6218 45.8303C15.6218 35.952 20.7466 25.0339 25.6486 25.0339C27.0598 25.0339 27.8025 26.2966 27.8025 27.8563C27.8025 29.8617 27.4312 31.7185 27.4312 32.2384C27.4312 33.2039 27.8768 33.8724 28.8423 33.8724C30.4763 33.8724 35.5269 33.8724 37.3837 33.7981C38.1264 33.7239 38.8692 33.2782 39.1663 32.5355C39.5376 31.4957 40.8003 28.6733 40.8003 26.2966C40.726 18.7207 27.4312 14.8585 22.752 14.8585C10.4227 14.8585 2.62402 32.4612 2.62402 46.0532C2.62402 50.361 3.5153 54.8173 5.89203 57.8625C8.26876 60.9077 15.6218 65.2898 21.935 65.2898Z" fill="#0F0D0B"/>
<path d="M76.0085 29.9359C73.706 28.8218 67.5414 27.2621 66.5758 27.2621C65.7588 27.2621 65.0904 27.8563 64.8676 28.5248C63.5307 32.3869 61.451 40.4827 60.634 46.7959C60.0398 49.544 56.2519 52.8862 54.5436 52.8862C54.1723 52.8862 54.0237 52.3663 54.0237 51.4008C54.0237 47.4643 56.6233 37.0661 57.9602 32.9069C57.9602 32.9069 58.0345 32.5355 58.0345 32.2384C58.0345 31.6442 57.8116 31.1243 57.366 30.8272C56.1034 30.0102 49.4931 27.4849 48.0819 27.4849C47.2649 27.4849 46.745 28.0048 46.5222 28.6733C44.6654 33.2782 41.5459 44.4191 41.5459 53.7032C41.5459 59.1994 47.9334 65.2155 52.2412 65.2155C54.9893 65.2155 57.9602 62.3932 60.2627 58.1596C60.4112 57.8625 60.5597 57.714 60.7083 57.714C60.8568 57.714 61.0054 57.9368 61.0797 58.3824L61.451 61.2791C61.5996 62.4675 62.3423 63.1359 63.1593 63.433C64.5705 63.9529 68.804 65.067 70.2895 65.067C71.0322 65.067 71.6264 64.4728 71.6264 63.7301C71.7749 57.2684 73.4832 43.4536 76.8255 31.9413C76.8255 31.9413 76.8998 31.7185 76.8998 31.4957C76.8998 30.9015 76.6027 30.1588 76.0085 29.9359Z" fill="#0F0D0B"/>
<path d="M91.0447 17.7552C90.5248 18.1266 90.1534 18.795 90.1534 19.4635C90.1534 19.6863 90.1534 19.8348 90.2277 20.0577C90.6733 21.246 91.3418 23.0286 92.0102 24.2912C92.3073 24.8111 92.9758 25.1825 93.6442 25.1825C93.7928 25.1825 94.1641 25.1082 94.1641 25.1082C97.3579 24.2169 103.3 21.246 105.825 19.3149C106.271 19.0178 106.568 18.4236 106.568 17.7552C106.568 17.4581 106.493 17.161 106.419 16.9382C105.825 15.1556 104.191 11.9619 103.151 10.4765C102.928 10.1794 102.557 9.95654 102.186 9.95654C101.74 9.95654 101.294 10.1794 100.923 10.5507C98.6948 12.6304 94.5355 15.4527 91.0447 17.7552ZM89.782 50.8809C89.782 50.361 90.1534 50.0639 90.7476 50.0639C91.1932 50.0639 93.0501 50.2867 94.2384 50.2867C102.557 50.2867 108.276 44.642 108.276 38.1802C108.276 35.8035 107.459 34.4666 105.974 32.8326C103.894 30.5301 96.3923 26.7422 91.936 26.7422C82.8004 26.7422 77.3042 41.0769 77.3042 49.0983C77.3042 52.5892 77.8241 55.9314 79.6067 58.3082C83.0232 62.9874 89.2621 65.1413 93.1986 65.1413C97.0608 65.1413 101.889 62.4674 103.597 60.6849C104.117 60.165 104.414 59.7936 104.414 58.7538C104.414 57.9368 103.374 54.2232 102.78 53.0348C102.483 52.3663 102.037 52.1435 101.517 52.1435C100.552 52.1435 96.7637 54.0746 93.2729 54.0746C90.8219 54.0746 89.782 52.4406 89.782 50.8809ZM95.9467 35.2836C96.9122 35.2836 97.2836 36.2491 97.2836 37.3632C97.2836 40.1113 94.8326 43.825 91.8617 43.825C91.416 43.825 91.119 43.5279 91.119 42.9337C91.119 41.5968 93.867 35.2836 95.9467 35.2836Z" fill="#0F0D0B"/>
<path d="M133.355 27.2621C131.276 27.2621 128.305 29.7131 126.151 32.7583C126.151 32.7583 125.854 33.1297 125.631 33.1297C125.408 33.1297 125.408 32.9069 125.334 32.4612L125.111 30.233C125.037 29.4903 124.665 28.6733 123.774 28.3762C122.14 27.782 116.421 26.6679 115.01 26.6679C114.267 26.6679 113.599 27.1878 113.45 27.9306L108.251 60.0164C108.251 60.0164 108.177 60.5364 108.177 60.6849C108.177 61.3534 108.474 61.9475 109.068 62.3189C110.479 63.1359 116.792 64.9927 118.501 64.9927C119.169 64.9927 119.689 64.4728 119.912 63.7301C120.58 59.8679 122.14 51.6236 123.328 45.3847C123.551 44.5677 124.071 43.6764 124.962 43.4536C127.488 42.7109 131.053 42.0424 133.058 41.5968C133.949 41.374 134.469 40.7798 134.469 40.037C134.692 36.769 134.841 32.7583 134.841 30.0845V28.599C134.766 27.8563 134.247 27.2621 133.355 27.2621Z" fill="#0F0D0B"/>
<path d="M146.321 63.8044C147.132 56.4364 147.916 50.2971 149.879 41.1573C150.544 38.0626 147.945 34.9679 149.168 29.7998C149.168 29.7998 149.242 29.5027 149.242 29.3541C149.242 28.76 148.871 28.24 148.276 27.943C147.014 27.3488 146.073 27.2621 144.959 27.2621C143.993 27.2621 143.325 27.782 143.102 28.5248C141.721 33.1297 139.062 34.9679 138.274 38.4495C136.961 44.252 134.943 54.0603 134.585 60.6106C134.585 61.6504 134.957 62.3189 135.774 62.6903C137.333 63.3587 143.498 65.067 144.909 65.067C145.578 65.067 146.172 64.5471 146.321 63.8044Z" fill="#0F0D0B"/>
<path d="M163.219 63.7301C165.521 45.459 170.497 24.9597 172.874 17.7552C172.874 17.7552 172.948 17.5324 172.948 17.3096C172.948 16.7154 172.577 16.1212 171.983 15.8984C170.943 15.4527 163.59 13.1503 162.327 13.1503C161.51 13.1503 160.991 13.5959 160.768 14.2644C157.723 21.5431 151.781 50.8809 151.781 60.3878C151.781 61.2048 152.004 62.0961 152.969 62.4674C154.232 62.9874 160.396 64.9185 161.882 64.9185C162.55 64.9185 163.144 64.4728 163.219 63.7301Z" fill="#0F0D0B"/>
<path d="M180.409 63.7301C182.711 45.459 187.688 24.9597 190.064 17.7552C190.064 17.7552 190.139 17.5324 190.139 17.3096C190.139 16.7154 189.767 16.1212 189.173 15.8984C188.133 15.4527 180.78 13.1503 179.518 13.1503C178.701 13.1503 178.181 13.5959 177.958 14.2644C174.913 21.5431 168.971 50.8809 168.971 60.3878C168.971 61.2048 169.194 62.0961 170.159 62.4674C171.422 62.9874 177.586 64.9185 179.072 64.9185C179.74 64.9185 180.335 64.4728 180.409 63.7301Z" fill="#0F0D0B"/>
<path d="M208.368 63.2844C210.225 63.8044 214.905 64.9927 216.019 64.9927C216.687 64.9927 217.207 64.3985 217.281 63.7301C217.43 57.714 218.395 46.5731 221.441 35.5807C221.441 35.5807 221.515 35.135 221.515 34.9865C221.515 34.318 221.292 33.8724 220.624 33.4268C215.573 30.0845 207.106 26.8165 203.095 26.8165C190.914 26.8165 186.607 42.7851 186.607 51.6979C186.607 58.9024 193.143 65.1413 198.267 65.1413C200.644 65.1413 203.244 62.7645 205.62 58.6795C205.769 58.3824 205.918 58.2339 206.066 58.2339C206.215 58.2339 206.363 58.4567 206.363 58.8281L206.586 61.2791C206.735 62.0218 207.106 62.9131 208.368 63.2844ZM204.655 50.8066C203.244 52.1435 201.387 53.4062 200.347 53.4062C199.753 53.4062 199.307 52.2178 199.307 50.2867C199.307 46.1274 201.61 37.0661 205.769 37.0661C206.735 37.0661 207.551 37.586 207.551 38.6259V38.9972C206.883 42.3395 205.992 45.8303 205.472 49.3212C205.398 49.7668 205.1 50.361 204.655 50.8066Z" fill="#0F0D0B"/>
<path d="M157.812 102.083C159.876 102.083 161.446 96.3396 161.446 93.3331C161.446 91.7176 160.953 90.7304 160.145 90.7304C158.35 90.7304 156.466 96.6537 156.421 99.7499C156.421 101.141 156.914 102.083 157.812 102.083ZM168.895 94.4549C168.895 98.2242 166.697 108.141 159.293 108.141C157.318 108.141 152.292 107.019 150.228 103.968C149.286 102.577 148.972 100.917 148.972 98.673C148.972 94.0959 151.888 84.9418 158.171 84.9418C159.427 84.9418 164.498 86.3328 166.921 88.5765C168.357 89.9227 168.895 92.5253 168.895 94.4549Z" fill="#0F0D0B"/>
<path d="M145.673 75.2491C148.948 75.2491 150.923 77.0889 150.923 79.3326C150.923 81.8455 148.948 83.775 145.852 83.775C143.205 83.775 141.903 81.9352 141.903 79.6018C141.903 77.9864 142.98 76.6402 144.057 75.7427C144.461 75.4286 145.044 75.2491 145.673 75.2491ZM145.314 107.333C145.224 107.782 144.865 108.096 144.461 108.096C143.608 108.096 139.884 107.064 138.942 106.66C138.448 106.436 138.224 106.032 138.224 105.404C138.493 100.468 140.288 89.7881 141.499 86.0187C141.634 85.57 142.038 85.2559 142.621 85.2559C143.294 85.2559 147.602 86.2431 148.365 86.6021C148.724 86.7816 148.948 87.0957 148.948 87.4546C148.948 87.5444 148.903 87.7239 148.903 87.7239C147.557 93.6471 145.897 102.038 145.314 107.333Z" fill="#0F0D0B"/>
<path d="M133.363 77.4031C133.542 76.9992 133.991 76.73 134.395 76.73C134.933 76.73 139.555 78.1659 140.184 78.3903C140.543 78.5249 140.767 78.839 140.767 79.198C140.767 79.2878 140.722 79.5121 140.722 79.5121C139.196 83.8648 136.28 96.2498 134.844 107.289C134.799 107.737 134.485 108.007 134.081 108.007C133.453 108.007 130.626 107.244 129.728 106.885C129.324 106.705 128.92 106.346 128.876 105.673C128.876 105.404 128.831 104.821 128.831 104.596C128.831 104.372 128.741 104.103 128.561 104.103C128.472 104.103 128.382 104.147 128.247 104.327C126.991 106.301 125.42 108.141 123.895 108.141C120.843 108.141 116.805 104.327 116.805 99.9743C116.805 92.301 120.754 84.9866 126.138 84.9866C127.215 84.9866 128.696 85.5251 129.953 86.1533C130.042 86.1982 130.177 86.2431 130.267 86.2431C130.536 86.2431 130.715 86.0636 130.805 85.7046C131.792 81.8904 132.645 79.0185 133.363 77.4031ZM127.799 99.4807C128.068 99.2114 128.247 98.8525 128.292 98.5832C128.606 96.4742 129.145 94.3651 129.549 92.3458V92.1215C129.549 91.4933 129.055 91.1791 128.472 91.1791C125.959 91.1791 124.568 96.6537 124.568 99.1666C124.568 100.333 124.837 101.051 125.196 101.051C125.824 101.051 126.946 100.288 127.799 99.4807Z" fill="#0F0D0B"/>
<path d="M116.112 86.8713C116.471 87.0059 116.65 87.4546 116.65 87.8136C116.65 87.9483 116.605 88.0829 116.605 88.0829C114.586 95.0382 113.554 103.385 113.464 107.289C113.464 107.737 113.105 108.096 112.656 108.096C111.759 108.096 109.201 107.423 108.349 107.109C107.855 106.93 107.406 106.526 107.317 105.808L107.092 104.058C107.047 103.788 106.958 103.654 106.868 103.654C106.778 103.654 106.688 103.744 106.599 103.923C105.207 106.481 103.413 108.186 101.752 108.186C99.1496 108.186 95.2905 104.551 95.2905 101.231C95.2905 95.6216 97.1752 88.8906 98.297 86.1085C98.4317 85.7046 98.7458 85.3905 99.2394 85.3905C100.092 85.3905 104.086 86.9162 104.849 87.4098C105.118 87.5893 105.252 87.9034 105.252 88.2624C105.252 88.4419 105.207 88.6662 105.207 88.6662C104.4 91.1791 102.829 97.4614 102.829 99.8396C102.829 100.423 102.919 100.737 103.143 100.737C104.175 100.737 106.464 98.7178 106.823 97.0575C107.317 93.2433 108.573 88.3521 109.381 86.0187C109.515 85.6148 109.919 85.2559 110.413 85.2559C110.996 85.2559 114.721 86.1982 116.112 86.8713Z" fill="#0F0D0B"/>
<path d="M95.1639 91.0446C95.0292 91.5382 94.6254 91.8972 94.042 91.8972H91.3496C90.856 91.8972 90.4522 92.2561 90.3176 92.7049C89.9137 94.5895 89.3303 97.5961 89.3303 98.673C89.3303 100.468 90.0034 101.321 91.5291 102.038C91.8432 102.218 91.9779 102.577 91.9779 102.891C91.9779 103.071 91.8881 103.295 91.8881 103.295C91.3945 104.507 90.3176 106.301 89.1957 107.558C88.9265 107.827 88.5226 108.052 88.1188 108.052C87.9393 108.052 87.7598 108.007 87.7598 108.007C83.6315 106.84 81.5224 103.43 81.5224 100.019C81.5224 98.2243 81.9711 95.4421 82.5545 92.6151C82.5545 92.6151 82.5994 92.3908 82.5994 92.301C82.5994 91.9869 82.4647 91.8074 82.1506 91.8074H81.8814C81.3878 91.8074 81.1186 91.4036 81.0737 90.9099C81.0288 90.4612 81.0288 89.9227 81.0288 89.2945C81.0288 88.3073 81.0737 87.1855 81.1186 86.4226C81.1634 85.9739 81.4327 85.57 82.1955 85.4803C82.4199 85.4354 83.1827 85.3905 83.6315 85.3457C84.1251 85.3008 84.2597 84.8969 84.3943 84.4482C85.0674 81.7109 85.7854 79.3327 86.3687 78.1211C86.5482 77.7172 86.9521 77.448 87.3559 77.448C88.2983 77.448 91.7984 78.4801 93.0099 79.0186C93.3689 79.1532 93.5484 79.5122 93.5484 79.8711C93.5484 80.0506 93.5035 80.2301 93.5035 80.2301C93.1894 81.1725 92.7407 82.6084 92.3368 84.2687C92.3368 84.2687 92.292 84.4931 92.292 84.5828C92.292 84.8969 92.4266 85.1213 92.7856 85.2111H94.5356C95.2536 85.2559 95.4331 85.7944 95.478 86.288V86.7367C95.478 88.1278 95.3433 90.0125 95.1639 91.0446Z" fill="#0F0D0B"/>
<path d="M77.97 99.4807C77.97 104.103 73.5725 108.321 68.4569 108.321C66.2581 108.321 61.9952 107.154 60.2003 105.628C58.3605 104.103 57.9117 102.128 57.5976 100.109C57.5976 100.109 57.5527 99.7948 57.5527 99.6153C57.5527 99.0769 57.7771 98.7179 58.2707 98.4038C61.0977 97.3268 62.9375 97.1473 63.2516 97.1473C63.7452 97.1473 64.0145 97.4614 64.1491 97.7755C65.0017 100.019 66.1235 101.5 67.9633 101.5C69.7134 101.5 70.3416 100.827 70.3416 100.154C70.3416 99.1217 68.9056 98.3589 67.1107 97.4614C63.9696 95.8909 59.7066 93.6921 59.7066 88.8458C59.7066 84.1341 63.9247 77.8967 69.0403 77.8967C72.5404 77.8967 80.4829 80.7686 80.4829 85.0316C80.4829 86.5573 79.4508 89.0253 79.0919 89.7432C78.7777 90.3266 78.5534 90.4612 77.97 90.5061C76.8482 90.6856 73.7519 90.7305 73.0789 90.7305C72.2263 90.7305 71.957 90.4163 71.957 90.0574C71.957 89.7432 72.6301 87.4098 72.6301 86.0636C72.6301 84.6726 72.1365 84.179 71.3288 84.179C69.4441 84.179 67.7838 86.8714 67.7838 88.397C67.7838 90.1022 69.6685 90.9099 71.3288 91.8523C74.8738 93.8716 77.97 94.8588 77.97 99.4807Z" fill="#0F0D0B"/>
</svg>
