<svg xmlns="http://www.w3.org/2000/svg" width="110" height="110" fill="none" viewBox="0 0 110 110" aria-hidden="true">
  <path fill="var(--color, #EDE7DE)" d="M24.58 66.05a8.28 8.28 0 0 1-.45-4.4l2.49.4 1.04.15.15-1.04.4-2.48c1.33.12 2.75.78 4.06 1.78l.4-1.02a8.7 8.7 0 0 0-5.36-1.83L26.79 61l-3.4-.54c-.63 1.56-.59 3.59.1 5.67.34-.04.71-.06 1.09-.08Zm15.24-5.59a8.24 8.24 0 0 1 4.06-1.78l.4 2.47.16 1.05 1.03-.17 2.49-.4c.28 1.3.1 2.84-.45 4.41.38 0 .74.04 1.1.08.68-2.08.72-4.1.09-5.68L45.3 61l-.53-3.4c-1.95 0-3.83.65-5.36 1.84.14.32.28.67.4 1.02v.01ZM24.88 83.21h.05c.06 0 .15-.63.27-.98-.1 0-.21.04-.32.04a8 8 0 0 1-4.02-.94L22 79.1l.47-.93-.94-.48-2.24-1.14a8.3 8.3 0 0 1 2.97-3.3c-.32-.24-.6-.47-.85-.71-1.8 1.27-3.01 2.9-3.42 4.52l3.05 1.56-1.55 2.99c1.28 1.07 3.2 1.6 5.37 1.6h.01Zm29.22-6.13a8.42 8.42 0 0 0-3.4-4.53c-.26.23-.54.47-.84.7a8.38 8.38 0 0 1 2.95 3.3l-2.24 1.15-.94.47 1.63 3.18a8 8 0 0 1-4.03.95l-.31-.01c.1.36.2.71.27 1.06h.04c2.17 0 4.1-.59 5.37-1.66l-1.55-3.06 3.05-1.55ZM40.8 86.7a8.28 8.28 0 0 1-2.21 3.84l-2.53-2.52-.74.73-1.79 1.79a8.3 8.3 0 0 1-2.23-3.84c-.31.21-.63.42-.93.6.67 2.07 1.84 3.73 3.26 4.62l2.42-2.42 2.43 2.43a8.4 8.4 0 0 0 3.26-4.63c-.32-.19-.62-.39-.94-.6Z"/>
  <path fill="var(--color, #EDE7DE)" d="M38.28 60.81c.44 1.2.78 2.73.87 4.5l.21 3.87 3.76-1c1.48-.4 3.01-.58 4.55-.55l-1.93 2.96 3.3 1.28c-1 .8-2.35 1.58-4 2.22l-3.62 1.4 2.1 3.26a15.7 15.7 0 0 1 1.94 4.16l-3.42-.9-.19 3.52a15.38 15.38 0 0 1-3.36-3.12l-2.45-3.01-2.44 3a15.4 15.4 0 0 1-3.36 3.13L30.05 82l-3.41.9a15.45 15.45 0 0 1 1.93-4.16l2.1-3.26-3.61-1.4a15.43 15.43 0 0 1-4-2.22l3.28-1.27-1.92-2.97h.5c1.27 0 2.67.18 4.06.56l3.74.99.21-3.87c.1-1.78.44-3.3.89-4.5l2.22 2.73 2.23-2.73m.21-5.25-2.44 3-2.41-3c-2.1 1.62-3.6 5.25-3.84 9.58-1.7-.45-3.36-.67-4.86-.67-2.22 0-4.13.46-5.43 1.35l2.1 3.23-3.6 1.39c.88 2.48 3.88 5.04 7.92 6.6-2.35 3.64-3.28 7.46-2.52 10l3.71-.99.21 3.84c2.63-.08 6-2.14 8.72-5.5 2.74 3.36 6.1 5.42 8.72 5.5l.22-3.85 3.72 1c.74-2.53-.17-6.36-2.53-10 4.05-1.56 7.04-4.12 7.93-6.6l-3.6-1.39 2.1-3.23c-1.3-.88-3.21-1.36-5.43-1.36-1.51 0-3.17.23-4.86.68-.25-4.33-1.75-7.96-3.84-9.58h.01Zm24.01-27a8.28 8.28 0 0 1-.45-4.41l2.5.39 1.03.16.16-1.05.4-2.48c1.32.14 2.74.78 4.05 1.79.13-.35.26-.7.4-1a8.69 8.69 0 0 0-5.36-1.85l-.52 3.39-3.4-.53c-.63 1.56-.58 3.57.1 5.65.35-.03.71-.06 1.1-.06Zm15.24-5.59a8.24 8.24 0 0 1 4.06-1.79l.56 3.52 1.03-.16 2.5-.4c.28 1.29.1 2.84-.46 4.41.38.01.75.04 1.1.07.69-2.07.72-4.1.09-5.66l-3.38.54-.55-3.39c-1.94 0-3.83.65-5.36 1.84.16.32.3.66.42 1.02h-.01ZM62.79 45.7h.03c.07 0 .17-.63.27-1-.1 0-.2.05-.3.05a7.87 7.87 0 0 1-4.03-.94l1.15-2.23.47-.93-.94-.48-2.23-1.14a8.3 8.3 0 0 1 2.95-3.3c-.3-.23-.59-.46-.84-.7-1.79 1.28-3 2.88-3.4 4.52l3.04 1.56-1.55 3c1.29 1.06 3.2 1.59 5.38 1.59ZM92 39.55a8.42 8.42 0 0 0-3.4-4.52c-.26.24-.54.47-.83.7a8.27 8.27 0 0 1 2.94 3.3l-2.24 1.14-.94.49.48.93 1.15 2.25c-1.06.61-2.46.95-4.02.95l-.32-.01c.1.35.2.71.28 1.05h.04c2.16 0 4.09-.58 5.36-1.66l-1.55-3.05L92 39.55ZM78.7 49.2a8.28 8.28 0 0 1-2.22 3.83l-1.79-1.77-.73-.74-2.52 2.53a8.3 8.3 0 0 1-2.23-3.85c-.32.2-.63.42-.94.6.67 2.08 1.83 3.73 3.26 4.62l2.43-2.41 2.41 2.41a8.4 8.4 0 0 0 3.27-4.62 10 10 0 0 1-.93-.6Z"/>
  <path fill="var(--color, #EDE7DE)" d="M76.18 23.32c.45 1.2.8 2.72.89 4.48l.2 3.88 3.75-1c1.48-.4 3.02-.58 4.56-.54l-1.92 2.95 3.3 1.28c-1.01.8-2.36 1.59-4 2.23L79.32 38l2.1 3.26c.97 1.49 1.59 2.92 1.93 4.16l-3.4-.92-.2 3.53a15.38 15.38 0 0 1-3.35-3.12l-2.45-3.01-2.45 3a15.4 15.4 0 0 1-3.36 3.13l-.2-3.53-3.4.92a15.45 15.45 0 0 1 1.94-4.16l2.1-3.26-3.62-1.4a15.42 15.42 0 0 1-4.01-2.23l3.3-1.27-1.93-2.96.5-.01c1.27 0 2.68.19 4.07.55l3.74 1 .2-3.87c.11-1.78.45-3.3.89-4.5l2.23 2.74 2.22-2.73Zm.2-5.26-2.41 2.99-2.45-2.99c-2.1 1.61-3.6 5.26-3.83 9.58-1.7-.46-3.36-.67-4.87-.67-2.2 0-4.12.47-5.42 1.35l2.1 3.24-3.6 1.37c.89 2.5 3.88 5.05 7.93 6.61-2.36 3.64-3.28 7.46-2.53 10l3.71-1 .21 3.85c2.63-.07 6-2.13 8.73-5.5 2.73 3.37 6.1 5.43 8.72 5.5l.2-3.84 3.73.99c.74-2.53-.18-6.36-2.52-10 4.03-1.56 7.04-4.12 7.9-6.6l-3.57-1.38 2.1-3.23c-1.3-.9-3.2-1.37-5.44-1.37-1.5 0-3.15.22-4.86.68-.23-4.32-1.73-7.97-3.83-9.58ZM51.05 38.64c0 4.34-1.66 8.34-4.58 10.98-2.78 2.51-7.48 4-12.69 4H21.05v-.86c3.4-.22 3.95-.8 3.95-4.04v-19.9c0-3.32-.4-3.73-3.95-4.04v-.85h12.1c6.15 0 11.04 1.61 14.09 4.7 2.46 2.47 3.8 5.97 3.8 10Zm-4.89.3c0-4.83-1.84-8.69-5.34-11.11-2.15-1.53-5.06-2.24-8.92-2.24-1.84 0-2.33.36-2.33 1.75V50.1c0 1.44.54 1.84 2.33 1.84 3.9 0 6.5-.54 8.79-1.84 3.63-2.1 5.47-5.87 5.47-11.16ZM85.93 67.83h-1.12c-.76-4.03-1.75-4.7-6.81-4.7h-6.1c-1.21 0-1.43.26-1.43 1.52v9.95h6.5c3.58 0 4.4-.67 4.93-4.26h1.03v10.4H81.9c-.54-3.62-1.3-4.3-4.93-4.3h-6.5v9.78c0 3.23.62 3.85 4.08 4.03v.86H61.99v-.86c3.4-.22 3.9-.8 3.9-4.53V66.31c0-3.14-.58-3.77-3.9-4.04v-.85H85.8l.13 6.41Z"/>
</svg>
