<svg width="317" height="152" viewBox="0 0 317 152" fill="none" xmlns="http://www.w3.org/2000/svg">
  <g fill="#000">
    <path d="M43.128 105.192c12.576 0 19.392-11.712 21.6-17.952.288-.672.384-1.44.384-2.208 0-1.344-1.728-9.888-2.688-12.864-.288-.96-1.344-1.824-2.4-1.92-.96-.096-2.784-.096-4.224-.096-4.416 0-9.6.288-12.384.672-1.44.192-1.92.768-1.92 2.016 0 2.208.288 5.76.768 8.352.288 1.44 1.44 1.92 2.304 1.92 1.056 0 1.44-.096 3.456-.192.576 0 1.056.192 1.056.672 0 3.168-3.84 6.912-7.488 6.912-3.36 0-6.624-2.976-6.624-10.464 0-12.768 6.624-26.88 12.96-26.88 1.824 0 2.784 1.632 2.784 3.648 0 2.592-.48 4.992-.48 5.664 0 1.248.576 2.112 1.824 2.112 2.112 0 8.64 0 11.04-.096.96-.096 1.92-.672 2.304-1.632.48-1.344 2.112-4.992 2.112-8.064-.096-9.792-17.28-14.784-23.328-14.784-15.936 0-26.016 22.752-26.016 40.32 0 5.568 1.152 11.328 4.224 15.264s12.576 9.6 20.736 9.6Zm69.892-45.696c-2.976-1.44-10.944-3.456-12.192-3.456-1.056 0-1.92.768-2.208 1.632-1.728 4.992-4.416 15.456-5.472 23.616-.768 3.552-5.664 7.872-7.872 7.872-.48 0-.672-.672-.672-1.92 0-5.088 3.36-18.528 5.088-23.904 0 0 .096-.48.096-.864 0-.768-.288-1.44-.864-1.824-1.632-1.056-10.176-4.32-12-4.32-1.056 0-1.728.672-2.016 1.536-2.4 5.952-6.432 20.352-6.432 32.352 0 7.104 8.256 14.88 13.824 14.88 3.552 0 7.392-3.648 10.368-9.12.192-.384.384-.576.576-.576.192 0 .384.288.48.864l.48 3.744c.192 1.536 1.152 2.4 2.208 2.784 1.824.672 7.296 2.112 9.216 2.112a1.72 1.72 0 0 0 1.728-1.728c.192-8.352 2.4-26.208 6.72-41.088 0 0 .096-.288.096-.576 0-.768-.384-1.728-1.152-2.016Zm19.434-15.744c-.672.48-1.152 1.344-1.152 2.208 0 .288 0 .48.096.768.576 1.536 1.44 3.84 2.304 5.472.384.672 1.248 1.152 2.112 1.152.192 0 .672-.096.672-.096 4.128-1.152 11.808-4.992 15.072-7.488.576-.384.96-1.152.96-2.016 0-.384-.096-.768-.192-1.056-.768-2.304-2.88-6.432-4.224-8.352-.288-.384-.768-.672-1.248-.672-.576 0-1.152.288-1.632.768-2.88 2.688-8.256 6.336-12.768 9.312Zm-1.632 42.816c0-.672.48-1.056 1.248-1.056.576 0 2.976.288 4.512.288 10.752 0 18.144-7.296 18.144-15.648 0-3.072-1.056-4.8-2.976-6.912-2.688-2.976-12.384-7.872-18.144-7.872-11.808 0-18.912 18.528-18.912 28.896 0 4.512.672 8.832 2.976 11.904 4.416 6.048 12.48 8.832 17.568 8.832 4.992 0 11.232-3.456 13.44-5.76.672-.672 1.056-1.152 1.056-2.496 0-1.056-1.344-5.856-2.112-7.392-.384-.864-.96-1.152-1.632-1.152-1.248 0-6.144 2.496-10.656 2.496-3.168 0-4.512-2.112-4.512-4.128Zm7.968-20.16c1.248 0 1.728 1.248 1.728 2.688 0 3.552-3.168 8.352-7.008 8.352-.576 0-.96-.384-.96-1.152 0-1.728 3.552-9.888 6.24-9.888Zm48.352-10.368c-2.688 0-6.528 3.168-9.312 7.104 0 0-.384.48-.672.48-.288 0-.288-.288-.384-.864l-.288-2.88c-.096-.96-.576-2.016-1.728-2.4-2.112-.768-9.504-2.208-11.328-2.208-.96 0-1.824.672-2.016 1.632l-6.72 41.472s-.096.672-.096.864c0 .864.384 1.632 1.152 2.112 1.824 1.056 9.984 3.456 12.192 3.456.864 0 1.536-.672 1.824-1.632.864-4.992 2.88-15.648 4.416-23.712.288-1.056.96-2.208 2.112-2.496 3.264-.96 7.872-1.824 10.464-2.4 1.152-.288 1.824-1.056 1.824-2.016.288-4.224.48-9.408.48-12.864v-1.92c-.096-.96-.768-1.728-1.92-1.728Zm16.758 47.232c1.049-9.523 2.062-17.459 4.6-29.272.859-4-2.5-8-.92-14.68 0 0 .096-.384.096-.576 0-.768-.48-1.44-1.248-1.824-1.632-.768-2.848-.88-4.288-.88-1.248 0-2.112.672-2.4 1.632-1.785 5.952-5.222 8.328-6.24 12.828-1.697 7.5-4.306 20.177-4.768 28.644 0 1.344.48 2.208 1.536 2.688 2.016.864 9.984 3.072 11.808 3.072.864 0 1.632-.672 1.824-1.632Zm21.842-.096c2.976-23.616 9.408-50.112 12.48-59.424 0 0 .096-.288.096-.576 0-.768-.48-1.536-1.248-1.824-1.344-.576-10.848-3.552-12.48-3.552-1.056 0-1.728.576-2.016 1.44-3.936 9.408-11.616 47.328-11.616 59.616 0 1.056.288 2.208 1.536 2.688 1.632.672 9.6 3.168 11.52 3.168.864 0 1.632-.576 1.728-1.536Zm22.218 0c2.976-23.616 9.408-50.112 12.48-59.424 0 0 .096-.288.096-.576 0-.768-.48-1.536-1.248-1.824-1.344-.576-10.848-3.552-12.48-3.552-1.056 0-1.728.576-2.016 1.44-3.936 9.408-11.616 47.328-11.616 59.616 0 1.056.288 2.208 1.536 2.688 1.632.672 9.6 3.168 11.52 3.168.864 0 1.632-.576 1.728-1.536Zm36.139-.576c2.4.672 8.448 2.208 9.888 2.208.864 0 1.536-.768 1.632-1.632.192-7.776 1.44-22.176 5.376-36.384 0 0 .096-.576.096-.768 0-.864-.288-1.44-1.152-2.016-6.528-4.32-17.472-8.544-22.656-8.544-15.744 0-21.312 20.64-21.312 32.16 0 9.312 8.448 17.376 15.072 17.376 3.072 0 6.432-3.072 9.504-8.352.192-.384.384-.576.576-.576.192 0 .384.288.384.768l.288 3.168c.192.96.672 2.112 2.304 2.592Zm-4.8-16.128c-1.824 1.728-4.224 3.36-5.568 3.36-.768 0-1.344-1.536-1.344-4.032 0-5.376 2.976-17.088 8.352-17.088 1.248 0 2.304.672 2.304 2.016v.48c-.864 4.32-2.016 8.832-2.688 13.344-.096.576-.48 1.344-1.056 1.92Z"/>
    <path d="M210.935 31.074c.285-.257.69-.337 1.055-.208 2.554.907 4.674 3.856 5.672 7.892 1.197 4.85.809 11.8-3.868 16.756-1.441 1.527-3.119 2.989-5.245 3.612-2.234.655-2-1.353-1.871-1.885 1.675-7.08 1.15-11.613-1.838-14.786.102 2.757-.667 5.466-2.298 8.086-.233.38-.692.567-1.134.463a1.068 1.068 0 0 1-.812-.927 23.709 23.709 0 0 0-.309-2.156 11.393 11.393 0 0 1-1.1 1.77c-.15.19-.285.371-.414.546-1.595 2.998-.478 4.327 1.208 6.331.213.254.427.513.638.777 1.004 1.255-.119 2.42-1.358 2.069-3.751-1.192-9.381-3.675-10.307-8.017-.707-3.307.263-6.004 1.2-8.612l.003-.006.002-.007c.759-2.112 1.544-4.296 1.459-6.88a1.049 1.049 0 0 1 1.769-.794c.927.863 1.635 2.063 2.048 3.419 2.347-3.41 3.443-7.898 3.263-13.38-.013-.37.17-.72.482-.916.31-.198.705-.218 1.037-.051 4.689 2.35 7.975 5.994 9.798 10.854.484-.944.838-1.965.605-2.924a1.028 1.028 0 0 1 .315-1.026ZM81.832 125.856c0-1.856 1.696-6.368 5.504-6.4.96 0 7.2 1.472 7.2 4.256 0 .8-.576 1.92-.864 2.336a1.05 1.05 0 0 1-.864.48c-.704.064-2.4.064-3.04.064-.32-.032-.48-.224-.48-.512 0-.16.352-1.248.352-2.016 0-.448-.192-.672-.512-.672-.928 0-1.792 1.76-1.792 2.496 0 1.952 6.144 1.472 6.144 4.768 0 3.04-2.784 5.344-5.792 5.344-2.176 0-4.704-.736-6.144-1.792-.32-.224-.384-.544-.384-.832 0-.224.448-1.952.704-2.624.16-.352.32-.48.544-.48.192 0 .384.128.512.192 1.28.672 2.848 1.376 4 1.376.512 0 1.312-.16 1.344-.608 0-1.152-6.432-.896-6.432-5.376Zm39.872-2.048a.799.799 0 0 1-.8.608h-1.92c-.352 0-.64.256-.736.576-.288 1.344-.704 3.488-.704 4.256 0 1.28.48 1.888 1.568 2.4.224.128.32.384.32.608a.946.946 0 0 1-.064.288c-.352.864-1.12 2.144-1.92 3.04-.192.192-.48.352-.768.352-.128 0-.256-.032-.256-.032-2.944-.832-4.448-3.264-4.448-5.696 0-1.28.32-3.264.736-5.28 0 0 .032-.16.032-.224 0-.224-.096-.352-.32-.352h-.192c-.352 0-.544-.288-.576-.64-.032-.32-.032-.704-.032-1.152 0-.704.032-1.504.064-2.048.032-.32.224-.608.768-.672.16-.032.704-.064 1.024-.096.352-.032.448-.32.544-.64.48-1.952.992-3.648 1.408-4.512a.799.799 0 0 1 .704-.48c.672 0 3.168.736 4.032 1.12.256.096.384.352.384.608 0 .128-.032.256-.032.256a36.57 36.57 0 0 0-.832 2.88s-.032.16-.032.224c0 .224.096.384.352.448h1.248c.512.032.64.416.672.768v.32c0 .992-.096 2.336-.224 3.072Zm30.938-2.976c.256.096.384.416.384.672 0 .096-.032.192-.032.192-1.44 4.96-2.176 10.912-2.24 13.696 0 .32-.256.576-.576.576-.64 0-2.464-.48-3.072-.704a1.09 1.09 0 0 1-.736-.928l-.16-1.248c-.032-.192-.096-.288-.16-.288s-.128.064-.192.192c-.992 1.824-2.272 3.04-3.456 3.04-1.856 0-4.608-2.592-4.608-4.96 0-4 1.344-8.8 2.144-10.784.096-.288.32-.512.672-.512.608 0 3.456 1.088 4 1.44.192.128.288.352.288.608 0 .128-.032.288-.032.288-.576 1.792-1.696 6.272-1.696 7.968 0 .416.064.64.224.64.736 0 2.368-1.44 2.624-2.624.352-2.72 1.248-6.208 1.824-7.872.096-.288.384-.544.736-.544.416 0 3.072.672 4.064 1.152Zm28.302-6.752a.844.844 0 0 1 .736-.48c.384 0 3.68 1.024 4.128 1.184.256.096.416.32.416.576 0 .064-.032.224-.032.224-1.088 3.104-3.168 11.936-4.192 19.808-.032.32-.256.512-.544.512-.448 0-2.464-.544-3.104-.8-.288-.128-.576-.384-.608-.864 0-.192-.032-.608-.032-.768 0-.16-.064-.352-.192-.352-.064 0-.128.032-.224.16-.896 1.408-2.016 2.72-3.104 2.72-2.176 0-5.056-2.72-5.056-5.824 0-5.472 2.816-10.688 6.656-10.688.768 0 1.824.384 2.72.832.064.032.16.064.224.064.192 0 .32-.128.384-.384.704-2.72 1.312-4.768 1.824-5.92Zm-3.968 15.744c.192-.192.32-.448.352-.64.224-1.504.608-3.008.896-4.448v-.16c0-.448-.352-.672-.768-.672-1.792 0-2.784 3.904-2.784 5.696 0 .832.192 1.344.448 1.344.448 0 1.248-.544 1.856-1.12Zm28.747-17.28c2.336 0 3.744 1.312 3.744 2.912 0 1.792-1.408 3.168-3.616 3.168-1.888 0-2.816-1.312-2.816-2.976 0-1.152.768-2.112 1.536-2.752.288-.224.704-.352 1.152-.352Zm-.256 22.88c-.064.32-.32.544-.608.544-.608 0-3.264-.736-3.936-1.024-.352-.16-.512-.448-.512-.896.192-3.52 1.472-11.136 2.336-13.824.096-.32.384-.544.8-.544.48 0 3.552.704 4.096.96.256.128.416.352.416.608 0 .064-.032.192-.032.192-.96 4.224-2.144 10.208-2.56 13.984Zm24.912-3.744c1.472 0 2.592-4.096 2.592-6.24 0-1.152-.352-1.856-.928-1.856-1.28 0-2.624 4.224-2.656 6.432 0 .992.352 1.664.992 1.664Zm7.904-5.44c0 2.688-1.568 9.76-6.848 9.76-1.408 0-4.992-.8-6.464-2.976-.672-.992-.896-2.176-.896-3.776 0-3.264 2.08-9.792 6.56-9.792.896 0 4.512.992 6.24 2.592 1.024.96 1.408 2.816 1.408 4.192Z"/>
  </g>
</svg>
