<svg xmlns="http://www.w3.org/2000/svg" width="219" height="98" viewBox="0 0 219 98">
  <g fill="none">
    <path fill="#BC2546" d="M141 8.5h.6c1.8.6 3 2.4 3.6 4.8.6 3 0 7.2-2.4 10.2-1.2.6-1.8 1.8-3 1.8-1.8.6-1.2-.6-1.2-1.2.6-4.2.6-6.6-1.2-9l-1.2 5.4H135v-.6l-.6-1.2-.6 1.2c-1.2 1.8-.6 3 .6 4.2h.6c.6 1.2 0 1.8-1.2 1.2-1.8-.6-5.4-1.8-6-4.8-.6-1.8 0-3.6.6-4.8l1.2-4.2c0-.3.3-.6.6-.6l1.2 2.4c1.8-2.4 2.4-4.8 2.4-8.4v-.6h.6c3 1.8 4.8 3.6 6 6.6l.6-1.8v-.6Z"/>
    <path fill="#190B0E" d="M40.2 52.9c7.8 0 12-7.2 13.2-10.8v-1.2l-1.8-7.8-1.2-1.2H48l-7.8.6-1.2 1.2.6 4.8c.6 1.2 1.2 1.2 1.8 1.2h1.8l.6.6c0 1.8-2.4 4.2-4.2 4.2-2.4 0-4.2-1.8-4.2-6.6 0-7.8 4.2-16.2 7.8-16.2 1.2 0 1.8 1.2 1.8 2.4l-.6 3c0 1.2.6 1.8 1.2 1.8l6.6-.6 1.2-.6a9 9 0 0 0 1.8-4.8c-.6-6-10.8-9-14.4-9-9.6 0-15.6 13.8-15.6 24 0 3.6.6 7.2 2.4 9.6a19 19 0 0 0 12.6 5.4Zm42-27.6L75 23.5l-1.2 1.2-.2.4a65.6 65.6 0 0 0-3.4 13.4c-.6 2.4-3.6 4.8-4.8 4.8v-1.2c0-3 1.8-10.8 3-14.4v-.6l-.6-.6-7.2-3-1.2 1.2-.7 2C57.3 31 55.2 37.9 55.2 44c0 4.2 5.4 9 8.4 9 2.4 0 4.8-2.4 6.6-5.4v-.6l.6.6v2.4c0 1.2.6 1.2 1.2 1.8l6 1.2.6-1.2.5-4.3C79.8 42 81 34 82.8 27.1l-.6-1.8Zm11.4-9c-.5.4-.8 1.1-.6 1.8l1.8 3 1.2.6c3-.6 7.2-3 9.6-4.2l.6-1.2-.6-.6c0-1.8-1.8-4.2-2.4-5.4h-1.8l-7.8 6ZM93 42.1l.6-.6h3c6 0 10.8-4.2 10.8-9.6 0-1.8-.6-3-1.8-4.2a22.2 22.2 0 0 0-10.8-4.8c-7.1 0-11.3 11.2-11.4 17.2v1c0 2.6.1 4.8 1.8 6.4 2.4 3.6 7.2 5.4 10.2 5.4 3 0 6.6-1.8 8.4-3.6l.6-1.2-1.2-4.8-1.2-.6c-.6 0-3.6 1.8-6.6 1.8-1.8 0-2.4-1.2-2.4-2.4Zm4.8-12.6 1.2 1.8c0 2.4-2.4 4.8-4.2 4.8l-.6-.6c0-.6 1.8-6 3.6-6Zm28.8-6c-1.8 0-3.6 1.8-5.4 4.2l-.6.6v-.6l-1.2-3.6-7.2-1.2-1.2 1.2-3.6 24.6v.6l.6 1.2 7.2 2.4 1.2-1.2 3.6-15.6 6.6-1.2 1.2-1.2v-9l-1.2-1.2Zm10.2 28.2 3-17.4c0-2.4-1.8-4.8-.6-9l-1.2-1.2-2.4-.6-1.2 1.2c-1.2 3.6-3 4.8-3.6 7.8l-.2.6a74 74 0 0 0-2.8 16.2l.6 1.8 7.2 1.8 1.2-1.2Zm13.2 0c1.8-13.8 5.4-30 7.2-35.4v-.6l-.6-1.2-7.2-1.8-1.2.6a174 174 0 0 0-7.2 36l.6 1.8 7.2 1.8 1.2-1.2Zm13.2 0c1.8-13.8 5.4-30 7.2-35.4l.6-.6-1.2-1.2-7.2-1.8-1.2.6c-2.4 6-7.1 28.3-7.2 35.8v.3c0 .6 0 1.1 1.2 1.7l6.6 1.8 1.2-1.2Zm21.6 0 6 1.2 1.2-1.2a83 83 0 0 1 3-21.6v-.6l-.6-1.2-.5-.3a39.4 39.4 0 0 0-13.3-5.1c-9 0-12.6 12.6-12.6 19.8 0 5.4 4.8 10.2 9 10.2 1.8 0 3.6-1.8 6-4.8v-.6l.6.6v2c0 .5 0 1 1.2 1.6Zm-3-10.2-3 2.4-1.2-2.4c0-3.6 1.8-10.2 5.4-10.2h.2c.5 0 1 .1 1 1.2l-1.8 8.4-.6.6ZM83.4 79.3c0 3.6-3.6 6.6-7.2 6.6-1.8 0-5.4-.6-6.6-1.8a6.5 6.5 0 0 1-1.8-4.2v-.6l.6-1.2 3.6-.6.6.6c.6 1.8 1.8 2.4 3 2.4l1.8-.6c0-1-1-1.7-2-2.2l-1-.5C72 76 69 74.2 69 70.9c0-3.6 3.6-8.4 7.2-8.4 3 0 9 2.4 9 5.4L84 71.5l-.6.6h-4.8l.6-3.6-1.2-1.2c-1.2 0-2.4 2.4-2.4 3 0 1.8 1.2 2.4 2.4 3l.5.3c2.8 1.6 4.9 2.3 4.9 5.7Zm13.2-6.6-.6.6h-2.4l-.6.6-.6 4.8c0 1.2.6 1.8 1.8 2.4v1.2l-1.8 3-1.2.6c-3.6-1.2-4.8-3.6-4.8-6l.6-6-1.2-1.2v-3.6l.6-.6h1.2l.6-1.2 1.8-4.8.6-.6 4.2 1.2.6.6v.6l-.6 3v.6H96l1.2 1.2-.6 3.6Zm16.2-3 .6.6c-1.8 5.4-2.4 12-2.4 15l-.6.6-3.6-.6-.6-1.2v-1.2l-.6-.6v.6c-1.2 1.8-2.4 3-3.6 3-2.4 0-5.4-3-5.4-5.4 0-4.2 1.8-9.6 2.4-11.4l1.2-.6 4.2 1.2v1.2l-1.8 8.4.6.6c.6 0 2.4-1.2 2.4-2.4l2.4-9 .6-.6 4.2 1.8Zm13.8-7.8.6-.6 4.2 1.8.6.6c-2.2 7.3-3.8 14.7-4.8 22.2l-3.6-1.2-.6-.6v-1.2h-.6c-1.2 1.8-2.4 3-3.6 3-2.4 0-5.4-3-5.4-6.6 0-5.4 3-11.4 7.2-11.4l3 1.2h.6v-.6l2.4-6.6Zm-4.8 17.4.6-.6 1.2-4.8v-.6l-1.2-.6c-1.8 0-3 4.2-3 6l.6 1.8 1.8-1.2Zm14.4-19.2c2.4 0 3.6 1.8 3.6 3.6s-1.2 3.6-3.6 3.6c-2.4 0-3-1.8-3-3.6l1.2-3 1.8-.6Zm-.6 25.2-.6.6-4.2-1.2-.6-1.2 2.4-15 1.2-.6 4.2 1.2.6.6v.6l-3 15Zm9.6-4.2c1.8 0 3-4.2 3-6.6l-1.2-2.4c-1.2 0-3 4.8-3 7.2 0 1.2.6 1.8 1.2 1.8Zm9-6v.2c0 3.2-2 10.6-7.8 10.6h-.2c-1.4 0-5.3-.7-7-3l-.6-4.2c0-3.6 2.4-10.8 7.2-10.8a15 15 0 0 1 6.6 3c1.2.6 1.8 3 1.8 4.2Z"/>
  </g>
</svg>
