<svg xmlns="http://www.w3.org/2000/svg" width="682.7" height="682.7" version="1.0" viewBox="0 0 512 512">
  <path d="M241.4 124.5a39.5 39.5 0 0 0-24.7 51.9 42.4 42.4 0 0 0 19.1 19.8c6.1 3 7.4 3.3 16.2 3.3 8.6 0 10.1-.3 16-3.1 8.2-4 14.1-9.9 18.3-18.3 3-6.1 3.2-7.3 3.2-16.6s-.2-10.5-3.2-16.5a39.8 39.8 0 0 0-23.7-20.7c-4.2-1.2-17.2-1-21.2.2zM158.2 272c-7 2.5-10.3 4.7-17 11.1a46.1 46.1 0 0 0-8.6 11.9c-2.8 5.9-3.1 7.4-3 15.5.1 7.8.5 9.8 3 15a49.7 49.7 0 0 0 18.9 19.4 37 37 0 0 0 44.9-9 40.7 40.7 0 0 0 5.6-46.7 45.1 45.1 0 0 0-19.2-16.7 40.6 40.6 0 0 0-24.6-.5zM325.5 272.5a39.7 39.7 0 0 0-24.3 21.3c-2.3 5-2.7 7-2.7 15.7 0 9.3.2 10.5 3.3 16.7 4.1 8.3 12 15.8 20 18.9 4.3 1.7 7.9 2.3 14.7 2.3 8.1.1 9.7-.2 15.5-3a40 40 0 0 0 22.7-39.3 38.8 38.8 0 0 0-27.2-32.5 48.1 48.1 0 0 0-22-.1z"/>
</svg>
