<svg xmlns="http://www.w3.org/2000/svg" version="1.1" xmlns:xlink="http://www.w3.org/1999/xlink" xmlns:svgjs="http://svgjs.dev/svgjs" width="80" height="80"><svg xmlns="http://www.w3.org/2000/svg" width="80" height="80" fill="none" viewBox="0 0 80 80">
  <g clip-path="url(#a)">
    <path fill="#EB2749" stroke="#EDE7DE" stroke-width="1.96" d="M30.4 6.4c-.04-1.07.49-2.1 1.4-2.67a3.08 3.08 0 0 1 3.04-.16l.89.46a39.49 39.49 0 0 1 18.23 19.51c.34-1.07.46-2.1.23-3.05a3.07 3.07 0 0 1 3.8-3.68l.21.07.52.2c5.3 2.16 9.45 8.29 11.41 16.22 2.4 9.71 1.7 23.66-7.5 33.83l-.45.48c-2.81 2.98-6.18 5.96-10.47 7.34l-.42.13c-1.22.36-2.26.4-3.1.1a2.88 2.88 0 0 1-1.7-1.65 4.83 4.83 0 0 1-.34-1.95c.02-.58.1-1.1.18-1.42l.3-1.3c2.62-11.79 1.93-19.62-2.07-25.27a29.86 29.86 0 0 1-4.69 13.95 3.07 3.07 0 0 1-3.32 1.36 3.1 3.1 0 0 1-2.36-2.7l-.13-1.12-.05-.4a26 26 0 0 1-.88 1.24l-.01.02c-.28.34-.53.68-.77 1-1.48 2.81-1.62 4.68-1.14 6.25.45 1.47 1.45 2.8 2.85 4.48l.62.74.64.78.65.8c1.23 1.53 1.27 3.24.33 4.46a3.8 3.8 0 0 1-4.07 1.2h-.03c-3.78-1.2-8.55-3.07-12.63-5.75C15.51 67.22 12 63.63 11 58.94l-.13-.65c-1.22-6.6.75-12.04 2.56-17.06v-.02l.57-1.59c1.3-3.7 2.43-7.45 2.29-11.77v-.23a3.07 3.07 0 0 1 1.6-2.56l.2-.1.22-.1a3.1 3.1 0 0 1 2.98.5l.17.16.37.36a15.93 15.93 0 0 1 3.29 4.98c3.81-6.36 5.61-14.53 5.28-24.45Z"></path>
  </g>
  <defs>
    <clipPath id="SvgjsClipPath1037">
      <path fill="#fff" d="M0 0h80v80H0z"></path>
    </clipPath>
  </defs>
</svg><style>@media (prefers-color-scheme: light) { :root { filter: none; } }
@media (prefers-color-scheme: dark) { :root { filter: none; } }
</style></svg>